<?xml version="1.0" encoding="utf-8" standalone="no"?>
<!DOCTYPE svg PUBLIC "-//W3C//DTD SVG 1.1//EN"
  "http://www.w3.org/Graphics/SVG/1.1/DTD/svg11.dtd">
<svg xmlns:xlink="http://www.w3.org/1999/xlink" width="861.614716pt" height="338.357344pt" viewBox="0 0 861.614716 338.357344" xmlns="http://www.w3.org/2000/svg" version="1.1">
 <metadata>
  <rdf:RDF xmlns:dc="http://purl.org/dc/elements/1.1/" xmlns:cc="http://creativecommons.org/ns#" xmlns:rdf="http://www.w3.org/1999/02/22-rdf-syntax-ns#">
   <cc:Work>
    <dc:type rdf:resource="http://purl.org/dc/dcmitype/StillImage"/>
    <dc:date>2025-09-19T04:32:21.360442</dc:date>
    <dc:format>image/svg+xml</dc:format>
    <dc:creator>
     <cc:Agent>
      <dc:title>Matplotlib v3.7.2, https://matplotlib.org/</dc:title>
     </cc:Agent>
    </dc:creator>
   </cc:Work>
  </rdf:RDF>
 </metadata>
 <defs>
  <style type="text/css">*{stroke-linejoin: round; stroke-linecap: butt}</style>
 </defs>
 <g id="figure_1">
  <g id="patch_1">
   <path d="M 0 338.357344 
L 861.614716 338.357344 
L 861.614716 0 
L 0 0 
z
" style="fill: #ffffff"/>
  </g>
  <g id="axes_1">
   <g id="patch_2">
    <path d="M 7437.23226 340.308544 
L -7248.09735 340.308544 
Q 349.07265 340.308544 349.07265 -2710.091456 
L 349.07265 3158.878144 
Q 349.07265 108.478144 -7248.09735 108.478144 
L 7437.23226 108.478144 
Q -159.93774 108.478144 -159.93774 3158.878144 
L -159.93774 -2710.091456 
Q -159.93774 340.308544 7437.23226 340.308544 
z
" clip-path="url(#p3f4ab8a86a)" style="fill: #95a3b3; opacity: 0.18"/>
   </g>
   <g id="patch_3">
    <path d="M 7501.808205 340.308544 
L -7183.521405 340.308544 
Q 413.648595 340.308544 413.648595 -2710.091456 
L 413.648595 3158.878144 
Q 413.648595 108.478144 -7183.521405 108.478144 
L 7501.808205 108.478144 
Q -95.361795 108.478144 -95.361795 3158.878144 
L -95.361795 -2710.091456 
Q -95.361795 340.308544 7501.808205 340.308544 
z
" clip-path="url(#p3f4ab8a86a)" style="fill: #95a3b3; opacity: 0.18"/>
   </g>
   <g id="patch_4">
    <path d="M 7566.38415 340.308544 
L -7118.94546 340.308544 
Q 478.22454 340.308544 478.22454 -2710.091456 
L 478.22454 3158.878144 
Q 478.22454 108.478144 -7118.94546 108.478144 
L 7566.38415 108.478144 
Q -30.78585 108.478144 -30.78585 3158.878144 
L -30.78585 -2710.091456 
Q -30.78585 340.308544 7566.38415 340.308544 
z
" clip-path="url(#p3f4ab8a86a)" style="fill: #95a3b3; opacity: 0.18"/>
   </g>
   <g id="patch_5">
    <path d="M 7630.960095 340.308544 
L -7054.369515 340.308544 
Q 542.800485 340.308544 542.800485 -2710.091456 
L 542.800485 3158.878144 
Q 542.800485 108.478144 -7054.369515 108.478144 
L 7630.960095 108.478144 
Q 33.790095 108.478144 33.790095 3158.878144 
L 33.790095 -2710.091456 
Q 33.790095 340.308544 7630.960095 340.308544 
z
" clip-path="url(#p3f4ab8a86a)" style="fill: #95a3b3; opacity: 0.18"/>
   </g>
   <g id="patch_6">
    <path d="M 7695.53604 340.308544 
L -6989.79357 340.308544 
Q 607.37643 340.308544 607.37643 -2710.091456 
L 607.37643 3158.878144 
Q 607.37643 108.478144 -6989.79357 108.478144 
L 7695.53604 108.478144 
Q 98.36604 108.478144 98.36604 3158.878144 
L 98.36604 -2710.091456 
Q 98.36604 340.308544 7695.53604 340.308544 
z
" clip-path="url(#p3f4ab8a86a)" style="fill: #95a3b3; opacity: 0.18"/>
   </g>
   <g id="patch_7">
    <path d="M 7760.111985 340.308544 
L -6925.217625 340.308544 
Q 671.952375 340.308544 671.952375 -2710.091456 
L 671.952375 3158.878144 
Q 671.952375 108.478144 -6925.217625 108.478144 
L 7760.111985 108.478144 
Q 162.941985 108.478144 162.941985 3158.878144 
L 162.941985 -2710.091456 
Q 162.941985 340.308544 7760.111985 340.308544 
z
" clip-path="url(#p3f4ab8a86a)" style="fill: #95a3b3; opacity: 0.18"/>
   </g>
   <g id="patch_8">
    <path d="M 7824.68793 340.308544 
L -6860.64168 340.308544 
Q 736.52832 340.308544 736.52832 -2710.091456 
L 736.52832 3158.878144 
Q 736.52832 108.478144 -6860.64168 108.478144 
L 7824.68793 108.478144 
Q 227.51793 108.478144 227.51793 3158.878144 
L 227.51793 -2710.091456 
Q 227.51793 340.308544 7824.68793 340.308544 
z
" clip-path="url(#p3f4ab8a86a)" style="fill: #95a3b3; opacity: 0.18"/>
   </g>
   <g id="patch_9">
    <path d="M 7889.263875 340.308544 
L -6796.065735 340.308544 
Q 801.104265 340.308544 801.104265 -2710.091456 
L 801.104265 3158.878144 
Q 801.104265 108.478144 -6796.065735 108.478144 
L 7889.263875 108.478144 
Q 292.093875 108.478144 292.093875 3158.878144 
L 292.093875 -2710.091456 
Q 292.093875 340.308544 7889.263875 340.308544 
z
" clip-path="url(#p3f4ab8a86a)" style="fill: #95a3b3; opacity: 0.18"/>
   </g>
   <g id="patch_10">
    <path d="M 7437.23226 254.897344 
L -7248.09735 254.897344 
Q 349.07265 254.897344 349.07265 -2795.502656 
L 349.07265 3073.466944 
Q 349.07265 23.066944 -7248.09735 23.066944 
L 7437.23226 23.066944 
Q -159.93774 23.066944 -159.93774 3073.466944 
L -159.93774 -2795.502656 
Q -159.93774 254.897344 7437.23226 254.897344 
z
" clip-path="url(#p3f4ab8a86a)" style="fill: #95a3b3; opacity: 0.18"/>
   </g>
   <g id="patch_11">
    <path d="M 7501.808205 254.897344 
L -7183.521405 254.897344 
Q 413.648595 254.897344 413.648595 -2795.502656 
L 413.648595 3073.466944 
Q 413.648595 23.066944 -7183.521405 23.066944 
L 7501.808205 23.066944 
Q -95.361795 23.066944 -95.361795 3073.466944 
L -95.361795 -2795.502656 
Q -95.361795 254.897344 7501.808205 254.897344 
z
" clip-path="url(#p3f4ab8a86a)" style="fill: #95a3b3; opacity: 0.18"/>
   </g>
   <g id="patch_12">
    <path d="M 7566.38415 254.897344 
L -7118.94546 254.897344 
Q 478.22454 254.897344 478.22454 -2795.502656 
L 478.22454 3073.466944 
Q 478.22454 23.066944 -7118.94546 23.066944 
L 7566.38415 23.066944 
Q -30.78585 23.066944 -30.78585 3073.466944 
L -30.78585 -2795.502656 
Q -30.78585 254.897344 7566.38415 254.897344 
z
" clip-path="url(#p3f4ab8a86a)" style="fill: #95a3b3; opacity: 0.18"/>
   </g>
   <g id="patch_13">
    <path d="M 7630.960095 254.897344 
L -7054.369515 254.897344 
Q 542.800485 254.897344 542.800485 -2795.502656 
L 542.800485 3073.466944 
Q 542.800485 23.066944 -7054.369515 23.066944 
L 7630.960095 23.066944 
Q 33.790095 23.066944 33.790095 3073.466944 
L 33.790095 -2795.502656 
Q 33.790095 254.897344 7630.960095 254.897344 
z
" clip-path="url(#p3f4ab8a86a)" style="fill: #95a3b3; opacity: 0.18"/>
   </g>
   <g id="patch_14">
    <path d="M 7695.53604 254.897344 
L -6989.79357 254.897344 
Q 607.37643 254.897344 607.37643 -2795.502656 
L 607.37643 3073.466944 
Q 607.37643 23.066944 -6989.79357 23.066944 
L 7695.53604 23.066944 
Q 98.36604 23.066944 98.36604 3073.466944 
L 98.36604 -2795.502656 
Q 98.36604 254.897344 7695.53604 254.897344 
z
" clip-path="url(#p3f4ab8a86a)" style="fill: #95a3b3; opacity: 0.18"/>
   </g>
   <g id="patch_15">
    <path d="M 7760.111985 254.897344 
L -6925.217625 254.897344 
Q 671.952375 254.897344 671.952375 -2795.502656 
L 671.952375 3073.466944 
Q 671.952375 23.066944 -6925.217625 23.066944 
L 7760.111985 23.066944 
Q 162.941985 23.066944 162.941985 3073.466944 
L 162.941985 -2795.502656 
Q 162.941985 254.897344 7760.111985 254.897344 
z
" clip-path="url(#p3f4ab8a86a)" style="fill: #95a3b3; opacity: 0.18"/>
   </g>
   <g id="patch_16">
    <path d="M 7824.68793 254.897344 
L -6860.64168 254.897344 
Q 736.52832 254.897344 736.52832 -2795.502656 
L 736.52832 3073.466944 
Q 736.52832 23.066944 -6860.64168 23.066944 
L 7824.68793 23.066944 
Q 227.51793 23.066944 227.51793 3073.466944 
L 227.51793 -2795.502656 
Q 227.51793 254.897344 7824.68793 254.897344 
z
" clip-path="url(#p3f4ab8a86a)" style="fill: #95a3b3; opacity: 0.18"/>
   </g>
   <g id="patch_17">
    <path d="M 7889.263875 254.897344 
L -6796.065735 254.897344 
Q 801.104265 254.897344 801.104265 -2795.502656 
L 801.104265 3073.466944 
Q 801.104265 23.066944 -6796.065735 23.066944 
L 7889.263875 23.066944 
Q 292.093875 23.066944 292.093875 3073.466944 
L 292.093875 -2795.502656 
Q 292.093875 254.897344 7889.263875 254.897344 
z
" clip-path="url(#p3f4ab8a86a)" style="fill: #95a3b3; opacity: 0.18"/>
   </g>
   <g id="patch_18">
    <path d="M 7980.429915 254.897344 
L -6651.719505 254.897344 
Q 945.450495 254.897344 945.450495 -2795.502656 
L 945.450495 3073.466944 
Q 945.450495 23.066944 -6651.719505 23.066944 
L 7980.429915 23.066944 
Q 383.259915 23.066944 383.259915 3073.466944 
L 383.259915 -2795.502656 
Q 383.259915 254.897344 7980.429915 254.897344 
z
" clip-path="url(#p3f4ab8a86a)" style="fill: #95a3b3; opacity: 0.18"/>
   </g>
   <g id="patch_19">
    <path d="M 8117.178975 218.292544 
L -6484.581765 218.292544 
Q 1112.588235 218.292544 1112.588235 -2832.107456 
L 1112.588235 3049.063744 
Q 1112.588235 -1.336256 -6484.581765 -1.336256 
L 8117.178975 -1.336256 
Q 520.008975 -1.336256 520.008975 3049.063744 
L 520.008975 -2832.107456 
Q 520.008975 218.292544 8117.178975 218.292544 
z
" clip-path="url(#p3f4ab8a86a)" style="fill: #95a3b3; opacity: 0.18"/>
   </g>
   <g id="patch_20">
    <path d="M 8117.178975 257.947744 
L -6484.581765 257.947744 
Q 1112.588235 257.947744 1112.588235 -2792.452256 
L 1112.588235 3088.718944 
Q 1112.588235 38.318944 -6484.581765 38.318944 
L 8117.178975 38.318944 
Q 520.008975 38.318944 520.008975 3088.718944 
L 520.008975 -2792.452256 
Q 520.008975 257.947744 8117.178975 257.947744 
z
" clip-path="url(#p3f4ab8a86a)" style="fill: #95a3b3; opacity: 0.18"/>
   </g>
   <g id="patch_21">
    <path d="M 8117.178975 297.602944 
L -6484.581765 297.602944 
Q 1112.588235 297.602944 1112.588235 -2752.797056 
L 1112.588235 3128.374144 
Q 1112.588235 77.974144 -6484.581765 77.974144 
L 8117.178975 77.974144 
Q 520.008975 77.974144 520.008975 3128.374144 
L 520.008975 -2752.797056 
Q 520.008975 297.602944 8117.178975 297.602944 
z
" clip-path="url(#p3f4ab8a86a)" style="fill: #95a3b3; opacity: 0.18"/>
   </g>
   <g id="patch_22">
    <path d="M 7429.63509 337.258144 
L -7255.69452 337.258144 
Q 341.47548 337.258144 341.47548 -2713.141856 
L 341.47548 3155.827744 
Q 341.47548 105.427744 -7255.69452 105.427744 
L 7429.63509 105.427744 
Q -167.53491 105.427744 -167.53491 3155.827744 
L -167.53491 -2713.141856 
Q -167.53491 337.258144 7429.63509 337.258144 
z
" clip-path="url(#p3f4ab8a86a)" style="fill: #f4f6f8; stroke: #65737e; stroke-width: 1.6; stroke-linejoin: miter"/>
   </g>
   <g id="patch_23">
    <path d="M 7494.211035 337.258144 
L -7191.118575 337.258144 
Q 406.051425 337.258144 406.051425 -2713.141856 
L 406.051425 3155.827744 
Q 406.051425 105.427744 -7191.118575 105.427744 
L 7494.211035 105.427744 
Q -102.958965 105.427744 -102.958965 3155.827744 
L -102.958965 -2713.141856 
Q -102.958965 337.258144 7494.211035 337.258144 
z
" clip-path="url(#p3f4ab8a86a)" style="fill: #f4f6f8; stroke: #65737e; stroke-width: 1.6; stroke-linejoin: miter"/>
   </g>
   <g id="patch_24">
    <path d="M 7558.78698 337.258144 
L -7126.54263 337.258144 
Q 470.62737 337.258144 470.62737 -2713.141856 
L 470.62737 3155.827744 
Q 470.62737 105.427744 -7126.54263 105.427744 
L 7558.78698 105.427744 
Q -38.38302 105.427744 -38.38302 3155.827744 
L -38.38302 -2713.141856 
Q -38.38302 337.258144 7558.78698 337.258144 
z
" clip-path="url(#p3f4ab8a86a)" style="fill: #f4f6f8; stroke: #65737e; stroke-width: 1.6; stroke-linejoin: miter"/>
   </g>
   <g id="patch_25">
    <path d="M 7623.362925 337.258144 
L -7061.966685 337.258144 
Q 535.203315 337.258144 535.203315 -2713.141856 
L 535.203315 3155.827744 
Q 535.203315 105.427744 -7061.966685 105.427744 
L 7623.362925 105.427744 
Q 26.192925 105.427744 26.192925 3155.827744 
L 26.192925 -2713.141856 
Q 26.192925 337.258144 7623.362925 337.258144 
z
" clip-path="url(#p3f4ab8a86a)" style="fill: #f4f6f8; stroke: #65737e; stroke-width: 1.6; stroke-linejoin: miter"/>
   </g>
   <g id="patch_26">
    <path d="M 7687.93887 337.258144 
L -6997.39074 337.258144 
Q 599.77926 337.258144 599.77926 -2713.141856 
L 599.77926 3155.827744 
Q 599.77926 105.427744 -6997.39074 105.427744 
L 7687.93887 105.427744 
Q 90.76887 105.427744 90.76887 3155.827744 
L 90.76887 -2713.141856 
Q 90.76887 337.258144 7687.93887 337.258144 
z
" clip-path="url(#p3f4ab8a86a)" style="fill: #f4f6f8; stroke: #65737e; stroke-width: 1.6; stroke-linejoin: miter"/>
   </g>
   <g id="patch_27">
    <path d="M 7752.514815 337.258144 
L -6932.814795 337.258144 
Q 664.355205 337.258144 664.355205 -2713.141856 
L 664.355205 3155.827744 
Q 664.355205 105.427744 -6932.814795 105.427744 
L 7752.514815 105.427744 
Q 155.344815 105.427744 155.344815 3155.827744 
L 155.344815 -2713.141856 
Q 155.344815 337.258144 7752.514815 337.258144 
z
" clip-path="url(#p3f4ab8a86a)" style="fill: #f4f6f8; stroke: #65737e; stroke-width: 1.6; stroke-linejoin: miter"/>
   </g>
   <g id="patch_28">
    <path d="M 7817.09076 337.258144 
L -6868.23885 337.258144 
Q 728.93115 337.258144 728.93115 -2713.141856 
L 728.93115 3155.827744 
Q 728.93115 105.427744 -6868.23885 105.427744 
L 7817.09076 105.427744 
Q 219.92076 105.427744 219.92076 3155.827744 
L 219.92076 -2713.141856 
Q 219.92076 337.258144 7817.09076 337.258144 
z
" clip-path="url(#p3f4ab8a86a)" style="fill: #f4f6f8; stroke: #65737e; stroke-width: 1.6; stroke-linejoin: miter"/>
   </g>
   <g id="patch_29">
    <path d="M 7881.666705 337.258144 
L -6803.662905 337.258144 
Q 793.507095 337.258144 793.507095 -2713.141856 
L 793.507095 3155.827744 
Q 793.507095 105.427744 -6803.662905 105.427744 
L 7881.666705 105.427744 
Q 284.496705 105.427744 284.496705 3155.827744 
L 284.496705 -2713.141856 
Q 284.496705 337.258144 7881.666705 337.258144 
z
" clip-path="url(#p3f4ab8a86a)" style="fill: #f4f6f8; stroke: #65737e; stroke-width: 1.6; stroke-linejoin: miter"/>
   </g>
   <g id="patch_30">
    <path d="M 7429.63509 251.846944 
L -7255.69452 251.846944 
Q 341.47548 251.846944 341.47548 -2798.553056 
L 341.47548 3070.416544 
Q 341.47548 20.016544 -7255.69452 20.016544 
L 7429.63509 20.016544 
Q -167.53491 20.016544 -167.53491 3070.416544 
L -167.53491 -2798.553056 
Q -167.53491 251.846944 7429.63509 251.846944 
z
" clip-path="url(#p3f4ab8a86a)" style="fill: #e8f5e9; stroke: #1b5e20; stroke-width: 1.6; stroke-linejoin: miter"/>
   </g>
   <g id="patch_31">
    <path d="M 86.970285 194.942387 
Q 86.970285 178.637769 86.970285 164.345613 
" clip-path="url(#p3f4ab8a86a)" style="fill: none; stroke: #0f62fe; stroke-width: 1.8; stroke-linecap: round"/>
    <path d="M 84.570285 169.145613 
L 86.970285 164.345613 
L 89.370285 169.145613 
z
" clip-path="url(#p3f4ab8a86a)" style="fill: #0f62fe; stroke: #0f62fe; stroke-width: 1.8; stroke-linecap: round"/>
   </g>
   <g id="patch_32">
    <path d="M 115.560758 135.931744 
Q 119.260646 135.931744 120.50086 135.931744 
" clip-path="url(#p3f4ab8a86a)" style="fill: none; stroke: #0f62fe; stroke-width: 2.2; stroke-linecap: round"/>
    <path d="M 114.90086 133.131744 
L 120.50086 135.931744 
L 114.90086 138.731744 
z
" clip-path="url(#p3f4ab8a86a)" style="fill: #0f62fe; stroke: #0f62fe; stroke-width: 2.2; stroke-linecap: round"/>
   </g>
   <g id="patch_33">
    <path d="M 7494.211035 251.846944 
L -7191.118575 251.846944 
Q 406.051425 251.846944 406.051425 -2798.553056 
L 406.051425 3070.416544 
Q 406.051425 20.016544 -7191.118575 20.016544 
L 7494.211035 20.016544 
Q -102.958965 20.016544 -102.958965 3070.416544 
L -102.958965 -2798.553056 
Q -102.958965 251.846944 7494.211035 251.846944 
z
" clip-path="url(#p3f4ab8a86a)" style="fill: #e8f5e9; stroke: #1b5e20; stroke-width: 1.6; stroke-linejoin: miter"/>
   </g>
   <g id="patch_34">
    <path d="M 151.54623 194.942387 
Q 151.54623 178.637769 151.54623 164.345613 
" clip-path="url(#p3f4ab8a86a)" style="fill: none; stroke: #0f62fe; stroke-width: 1.8; stroke-linecap: round"/>
    <path d="M 149.14623 169.145613 
L 151.54623 164.345613 
L 153.94623 169.145613 
z
" clip-path="url(#p3f4ab8a86a)" style="fill: #0f62fe; stroke: #0f62fe; stroke-width: 1.8; stroke-linecap: round"/>
   </g>
   <g id="patch_35">
    <path d="M 180.136703 135.931744 
Q 183.836591 135.931744 185.076805 135.931744 
" clip-path="url(#p3f4ab8a86a)" style="fill: none; stroke: #0f62fe; stroke-width: 2.2; stroke-linecap: round"/>
    <path d="M 179.476805 133.131744 
L 185.076805 135.931744 
L 179.476805 138.731744 
z
" clip-path="url(#p3f4ab8a86a)" style="fill: #0f62fe; stroke: #0f62fe; stroke-width: 2.2; stroke-linecap: round"/>
   </g>
   <g id="patch_36">
    <path d="M 7558.78698 251.846944 
L -7126.54263 251.846944 
Q 470.62737 251.846944 470.62737 -2798.553056 
L 470.62737 3070.416544 
Q 470.62737 20.016544 -7126.54263 20.016544 
L 7558.78698 20.016544 
Q -38.38302 20.016544 -38.38302 3070.416544 
L -38.38302 -2798.553056 
Q -38.38302 251.846944 7558.78698 251.846944 
z
" clip-path="url(#p3f4ab8a86a)" style="fill: #e8f5e9; stroke: #1b5e20; stroke-width: 1.6; stroke-linejoin: miter"/>
   </g>
   <g id="patch_37">
    <path d="M 216.122175 194.942387 
Q 216.122175 178.637769 216.122175 164.345613 
" clip-path="url(#p3f4ab8a86a)" style="fill: none; stroke: #0f62fe; stroke-width: 1.8; stroke-linecap: round"/>
    <path d="M 213.722175 169.145613 
L 216.122175 164.345613 
L 218.522175 169.145613 
z
" clip-path="url(#p3f4ab8a86a)" style="fill: #0f62fe; stroke: #0f62fe; stroke-width: 1.8; stroke-linecap: round"/>
   </g>
   <g id="patch_38">
    <path d="M 244.712648 135.931744 
Q 248.412536 135.931744 249.65275 135.931744 
" clip-path="url(#p3f4ab8a86a)" style="fill: none; stroke: #0f62fe; stroke-width: 2.2; stroke-linecap: round"/>
    <path d="M 244.05275 133.131744 
L 249.65275 135.931744 
L 244.05275 138.731744 
z
" clip-path="url(#p3f4ab8a86a)" style="fill: #0f62fe; stroke: #0f62fe; stroke-width: 2.2; stroke-linecap: round"/>
   </g>
   <g id="patch_39">
    <path d="M 7623.362925 251.846944 
L -7061.966685 251.846944 
Q 535.203315 251.846944 535.203315 -2798.553056 
L 535.203315 3070.416544 
Q 535.203315 20.016544 -7061.966685 20.016544 
L 7623.362925 20.016544 
Q 26.192925 20.016544 26.192925 3070.416544 
L 26.192925 -2798.553056 
Q 26.192925 251.846944 7623.362925 251.846944 
z
" clip-path="url(#p3f4ab8a86a)" style="fill: #e8f5e9; stroke: #1b5e20; stroke-width: 1.6; stroke-linejoin: miter"/>
   </g>
   <g id="patch_40">
    <path d="M 280.69812 194.942387 
Q 280.69812 178.637769 280.69812 164.345613 
" clip-path="url(#p3f4ab8a86a)" style="fill: none; stroke: #0f62fe; stroke-width: 1.8; stroke-linecap: round"/>
    <path d="M 278.29812 169.145613 
L 280.69812 164.345613 
L 283.09812 169.145613 
z
" clip-path="url(#p3f4ab8a86a)" style="fill: #0f62fe; stroke: #0f62fe; stroke-width: 1.8; stroke-linecap: round"/>
   </g>
   <g id="patch_41">
    <path d="M 309.288593 135.931744 
Q 312.988481 135.931744 314.228695 135.931744 
" clip-path="url(#p3f4ab8a86a)" style="fill: none; stroke: #0f62fe; stroke-width: 2.2; stroke-linecap: round"/>
    <path d="M 308.628695 133.131744 
L 314.228695 135.931744 
L 308.628695 138.731744 
z
" clip-path="url(#p3f4ab8a86a)" style="fill: #0f62fe; stroke: #0f62fe; stroke-width: 2.2; stroke-linecap: round"/>
   </g>
   <g id="patch_42">
    <path d="M 7687.93887 251.846944 
L -6997.39074 251.846944 
Q 599.77926 251.846944 599.77926 -2798.553056 
L 599.77926 3070.416544 
Q 599.77926 20.016544 -6997.39074 20.016544 
L 7687.93887 20.016544 
Q 90.76887 20.016544 90.76887 3070.416544 
L 90.76887 -2798.553056 
Q 90.76887 251.846944 7687.93887 251.846944 
z
" clip-path="url(#p3f4ab8a86a)" style="fill: #e8f5e9; stroke: #1b5e20; stroke-width: 1.6; stroke-linejoin: miter"/>
   </g>
   <g id="patch_43">
    <path d="M 345.274065 194.942387 
Q 345.274065 178.637769 345.274065 164.345613 
" clip-path="url(#p3f4ab8a86a)" style="fill: none; stroke: #0f62fe; stroke-width: 1.8; stroke-linecap: round"/>
    <path d="M 342.874065 169.145613 
L 345.274065 164.345613 
L 347.674065 169.145613 
z
" clip-path="url(#p3f4ab8a86a)" style="fill: #0f62fe; stroke: #0f62fe; stroke-width: 1.8; stroke-linecap: round"/>
   </g>
   <g id="patch_44">
    <path d="M 373.864538 135.931744 
Q 377.564426 135.931744 378.80464 135.931744 
" clip-path="url(#p3f4ab8a86a)" style="fill: none; stroke: #0f62fe; stroke-width: 2.2; stroke-linecap: round"/>
    <path d="M 373.20464 133.131744 
L 378.80464 135.931744 
L 373.20464 138.731744 
z
" clip-path="url(#p3f4ab8a86a)" style="fill: #0f62fe; stroke: #0f62fe; stroke-width: 2.2; stroke-linecap: round"/>
   </g>
   <g id="patch_45">
    <path d="M 7752.514815 251.846944 
L -6932.814795 251.846944 
Q 664.355205 251.846944 664.355205 -2798.553056 
L 664.355205 3070.416544 
Q 664.355205 20.016544 -6932.814795 20.016544 
L 7752.514815 20.016544 
Q 155.344815 20.016544 155.344815 3070.416544 
L 155.344815 -2798.553056 
Q 155.344815 251.846944 7752.514815 251.846944 
z
" clip-path="url(#p3f4ab8a86a)" style="fill: #e8f5e9; stroke: #1b5e20; stroke-width: 1.6; stroke-linejoin: miter"/>
   </g>
   <g id="patch_46">
    <path d="M 409.85001 194.942387 
Q 409.85001 178.637769 409.85001 164.345613 
" clip-path="url(#p3f4ab8a86a)" style="fill: none; stroke: #0f62fe; stroke-width: 1.8; stroke-linecap: round"/>
    <path d="M 407.45001 169.145613 
L 409.85001 164.345613 
L 412.25001 169.145613 
z
" clip-path="url(#p3f4ab8a86a)" style="fill: #0f62fe; stroke: #0f62fe; stroke-width: 1.8; stroke-linecap: round"/>
   </g>
   <g id="patch_47">
    <path d="M 438.440483 135.931744 
Q 442.140371 135.931744 443.380585 135.931744 
" clip-path="url(#p3f4ab8a86a)" style="fill: none; stroke: #0f62fe; stroke-width: 2.2; stroke-linecap: round"/>
    <path d="M 437.780585 133.131744 
L 443.380585 135.931744 
L 437.780585 138.731744 
z
" clip-path="url(#p3f4ab8a86a)" style="fill: #0f62fe; stroke: #0f62fe; stroke-width: 2.2; stroke-linecap: round"/>
   </g>
   <g id="patch_48">
    <path d="M 7817.09076 251.846944 
L -6868.23885 251.846944 
Q 728.93115 251.846944 728.93115 -2798.553056 
L 728.93115 3070.416544 
Q 728.93115 20.016544 -6868.23885 20.016544 
L 7817.09076 20.016544 
Q 219.92076 20.016544 219.92076 3070.416544 
L 219.92076 -2798.553056 
Q 219.92076 251.846944 7817.09076 251.846944 
z
" clip-path="url(#p3f4ab8a86a)" style="fill: #e8f5e9; stroke: #1b5e20; stroke-width: 1.6; stroke-linejoin: miter"/>
   </g>
   <g id="patch_49">
    <path d="M 474.425955 194.942387 
Q 474.425955 178.637769 474.425955 164.345613 
" clip-path="url(#p3f4ab8a86a)" style="fill: none; stroke: #0f62fe; stroke-width: 1.8; stroke-linecap: round"/>
    <path d="M 472.025955 169.145613 
L 474.425955 164.345613 
L 476.825955 169.145613 
z
" clip-path="url(#p3f4ab8a86a)" style="fill: #0f62fe; stroke: #0f62fe; stroke-width: 1.8; stroke-linecap: round"/>
   </g>
   <g id="patch_50">
    <path d="M 503.016428 135.931744 
Q 506.716316 135.931744 507.95653 135.931744 
" clip-path="url(#p3f4ab8a86a)" style="fill: none; stroke: #0f62fe; stroke-width: 2.2; stroke-linecap: round"/>
    <path d="M 502.35653 133.131744 
L 507.95653 135.931744 
L 502.35653 138.731744 
z
" clip-path="url(#p3f4ab8a86a)" style="fill: #0f62fe; stroke: #0f62fe; stroke-width: 2.2; stroke-linecap: round"/>
   </g>
   <g id="patch_51">
    <path d="M 7881.666705 251.846944 
L -6803.662905 251.846944 
Q 793.507095 251.846944 793.507095 -2798.553056 
L 793.507095 3070.416544 
Q 793.507095 20.016544 -6803.662905 20.016544 
L 7881.666705 20.016544 
Q 284.496705 20.016544 284.496705 3070.416544 
L 284.496705 -2798.553056 
Q 284.496705 251.846944 7881.666705 251.846944 
z
" clip-path="url(#p3f4ab8a86a)" style="fill: #e8f5e9; stroke: #1b5e20; stroke-width: 1.6; stroke-linejoin: miter"/>
   </g>
   <g id="patch_52">
    <path d="M 539.0019 194.942387 
Q 539.0019 178.637769 539.0019 164.345613 
" clip-path="url(#p3f4ab8a86a)" style="fill: none; stroke: #0f62fe; stroke-width: 1.8; stroke-linecap: round"/>
    <path d="M 536.6019 169.145613 
L 539.0019 164.345613 
L 541.4019 169.145613 
z
" clip-path="url(#p3f4ab8a86a)" style="fill: #0f62fe; stroke: #0f62fe; stroke-width: 1.8; stroke-linecap: round"/>
   </g>
   <g id="patch_53">
    <path d="M 7972.832745 251.846944 
L -6659.316675 251.846944 
Q 937.853325 251.846944 937.853325 -2798.553056 
L 937.853325 3070.416544 
Q 937.853325 20.016544 -6659.316675 20.016544 
L 7972.832745 20.016544 
Q 375.662745 20.016544 375.662745 3070.416544 
L 375.662745 -2798.553056 
Q 375.662745 251.846944 7972.832745 251.846944 
z
" clip-path="url(#p3f4ab8a86a)" style="fill: #fff3e0; stroke: #bf360c; stroke-width: 1.6; stroke-linejoin: miter"/>
   </g>
   <g id="patch_54">
    <path d="M 567.590518 135.931744 
Q 584.584778 135.931744 599.119362 135.931744 
" clip-path="url(#p3f4ab8a86a)" style="fill: none; stroke: #0f62fe; stroke-width: 2.2; stroke-linecap: round"/>
    <path d="M 593.519362 133.131744 
L 599.119362 135.931744 
L 593.519362 138.731744 
z
" clip-path="url(#p3f4ab8a86a)" style="fill: #0f62fe; stroke: #0f62fe; stroke-width: 2.2; stroke-linecap: round"/>
   </g>
   <g id="patch_55">
    <path d="M 8109.581805 215.242144 
L -6492.178935 215.242144 
Q 1104.991065 215.242144 1104.991065 -2835.157856 
L 1104.991065 3046.013344 
Q 1104.991065 -4.386656 -6492.178935 -4.386656 
L 8109.581805 -4.386656 
Q 512.411805 -4.386656 512.411805 3046.013344 
L 512.411805 -2835.157856 
Q 512.411805 215.242144 8109.581805 215.242144 
z
" clip-path="url(#p3f4ab8a86a)" style="fill: #e3f2fd; stroke: #0d47a1; stroke-width: 1.6; stroke-linejoin: miter"/>
   </g>
   <g id="patch_56">
    <path d="M 711.349711 134.514901 
Q 725.131741 120.680571 737.33563 108.43037 
" clip-path="url(#p3f4ab8a86a)" style="fill: none; stroke: #0f62fe; stroke-width: 2; stroke-linecap: round"/>
    <path d="M 732.247684 110.137065 
L 737.33563 108.43037 
L 735.648218 113.524744 
z
" clip-path="url(#p3f4ab8a86a)" style="fill: #0f62fe; stroke: #0f62fe; stroke-width: 2; stroke-linecap: round"/>
   </g>
   <g id="patch_57">
    <path d="M 8109.581805 254.897344 
L -6492.178935 254.897344 
Q 1104.991065 254.897344 1104.991065 -2795.502656 
L 1104.991065 3085.668544 
Q 1104.991065 35.268544 -6492.178935 35.268544 
L 8109.581805 35.268544 
Q 512.411805 35.268544 512.411805 3085.668544 
L 512.411805 -2795.502656 
Q 512.411805 254.897344 8109.581805 254.897344 
z
" clip-path="url(#p3f4ab8a86a)" style="fill: #e3f2fd; stroke: #0d47a1; stroke-width: 1.6; stroke-linejoin: miter"/>
   </g>
   <g id="patch_58">
    <path d="M 711.856065 136.509279 
Q 725.134 140.507776 736.270843 143.861507 
" clip-path="url(#p3f4ab8a86a)" style="fill: none; stroke: #0f62fe; stroke-width: 2; stroke-linecap: round"/>
    <path d="M 732.366754 140.179376 
L 736.270843 143.861507 
L 730.982684 144.7755 
z
" clip-path="url(#p3f4ab8a86a)" style="fill: #0f62fe; stroke: #0f62fe; stroke-width: 2; stroke-linecap: round"/>
   </g>
   <g id="patch_59">
    <path d="M 8109.581805 294.552544 
L -6492.178935 294.552544 
Q 1104.991065 294.552544 1104.991065 -2755.847456 
L 1104.991065 3125.323744 
Q 1104.991065 74.923744 -6492.178935 74.923744 
L 8109.581805 74.923744 
Q 512.411805 74.923744 512.411805 3125.323744 
L 512.411805 -2755.847456 
Q 512.411805 294.552544 8109.581805 294.552544 
z
" clip-path="url(#p3f4ab8a86a)" style="fill: #e3f2fd; stroke: #0d47a1; stroke-width: 1.6; stroke-linejoin: miter"/>
   </g>
   <g id="patch_60">
    <path d="M 710.993594 137.626741 
Q 725.131197 160.332747 738.086914 181.140557 
" clip-path="url(#p3f4ab8a86a)" style="fill: none; stroke: #0f62fe; stroke-width: 2; stroke-linecap: round"/>
    <path d="M 737.587202 175.79731 
L 738.086914 181.140557 
L 733.512489 178.334378 
z
" clip-path="url(#p3f4ab8a86a)" style="fill: #0f62fe; stroke: #0f62fe; stroke-width: 2; stroke-linecap: round"/>
   </g>
   <g id="text_1">
    <!-- x[1] -->
    <g style="fill: #1c2333" transform="translate(76.928097 224.102319) scale(0.1 -0.1)">
     <defs>
      <path id="DejaVuSans-78" d="M 3513 3500 
L 2247 1797 
L 3578 0 
L 2900 0 
L 1881 1375 
L 863 0 
L 184 0 
L 1544 1831 
L 300 3500 
L 978 3500 
L 1906 2253 
L 2834 3500 
L 3513 3500 
z
" transform="scale(0.015625)"/>
      <path id="DejaVuSans-5b" d="M 550 4863 
L 1875 4863 
L 1875 4416 
L 1125 4416 
L 1125 -397 
L 1875 -397 
L 1875 -844 
L 550 -844 
L 550 4863 
z
" transform="scale(0.015625)"/>
      <path id="DejaVuSans-31" d="M 794 531 
L 1825 531 
L 1825 4091 
L 703 3866 
L 703 4441 
L 1819 4666 
L 2450 4666 
L 2450 531 
L 3481 531 
L 3481 0 
L 794 0 
L 794 531 
z
" transform="scale(0.015625)"/>
      <path id="DejaVuSans-5d" d="M 1947 4863 
L 1947 -844 
L 622 -844 
L 622 -397 
L 1369 -397 
L 1369 4416 
L 622 4416 
L 622 4863 
L 1947 4863 
z
" transform="scale(0.015625)"/>
     </defs>
     <use xlink:href="#DejaVuSans-78"/>
     <use xlink:href="#DejaVuSans-5b" x="59.179688"/>
     <use xlink:href="#DejaVuSans-31" x="98.193359"/>
     <use xlink:href="#DejaVuSans-5d" x="161.816406"/>
    </g>
   </g>
   <g id="text_2">
    <!-- x[2] -->
    <g style="fill: #1c2333" transform="translate(141.504042 224.102319) scale(0.1 -0.1)">
     <defs>
      <path id="DejaVuSans-32" d="M 1228 531 
L 3431 531 
L 3431 0 
L 469 0 
L 469 531 
Q 828 903 1448 1529 
Q 2069 2156 2228 2338 
Q 2531 2678 2651 2914 
Q 2772 3150 2772 3378 
Q 2772 3750 2511 3984 
Q 2250 4219 1831 4219 
Q 1534 4219 1204 4116 
Q 875 4013 500 3803 
L 500 4441 
Q 881 4594 1212 4672 
Q 1544 4750 1819 4750 
Q 2544 4750 2975 4387 
Q 3406 4025 3406 3419 
Q 3406 3131 3298 2873 
Q 3191 2616 2906 2266 
Q 2828 2175 2409 1742 
Q 1991 1309 1228 531 
z
" transform="scale(0.015625)"/>
     </defs>
     <use xlink:href="#DejaVuSans-78"/>
     <use xlink:href="#DejaVuSans-5b" x="59.179688"/>
     <use xlink:href="#DejaVuSans-32" x="98.193359"/>
     <use xlink:href="#DejaVuSans-5d" x="161.816406"/>
    </g>
   </g>
   <g id="text_3">
    <!-- x[3] -->
    <g style="fill: #1c2333" transform="translate(206.079987 224.102319) scale(0.1 -0.1)">
     <defs>
      <path id="DejaVuSans-33" d="M 2597 2516 
Q 3050 2419 3304 2112 
Q 3559 1806 3559 1356 
Q 3559 666 3084 287 
Q 2609 -91 1734 -91 
Q 1441 -91 1130 -33 
Q 819 25 488 141 
L 488 750 
Q 750 597 1062 519 
Q 1375 441 1716 441 
Q 2309 441 2620 675 
Q 2931 909 2931 1356 
Q 2931 1769 2642 2001 
Q 2353 2234 1838 2234 
L 1294 2234 
L 1294 2753 
L 1863 2753 
Q 2328 2753 2575 2939 
Q 2822 3125 2822 3475 
Q 2822 3834 2567 4026 
Q 2313 4219 1838 4219 
Q 1578 4219 1281 4162 
Q 984 4106 628 3988 
L 628 4550 
Q 988 4650 1302 4700 
Q 1616 4750 1894 4750 
Q 2613 4750 3031 4423 
Q 3450 4097 3450 3541 
Q 3450 3153 3228 2886 
Q 3006 2619 2597 2516 
z
" transform="scale(0.015625)"/>
     </defs>
     <use xlink:href="#DejaVuSans-78"/>
     <use xlink:href="#DejaVuSans-5b" x="59.179688"/>
     <use xlink:href="#DejaVuSans-33" x="98.193359"/>
     <use xlink:href="#DejaVuSans-5d" x="161.816406"/>
    </g>
   </g>
   <g id="text_4">
    <!-- x[4] -->
    <g style="fill: #1c2333" transform="translate(270.655932 224.102319) scale(0.1 -0.1)">
     <defs>
      <path id="DejaVuSans-34" d="M 2419 4116 
L 825 1625 
L 2419 1625 
L 2419 4116 
z
M 2253 4666 
L 3047 4666 
L 3047 1625 
L 3713 1625 
L 3713 1100 
L 3047 1100 
L 3047 0 
L 2419 0 
L 2419 1100 
L 313 1100 
L 313 1709 
L 2253 4666 
z
" transform="scale(0.015625)"/>
     </defs>
     <use xlink:href="#DejaVuSans-78"/>
     <use xlink:href="#DejaVuSans-5b" x="59.179688"/>
     <use xlink:href="#DejaVuSans-34" x="98.193359"/>
     <use xlink:href="#DejaVuSans-5d" x="161.816406"/>
    </g>
   </g>
   <g id="text_5">
    <!-- x[5] -->
    <g style="fill: #1c2333" transform="translate(335.231877 224.102319) scale(0.1 -0.1)">
     <defs>
      <path id="DejaVuSans-35" d="M 691 4666 
L 3169 4666 
L 3169 4134 
L 1269 4134 
L 1269 2991 
Q 1406 3038 1543 3061 
Q 1681 3084 1819 3084 
Q 2600 3084 3056 2656 
Q 3513 2228 3513 1497 
Q 3513 744 3044 326 
Q 2575 -91 1722 -91 
Q 1428 -91 1123 -41 
Q 819 9 494 109 
L 494 744 
Q 775 591 1075 516 
Q 1375 441 1709 441 
Q 2250 441 2565 725 
Q 2881 1009 2881 1497 
Q 2881 1984 2565 2268 
Q 2250 2553 1709 2553 
Q 1456 2553 1204 2497 
Q 953 2441 691 2322 
L 691 4666 
z
" transform="scale(0.015625)"/>
     </defs>
     <use xlink:href="#DejaVuSans-78"/>
     <use xlink:href="#DejaVuSans-5b" x="59.179688"/>
     <use xlink:href="#DejaVuSans-35" x="98.193359"/>
     <use xlink:href="#DejaVuSans-5d" x="161.816406"/>
    </g>
   </g>
   <g id="text_6">
    <!-- x[6] -->
    <g style="fill: #1c2333" transform="translate(399.807822 224.102319) scale(0.1 -0.1)">
     <defs>
      <path id="DejaVuSans-36" d="M 2113 2584 
Q 1688 2584 1439 2293 
Q 1191 2003 1191 1497 
Q 1191 994 1439 701 
Q 1688 409 2113 409 
Q 2538 409 2786 701 
Q 3034 994 3034 1497 
Q 3034 2003 2786 2293 
Q 2538 2584 2113 2584 
z
M 3366 4563 
L 3366 3988 
Q 3128 4100 2886 4159 
Q 2644 4219 2406 4219 
Q 1781 4219 1451 3797 
Q 1122 3375 1075 2522 
Q 1259 2794 1537 2939 
Q 1816 3084 2150 3084 
Q 2853 3084 3261 2657 
Q 3669 2231 3669 1497 
Q 3669 778 3244 343 
Q 2819 -91 2113 -91 
Q 1303 -91 875 529 
Q 447 1150 447 2328 
Q 447 3434 972 4092 
Q 1497 4750 2381 4750 
Q 2619 4750 2861 4703 
Q 3103 4656 3366 4563 
z
" transform="scale(0.015625)"/>
     </defs>
     <use xlink:href="#DejaVuSans-78"/>
     <use xlink:href="#DejaVuSans-5b" x="59.179688"/>
     <use xlink:href="#DejaVuSans-36" x="98.193359"/>
     <use xlink:href="#DejaVuSans-5d" x="161.816406"/>
    </g>
   </g>
   <g id="text_7">
    <!-- x[7] -->
    <g style="fill: #1c2333" transform="translate(464.383767 224.102319) scale(0.1 -0.1)">
     <defs>
      <path id="DejaVuSans-37" d="M 525 4666 
L 3525 4666 
L 3525 4397 
L 1831 0 
L 1172 0 
L 2766 4134 
L 525 4134 
L 525 4666 
z
" transform="scale(0.015625)"/>
     </defs>
     <use xlink:href="#DejaVuSans-78"/>
     <use xlink:href="#DejaVuSans-5b" x="59.179688"/>
     <use xlink:href="#DejaVuSans-37" x="98.193359"/>
     <use xlink:href="#DejaVuSans-5d" x="161.816406"/>
    </g>
   </g>
   <g id="text_8">
    <!-- x[8] -->
    <g style="fill: #1c2333" transform="translate(528.959713 224.102319) scale(0.1 -0.1)">
     <defs>
      <path id="DejaVuSans-38" d="M 2034 2216 
Q 1584 2216 1326 1975 
Q 1069 1734 1069 1313 
Q 1069 891 1326 650 
Q 1584 409 2034 409 
Q 2484 409 2743 651 
Q 3003 894 3003 1313 
Q 3003 1734 2745 1975 
Q 2488 2216 2034 2216 
z
M 1403 2484 
Q 997 2584 770 2862 
Q 544 3141 544 3541 
Q 544 4100 942 4425 
Q 1341 4750 2034 4750 
Q 2731 4750 3128 4425 
Q 3525 4100 3525 3541 
Q 3525 3141 3298 2862 
Q 3072 2584 2669 2484 
Q 3125 2378 3379 2068 
Q 3634 1759 3634 1313 
Q 3634 634 3220 271 
Q 2806 -91 2034 -91 
Q 1263 -91 848 271 
Q 434 634 434 1313 
Q 434 1759 690 2068 
Q 947 2378 1403 2484 
z
M 1172 3481 
Q 1172 3119 1398 2916 
Q 1625 2713 2034 2713 
Q 2441 2713 2670 2916 
Q 2900 3119 2900 3481 
Q 2900 3844 2670 4047 
Q 2441 4250 2034 4250 
Q 1625 4250 1398 4047 
Q 1172 3844 1172 3481 
z
" transform="scale(0.015625)"/>
     </defs>
     <use xlink:href="#DejaVuSans-78"/>
     <use xlink:href="#DejaVuSans-5b" x="59.179688"/>
     <use xlink:href="#DejaVuSans-38" x="98.193359"/>
     <use xlink:href="#DejaVuSans-5d" x="161.816406"/>
    </g>
   </g>
   <g id="text_9">
    <!-- LSTM -->
    <g style="fill: #1c2333" transform="translate(70.279504 138.967056) scale(0.11 -0.11)">
     <defs>
      <path id="DejaVuSans-Bold-4c" d="M 588 4666 
L 1791 4666 
L 1791 909 
L 3903 909 
L 3903 0 
L 588 0 
L 588 4666 
z
" transform="scale(0.015625)"/>
      <path id="DejaVuSans-Bold-53" d="M 3834 4519 
L 3834 3531 
Q 3450 3703 3084 3790 
Q 2719 3878 2394 3878 
Q 1963 3878 1756 3759 
Q 1550 3641 1550 3391 
Q 1550 3203 1689 3098 
Q 1828 2994 2194 2919 
L 2706 2816 
Q 3484 2659 3812 2340 
Q 4141 2022 4141 1434 
Q 4141 663 3683 286 
Q 3225 -91 2284 -91 
Q 1841 -91 1394 -6 
Q 947 78 500 244 
L 500 1259 
Q 947 1022 1364 901 
Q 1781 781 2169 781 
Q 2563 781 2772 912 
Q 2981 1044 2981 1288 
Q 2981 1506 2839 1625 
Q 2697 1744 2272 1838 
L 1806 1941 
Q 1106 2091 782 2419 
Q 459 2747 459 3303 
Q 459 4000 909 4375 
Q 1359 4750 2203 4750 
Q 2588 4750 2994 4692 
Q 3400 4634 3834 4519 
z
" transform="scale(0.015625)"/>
      <path id="DejaVuSans-Bold-54" d="M 31 4666 
L 4331 4666 
L 4331 3756 
L 2784 3756 
L 2784 0 
L 1581 0 
L 1581 3756 
L 31 3756 
L 31 4666 
z
" transform="scale(0.015625)"/>
      <path id="DejaVuSans-Bold-4d" d="M 588 4666 
L 2119 4666 
L 3181 2169 
L 4250 4666 
L 5778 4666 
L 5778 0 
L 4641 0 
L 4641 3413 
L 3566 897 
L 2803 897 
L 1728 3413 
L 1728 0 
L 588 0 
L 588 4666 
z
" transform="scale(0.015625)"/>
     </defs>
     <use xlink:href="#DejaVuSans-Bold-4c"/>
     <use xlink:href="#DejaVuSans-Bold-53" x="63.720703"/>
     <use xlink:href="#DejaVuSans-Bold-54" x="135.742188"/>
     <use xlink:href="#DejaVuSans-Bold-4d" x="203.955078"/>
    </g>
   </g>
   <g id="text_10">
    <!-- LSTM -->
    <g style="fill: #1c2333" transform="translate(134.855449 138.967056) scale(0.11 -0.11)">
     <use xlink:href="#DejaVuSans-Bold-4c"/>
     <use xlink:href="#DejaVuSans-Bold-53" x="63.720703"/>
     <use xlink:href="#DejaVuSans-Bold-54" x="135.742188"/>
     <use xlink:href="#DejaVuSans-Bold-4d" x="203.955078"/>
    </g>
   </g>
   <g id="text_11">
    <!-- LSTM -->
    <g style="fill: #1c2333" transform="translate(199.431394 138.967056) scale(0.11 -0.11)">
     <use xlink:href="#DejaVuSans-Bold-4c"/>
     <use xlink:href="#DejaVuSans-Bold-53" x="63.720703"/>
     <use xlink:href="#DejaVuSans-Bold-54" x="135.742188"/>
     <use xlink:href="#DejaVuSans-Bold-4d" x="203.955078"/>
    </g>
   </g>
   <g id="text_12">
    <!-- LSTM -->
    <g style="fill: #1c2333" transform="translate(264.007339 138.967056) scale(0.11 -0.11)">
     <use xlink:href="#DejaVuSans-Bold-4c"/>
     <use xlink:href="#DejaVuSans-Bold-53" x="63.720703"/>
     <use xlink:href="#DejaVuSans-Bold-54" x="135.742188"/>
     <use xlink:href="#DejaVuSans-Bold-4d" x="203.955078"/>
    </g>
   </g>
   <g id="text_13">
    <!-- LSTM -->
    <g style="fill: #1c2333" transform="translate(328.583284 138.967056) scale(0.11 -0.11)">
     <use xlink:href="#DejaVuSans-Bold-4c"/>
     <use xlink:href="#DejaVuSans-Bold-53" x="63.720703"/>
     <use xlink:href="#DejaVuSans-Bold-54" x="135.742188"/>
     <use xlink:href="#DejaVuSans-Bold-4d" x="203.955078"/>
    </g>
   </g>
   <g id="text_14">
    <!-- LSTM -->
    <g style="fill: #1c2333" transform="translate(393.159229 138.967056) scale(0.11 -0.11)">
     <use xlink:href="#DejaVuSans-Bold-4c"/>
     <use xlink:href="#DejaVuSans-Bold-53" x="63.720703"/>
     <use xlink:href="#DejaVuSans-Bold-54" x="135.742188"/>
     <use xlink:href="#DejaVuSans-Bold-4d" x="203.955078"/>
    </g>
   </g>
   <g id="text_15">
    <!-- LSTM -->
    <g style="fill: #1c2333" transform="translate(457.735174 138.967056) scale(0.11 -0.11)">
     <use xlink:href="#DejaVuSans-Bold-4c"/>
     <use xlink:href="#DejaVuSans-Bold-53" x="63.720703"/>
     <use xlink:href="#DejaVuSans-Bold-54" x="135.742188"/>
     <use xlink:href="#DejaVuSans-Bold-4d" x="203.955078"/>
    </g>
   </g>
   <g id="text_16">
    <!-- LSTM -->
    <g style="fill: #1c2333" transform="translate(522.311119 138.967056) scale(0.11 -0.11)">
     <use xlink:href="#DejaVuSans-Bold-4c"/>
     <use xlink:href="#DejaVuSans-Bold-53" x="63.720703"/>
     <use xlink:href="#DejaVuSans-Bold-54" x="135.742188"/>
     <use xlink:href="#DejaVuSans-Bold-4d" x="203.955078"/>
    </g>
   </g>
   <g id="text_17">
    <!-- Dense Head -->
    <g style="fill: #1c2333" transform="translate(619.645926 138.967056) scale(0.11 -0.11)">
     <defs>
      <path id="DejaVuSans-Bold-44" d="M 1791 3756 
L 1791 909 
L 2222 909 
Q 2959 909 3348 1275 
Q 3738 1641 3738 2338 
Q 3738 3031 3350 3393 
Q 2963 3756 2222 3756 
L 1791 3756 
z
M 588 4666 
L 1856 4666 
Q 2919 4666 3439 4514 
Q 3959 4363 4331 4000 
Q 4659 3684 4818 3271 
Q 4978 2859 4978 2338 
Q 4978 1809 4818 1395 
Q 4659 981 4331 666 
Q 3956 303 3431 151 
Q 2906 0 1856 0 
L 588 0 
L 588 4666 
z
" transform="scale(0.015625)"/>
      <path id="DejaVuSans-Bold-65" d="M 4031 1759 
L 4031 1441 
L 1416 1441 
Q 1456 1047 1700 850 
Q 1944 653 2381 653 
Q 2734 653 3104 758 
Q 3475 863 3866 1075 
L 3866 213 
Q 3469 63 3072 -14 
Q 2675 -91 2278 -91 
Q 1328 -91 801 392 
Q 275 875 275 1747 
Q 275 2603 792 3093 
Q 1309 3584 2216 3584 
Q 3041 3584 3536 3087 
Q 4031 2591 4031 1759 
z
M 2881 2131 
Q 2881 2450 2695 2645 
Q 2509 2841 2209 2841 
Q 1884 2841 1681 2658 
Q 1478 2475 1428 2131 
L 2881 2131 
z
" transform="scale(0.015625)"/>
      <path id="DejaVuSans-Bold-6e" d="M 4056 2131 
L 4056 0 
L 2931 0 
L 2931 347 
L 2931 1631 
Q 2931 2084 2911 2256 
Q 2891 2428 2841 2509 
Q 2775 2619 2662 2680 
Q 2550 2741 2406 2741 
Q 2056 2741 1856 2470 
Q 1656 2200 1656 1722 
L 1656 0 
L 538 0 
L 538 3500 
L 1656 3500 
L 1656 2988 
Q 1909 3294 2193 3439 
Q 2478 3584 2822 3584 
Q 3428 3584 3742 3212 
Q 4056 2841 4056 2131 
z
" transform="scale(0.015625)"/>
      <path id="DejaVuSans-Bold-73" d="M 3272 3391 
L 3272 2541 
Q 2913 2691 2578 2766 
Q 2244 2841 1947 2841 
Q 1628 2841 1473 2761 
Q 1319 2681 1319 2516 
Q 1319 2381 1436 2309 
Q 1553 2238 1856 2203 
L 2053 2175 
Q 2913 2066 3209 1816 
Q 3506 1566 3506 1031 
Q 3506 472 3093 190 
Q 2681 -91 1863 -91 
Q 1516 -91 1145 -36 
Q 775 19 384 128 
L 384 978 
Q 719 816 1070 734 
Q 1422 653 1784 653 
Q 2113 653 2278 743 
Q 2444 834 2444 1013 
Q 2444 1163 2330 1236 
Q 2216 1309 1875 1350 
L 1678 1375 
Q 931 1469 631 1722 
Q 331 1975 331 2491 
Q 331 3047 712 3315 
Q 1094 3584 1881 3584 
Q 2191 3584 2531 3537 
Q 2872 3491 3272 3391 
z
" transform="scale(0.015625)"/>
      <path id="DejaVuSans-Bold-20" transform="scale(0.015625)"/>
      <path id="DejaVuSans-Bold-48" d="M 588 4666 
L 1791 4666 
L 1791 2888 
L 3566 2888 
L 3566 4666 
L 4769 4666 
L 4769 0 
L 3566 0 
L 3566 1978 
L 1791 1978 
L 1791 0 
L 588 0 
L 588 4666 
z
" transform="scale(0.015625)"/>
      <path id="DejaVuSans-Bold-61" d="M 2106 1575 
Q 1756 1575 1579 1456 
Q 1403 1338 1403 1106 
Q 1403 894 1545 773 
Q 1688 653 1941 653 
Q 2256 653 2472 879 
Q 2688 1106 2688 1447 
L 2688 1575 
L 2106 1575 
z
M 3816 1997 
L 3816 0 
L 2688 0 
L 2688 519 
Q 2463 200 2181 54 
Q 1900 -91 1497 -91 
Q 953 -91 614 226 
Q 275 544 275 1050 
Q 275 1666 698 1953 
Q 1122 2241 2028 2241 
L 2688 2241 
L 2688 2328 
Q 2688 2594 2478 2717 
Q 2269 2841 1825 2841 
Q 1466 2841 1156 2769 
Q 847 2697 581 2553 
L 581 3406 
Q 941 3494 1303 3539 
Q 1666 3584 2028 3584 
Q 2975 3584 3395 3211 
Q 3816 2838 3816 1997 
z
" transform="scale(0.015625)"/>
      <path id="DejaVuSans-Bold-64" d="M 2919 2988 
L 2919 4863 
L 4044 4863 
L 4044 0 
L 2919 0 
L 2919 506 
Q 2688 197 2409 53 
Q 2131 -91 1766 -91 
Q 1119 -91 703 423 
Q 288 938 288 1747 
Q 288 2556 703 3070 
Q 1119 3584 1766 3584 
Q 2128 3584 2408 3439 
Q 2688 3294 2919 2988 
z
M 2181 722 
Q 2541 722 2730 984 
Q 2919 1247 2919 1747 
Q 2919 2247 2730 2509 
Q 2541 2772 2181 2772 
Q 1825 2772 1636 2509 
Q 1447 2247 1447 1747 
Q 1447 1247 1636 984 
Q 1825 722 2181 722 
z
" transform="scale(0.015625)"/>
     </defs>
     <use xlink:href="#DejaVuSans-Bold-44"/>
     <use xlink:href="#DejaVuSans-Bold-65" x="83.007812"/>
     <use xlink:href="#DejaVuSans-Bold-6e" x="150.830078"/>
     <use xlink:href="#DejaVuSans-Bold-73" x="222.021484"/>
     <use xlink:href="#DejaVuSans-Bold-65" x="281.542969"/>
     <use xlink:href="#DejaVuSans-Bold-20" x="349.365234"/>
     <use xlink:href="#DejaVuSans-Bold-48" x="384.179688"/>
     <use xlink:href="#DejaVuSans-Bold-65" x="467.871094"/>
     <use xlink:href="#DejaVuSans-Bold-61" x="535.693359"/>
     <use xlink:href="#DejaVuSans-Bold-64" x="603.173828"/>
    </g>
   </g>
   <g id="text_18">
    <!-- Predicted features -->
    <g style="fill: #1c2333" transform="translate(762.988154 102.588212) scale(0.1 -0.1)">
     <defs>
      <path id="DejaVuSans-50" d="M 1259 4147 
L 1259 2394 
L 2053 2394 
Q 2494 2394 2734 2622 
Q 2975 2850 2975 3272 
Q 2975 3691 2734 3919 
Q 2494 4147 2053 4147 
L 1259 4147 
z
M 628 4666 
L 2053 4666 
Q 2838 4666 3239 4311 
Q 3641 3956 3641 3272 
Q 3641 2581 3239 2228 
Q 2838 1875 2053 1875 
L 1259 1875 
L 1259 0 
L 628 0 
L 628 4666 
z
" transform="scale(0.015625)"/>
      <path id="DejaVuSans-72" d="M 2631 2963 
Q 2534 3019 2420 3045 
Q 2306 3072 2169 3072 
Q 1681 3072 1420 2755 
Q 1159 2438 1159 1844 
L 1159 0 
L 581 0 
L 581 3500 
L 1159 3500 
L 1159 2956 
Q 1341 3275 1631 3429 
Q 1922 3584 2338 3584 
Q 2397 3584 2469 3576 
Q 2541 3569 2628 3553 
L 2631 2963 
z
" transform="scale(0.015625)"/>
      <path id="DejaVuSans-65" d="M 3597 1894 
L 3597 1613 
L 953 1613 
Q 991 1019 1311 708 
Q 1631 397 2203 397 
Q 2534 397 2845 478 
Q 3156 559 3463 722 
L 3463 178 
Q 3153 47 2828 -22 
Q 2503 -91 2169 -91 
Q 1331 -91 842 396 
Q 353 884 353 1716 
Q 353 2575 817 3079 
Q 1281 3584 2069 3584 
Q 2775 3584 3186 3129 
Q 3597 2675 3597 1894 
z
M 3022 2063 
Q 3016 2534 2758 2815 
Q 2500 3097 2075 3097 
Q 1594 3097 1305 2825 
Q 1016 2553 972 2059 
L 3022 2063 
z
" transform="scale(0.015625)"/>
      <path id="DejaVuSans-64" d="M 2906 2969 
L 2906 4863 
L 3481 4863 
L 3481 0 
L 2906 0 
L 2906 525 
Q 2725 213 2448 61 
Q 2172 -91 1784 -91 
Q 1150 -91 751 415 
Q 353 922 353 1747 
Q 353 2572 751 3078 
Q 1150 3584 1784 3584 
Q 2172 3584 2448 3432 
Q 2725 3281 2906 2969 
z
M 947 1747 
Q 947 1113 1208 752 
Q 1469 391 1925 391 
Q 2381 391 2643 752 
Q 2906 1113 2906 1747 
Q 2906 2381 2643 2742 
Q 2381 3103 1925 3103 
Q 1469 3103 1208 2742 
Q 947 2381 947 1747 
z
" transform="scale(0.015625)"/>
      <path id="DejaVuSans-69" d="M 603 3500 
L 1178 3500 
L 1178 0 
L 603 0 
L 603 3500 
z
M 603 4863 
L 1178 4863 
L 1178 4134 
L 603 4134 
L 603 4863 
z
" transform="scale(0.015625)"/>
      <path id="DejaVuSans-63" d="M 3122 3366 
L 3122 2828 
Q 2878 2963 2633 3030 
Q 2388 3097 2138 3097 
Q 1578 3097 1268 2742 
Q 959 2388 959 1747 
Q 959 1106 1268 751 
Q 1578 397 2138 397 
Q 2388 397 2633 464 
Q 2878 531 3122 666 
L 3122 134 
Q 2881 22 2623 -34 
Q 2366 -91 2075 -91 
Q 1284 -91 818 406 
Q 353 903 353 1747 
Q 353 2603 823 3093 
Q 1294 3584 2113 3584 
Q 2378 3584 2631 3529 
Q 2884 3475 3122 3366 
z
" transform="scale(0.015625)"/>
      <path id="DejaVuSans-74" d="M 1172 4494 
L 1172 3500 
L 2356 3500 
L 2356 3053 
L 1172 3053 
L 1172 1153 
Q 1172 725 1289 603 
Q 1406 481 1766 481 
L 2356 481 
L 2356 0 
L 1766 0 
Q 1100 0 847 248 
Q 594 497 594 1153 
L 594 3053 
L 172 3053 
L 172 3500 
L 594 3500 
L 594 4494 
L 1172 4494 
z
" transform="scale(0.015625)"/>
      <path id="DejaVuSans-20" transform="scale(0.015625)"/>
      <path id="DejaVuSans-66" d="M 2375 4863 
L 2375 4384 
L 1825 4384 
Q 1516 4384 1395 4259 
Q 1275 4134 1275 3809 
L 1275 3500 
L 2222 3500 
L 2222 3053 
L 1275 3053 
L 1275 0 
L 697 0 
L 697 3053 
L 147 3053 
L 147 3500 
L 697 3500 
L 697 3744 
Q 697 4328 969 4595 
Q 1241 4863 1831 4863 
L 2375 4863 
z
" transform="scale(0.015625)"/>
      <path id="DejaVuSans-61" d="M 2194 1759 
Q 1497 1759 1228 1600 
Q 959 1441 959 1056 
Q 959 750 1161 570 
Q 1363 391 1709 391 
Q 2188 391 2477 730 
Q 2766 1069 2766 1631 
L 2766 1759 
L 2194 1759 
z
M 3341 1997 
L 3341 0 
L 2766 0 
L 2766 531 
Q 2569 213 2275 61 
Q 1981 -91 1556 -91 
Q 1019 -91 701 211 
Q 384 513 384 1019 
Q 384 1609 779 1909 
Q 1175 2209 1959 2209 
L 2766 2209 
L 2766 2266 
Q 2766 2663 2505 2880 
Q 2244 3097 1772 3097 
Q 1472 3097 1187 3025 
Q 903 2953 641 2809 
L 641 3341 
Q 956 3463 1253 3523 
Q 1550 3584 1831 3584 
Q 2591 3584 2966 3190 
Q 3341 2797 3341 1997 
z
" transform="scale(0.015625)"/>
      <path id="DejaVuSans-75" d="M 544 1381 
L 544 3500 
L 1119 3500 
L 1119 1403 
Q 1119 906 1312 657 
Q 1506 409 1894 409 
Q 2359 409 2629 706 
Q 2900 1003 2900 1516 
L 2900 3500 
L 3475 3500 
L 3475 0 
L 2900 0 
L 2900 538 
Q 2691 219 2414 64 
Q 2138 -91 1772 -91 
Q 1169 -91 856 284 
Q 544 659 544 1381 
z
M 1991 3584 
L 1991 3584 
z
" transform="scale(0.015625)"/>
      <path id="DejaVuSans-73" d="M 2834 3397 
L 2834 2853 
Q 2591 2978 2328 3040 
Q 2066 3103 1784 3103 
Q 1356 3103 1142 2972 
Q 928 2841 928 2578 
Q 928 2378 1081 2264 
Q 1234 2150 1697 2047 
L 1894 2003 
Q 2506 1872 2764 1633 
Q 3022 1394 3022 966 
Q 3022 478 2636 193 
Q 2250 -91 1575 -91 
Q 1294 -91 989 -36 
Q 684 19 347 128 
L 347 722 
Q 666 556 975 473 
Q 1284 391 1588 391 
Q 1994 391 2212 530 
Q 2431 669 2431 922 
Q 2431 1156 2273 1281 
Q 2116 1406 1581 1522 
L 1381 1569 
Q 847 1681 609 1914 
Q 372 2147 372 2553 
Q 372 3047 722 3315 
Q 1072 3584 1716 3584 
Q 2034 3584 2315 3537 
Q 2597 3491 2834 3397 
z
" transform="scale(0.015625)"/>
     </defs>
     <use xlink:href="#DejaVuSans-50"/>
     <use xlink:href="#DejaVuSans-72" x="58.552734"/>
     <use xlink:href="#DejaVuSans-65" x="97.416016"/>
     <use xlink:href="#DejaVuSans-64" x="158.939453"/>
     <use xlink:href="#DejaVuSans-69" x="222.416016"/>
     <use xlink:href="#DejaVuSans-63" x="250.199219"/>
     <use xlink:href="#DejaVuSans-74" x="305.179688"/>
     <use xlink:href="#DejaVuSans-65" x="344.388672"/>
     <use xlink:href="#DejaVuSans-64" x="405.912109"/>
     <use xlink:href="#DejaVuSans-20" x="469.388672"/>
     <use xlink:href="#DejaVuSans-66" x="501.175781"/>
     <use xlink:href="#DejaVuSans-65" x="536.380859"/>
     <use xlink:href="#DejaVuSans-61" x="597.904297"/>
     <use xlink:href="#DejaVuSans-74" x="659.183594"/>
     <use xlink:href="#DejaVuSans-75" x="698.392578"/>
     <use xlink:href="#DejaVuSans-72" x="761.771484"/>
     <use xlink:href="#DejaVuSans-65" x="800.634766"/>
     <use xlink:href="#DejaVuSans-73" x="862.158203"/>
    </g>
    <!-- (H=1) -->
    <g style="fill: #1c2333" transform="translate(793.668623 113.786025) scale(0.1 -0.1)">
     <defs>
      <path id="DejaVuSans-28" d="M 1984 4856 
Q 1566 4138 1362 3434 
Q 1159 2731 1159 2009 
Q 1159 1288 1364 580 
Q 1569 -128 1984 -844 
L 1484 -844 
Q 1016 -109 783 600 
Q 550 1309 550 2009 
Q 550 2706 781 3412 
Q 1013 4119 1484 4856 
L 1984 4856 
z
" transform="scale(0.015625)"/>
      <path id="DejaVuSans-48" d="M 628 4666 
L 1259 4666 
L 1259 2753 
L 3553 2753 
L 3553 4666 
L 4184 4666 
L 4184 0 
L 3553 0 
L 3553 2222 
L 1259 2222 
L 1259 0 
L 628 0 
L 628 4666 
z
" transform="scale(0.015625)"/>
      <path id="DejaVuSans-3d" d="M 678 2906 
L 4684 2906 
L 4684 2381 
L 678 2381 
L 678 2906 
z
M 678 1631 
L 4684 1631 
L 4684 1100 
L 678 1100 
L 678 1631 
z
" transform="scale(0.015625)"/>
      <path id="DejaVuSans-29" d="M 513 4856 
L 1013 4856 
Q 1481 4119 1714 3412 
Q 1947 2706 1947 2009 
Q 1947 1309 1714 600 
Q 1481 -109 1013 -844 
L 513 -844 
Q 928 -128 1133 580 
Q 1338 1288 1338 2009 
Q 1338 2731 1133 3434 
Q 928 4138 513 4856 
z
" transform="scale(0.015625)"/>
     </defs>
     <use xlink:href="#DejaVuSans-28"/>
     <use xlink:href="#DejaVuSans-48" x="39.013672"/>
     <use xlink:href="#DejaVuSans-3d" x="114.208984"/>
     <use xlink:href="#DejaVuSans-31" x="197.998047"/>
     <use xlink:href="#DejaVuSans-29" x="261.621094"/>
    </g>
   </g>
   <g id="text_19">
    <!-- Predicted features -->
    <g style="fill: #1c2333" transform="translate(762.988154 142.243412) scale(0.1 -0.1)">
     <use xlink:href="#DejaVuSans-50"/>
     <use xlink:href="#DejaVuSans-72" x="58.552734"/>
     <use xlink:href="#DejaVuSans-65" x="97.416016"/>
     <use xlink:href="#DejaVuSans-64" x="158.939453"/>
     <use xlink:href="#DejaVuSans-69" x="222.416016"/>
     <use xlink:href="#DejaVuSans-63" x="250.199219"/>
     <use xlink:href="#DejaVuSans-74" x="305.179688"/>
     <use xlink:href="#DejaVuSans-65" x="344.388672"/>
     <use xlink:href="#DejaVuSans-64" x="405.912109"/>
     <use xlink:href="#DejaVuSans-20" x="469.388672"/>
     <use xlink:href="#DejaVuSans-66" x="501.175781"/>
     <use xlink:href="#DejaVuSans-65" x="536.380859"/>
     <use xlink:href="#DejaVuSans-61" x="597.904297"/>
     <use xlink:href="#DejaVuSans-74" x="659.183594"/>
     <use xlink:href="#DejaVuSans-75" x="698.392578"/>
     <use xlink:href="#DejaVuSans-72" x="761.771484"/>
     <use xlink:href="#DejaVuSans-65" x="800.634766"/>
     <use xlink:href="#DejaVuSans-73" x="862.158203"/>
    </g>
    <!-- (H=3) -->
    <g style="fill: #1c2333" transform="translate(793.668623 153.441225) scale(0.1 -0.1)">
     <use xlink:href="#DejaVuSans-28"/>
     <use xlink:href="#DejaVuSans-48" x="39.013672"/>
     <use xlink:href="#DejaVuSans-3d" x="114.208984"/>
     <use xlink:href="#DejaVuSans-33" x="197.998047"/>
     <use xlink:href="#DejaVuSans-29" x="261.621094"/>
    </g>
   </g>
   <g id="text_20">
    <!-- Predicted features -->
    <g style="fill: #1c2333" transform="translate(762.988154 181.898612) scale(0.1 -0.1)">
     <use xlink:href="#DejaVuSans-50"/>
     <use xlink:href="#DejaVuSans-72" x="58.552734"/>
     <use xlink:href="#DejaVuSans-65" x="97.416016"/>
     <use xlink:href="#DejaVuSans-64" x="158.939453"/>
     <use xlink:href="#DejaVuSans-69" x="222.416016"/>
     <use xlink:href="#DejaVuSans-63" x="250.199219"/>
     <use xlink:href="#DejaVuSans-74" x="305.179688"/>
     <use xlink:href="#DejaVuSans-65" x="344.388672"/>
     <use xlink:href="#DejaVuSans-64" x="405.912109"/>
     <use xlink:href="#DejaVuSans-20" x="469.388672"/>
     <use xlink:href="#DejaVuSans-66" x="501.175781"/>
     <use xlink:href="#DejaVuSans-65" x="536.380859"/>
     <use xlink:href="#DejaVuSans-61" x="597.904297"/>
     <use xlink:href="#DejaVuSans-74" x="659.183594"/>
     <use xlink:href="#DejaVuSans-75" x="698.392578"/>
     <use xlink:href="#DejaVuSans-72" x="761.771484"/>
     <use xlink:href="#DejaVuSans-65" x="800.634766"/>
     <use xlink:href="#DejaVuSans-73" x="862.158203"/>
    </g>
    <!-- (H=5) -->
    <g style="fill: #1c2333" transform="translate(793.668623 193.096425) scale(0.1 -0.1)">
     <use xlink:href="#DejaVuSans-28"/>
     <use xlink:href="#DejaVuSans-48" x="39.013672"/>
     <use xlink:href="#DejaVuSans-3d" x="114.208984"/>
     <use xlink:href="#DejaVuSans-35" x="197.998047"/>
     <use xlink:href="#DejaVuSans-29" x="261.621094"/>
    </g>
   </g>
   <g id="text_21">
    <!-- Input vector at each timestep (z-scored):  BH Mass, BH Accretion, Stellar Mass, SFR, Halo Mass, Velocity Dispersion -->
    <g style="fill: #1c2333" transform="translate(70.206937 288.436656) scale(0.11 -0.11)">
     <defs>
      <path id="DejaVuSans-49" d="M 628 4666 
L 1259 4666 
L 1259 0 
L 628 0 
L 628 4666 
z
" transform="scale(0.015625)"/>
      <path id="DejaVuSans-6e" d="M 3513 2113 
L 3513 0 
L 2938 0 
L 2938 2094 
Q 2938 2591 2744 2837 
Q 2550 3084 2163 3084 
Q 1697 3084 1428 2787 
Q 1159 2491 1159 1978 
L 1159 0 
L 581 0 
L 581 3500 
L 1159 3500 
L 1159 2956 
Q 1366 3272 1645 3428 
Q 1925 3584 2291 3584 
Q 2894 3584 3203 3211 
Q 3513 2838 3513 2113 
z
" transform="scale(0.015625)"/>
      <path id="DejaVuSans-70" d="M 1159 525 
L 1159 -1331 
L 581 -1331 
L 581 3500 
L 1159 3500 
L 1159 2969 
Q 1341 3281 1617 3432 
Q 1894 3584 2278 3584 
Q 2916 3584 3314 3078 
Q 3713 2572 3713 1747 
Q 3713 922 3314 415 
Q 2916 -91 2278 -91 
Q 1894 -91 1617 61 
Q 1341 213 1159 525 
z
M 3116 1747 
Q 3116 2381 2855 2742 
Q 2594 3103 2138 3103 
Q 1681 3103 1420 2742 
Q 1159 2381 1159 1747 
Q 1159 1113 1420 752 
Q 1681 391 2138 391 
Q 2594 391 2855 752 
Q 3116 1113 3116 1747 
z
" transform="scale(0.015625)"/>
      <path id="DejaVuSans-76" d="M 191 3500 
L 800 3500 
L 1894 563 
L 2988 3500 
L 3597 3500 
L 2284 0 
L 1503 0 
L 191 3500 
z
" transform="scale(0.015625)"/>
      <path id="DejaVuSans-6f" d="M 1959 3097 
Q 1497 3097 1228 2736 
Q 959 2375 959 1747 
Q 959 1119 1226 758 
Q 1494 397 1959 397 
Q 2419 397 2687 759 
Q 2956 1122 2956 1747 
Q 2956 2369 2687 2733 
Q 2419 3097 1959 3097 
z
M 1959 3584 
Q 2709 3584 3137 3096 
Q 3566 2609 3566 1747 
Q 3566 888 3137 398 
Q 2709 -91 1959 -91 
Q 1206 -91 779 398 
Q 353 888 353 1747 
Q 353 2609 779 3096 
Q 1206 3584 1959 3584 
z
" transform="scale(0.015625)"/>
      <path id="DejaVuSans-68" d="M 3513 2113 
L 3513 0 
L 2938 0 
L 2938 2094 
Q 2938 2591 2744 2837 
Q 2550 3084 2163 3084 
Q 1697 3084 1428 2787 
Q 1159 2491 1159 1978 
L 1159 0 
L 581 0 
L 581 4863 
L 1159 4863 
L 1159 2956 
Q 1366 3272 1645 3428 
Q 1925 3584 2291 3584 
Q 2894 3584 3203 3211 
Q 3513 2838 3513 2113 
z
" transform="scale(0.015625)"/>
      <path id="DejaVuSans-6d" d="M 3328 2828 
Q 3544 3216 3844 3400 
Q 4144 3584 4550 3584 
Q 5097 3584 5394 3201 
Q 5691 2819 5691 2113 
L 5691 0 
L 5113 0 
L 5113 2094 
Q 5113 2597 4934 2840 
Q 4756 3084 4391 3084 
Q 3944 3084 3684 2787 
Q 3425 2491 3425 1978 
L 3425 0 
L 2847 0 
L 2847 2094 
Q 2847 2600 2669 2842 
Q 2491 3084 2119 3084 
Q 1678 3084 1418 2786 
Q 1159 2488 1159 1978 
L 1159 0 
L 581 0 
L 581 3500 
L 1159 3500 
L 1159 2956 
Q 1356 3278 1631 3431 
Q 1906 3584 2284 3584 
Q 2666 3584 2933 3390 
Q 3200 3197 3328 2828 
z
" transform="scale(0.015625)"/>
      <path id="DejaVuSans-7a" d="M 353 3500 
L 3084 3500 
L 3084 2975 
L 922 459 
L 3084 459 
L 3084 0 
L 275 0 
L 275 525 
L 2438 3041 
L 353 3041 
L 353 3500 
z
" transform="scale(0.015625)"/>
      <path id="DejaVuSans-2d" d="M 313 2009 
L 1997 2009 
L 1997 1497 
L 313 1497 
L 313 2009 
z
" transform="scale(0.015625)"/>
      <path id="DejaVuSans-3a" d="M 750 794 
L 1409 794 
L 1409 0 
L 750 0 
L 750 794 
z
M 750 3309 
L 1409 3309 
L 1409 2516 
L 750 2516 
L 750 3309 
z
" transform="scale(0.015625)"/>
      <path id="DejaVuSans-42" d="M 1259 2228 
L 1259 519 
L 2272 519 
Q 2781 519 3026 730 
Q 3272 941 3272 1375 
Q 3272 1813 3026 2020 
Q 2781 2228 2272 2228 
L 1259 2228 
z
M 1259 4147 
L 1259 2741 
L 2194 2741 
Q 2656 2741 2882 2914 
Q 3109 3088 3109 3444 
Q 3109 3797 2882 3972 
Q 2656 4147 2194 4147 
L 1259 4147 
z
M 628 4666 
L 2241 4666 
Q 2963 4666 3353 4366 
Q 3744 4066 3744 3513 
Q 3744 3084 3544 2831 
Q 3344 2578 2956 2516 
Q 3422 2416 3680 2098 
Q 3938 1781 3938 1306 
Q 3938 681 3513 340 
Q 3088 0 2303 0 
L 628 0 
L 628 4666 
z
" transform="scale(0.015625)"/>
      <path id="DejaVuSans-4d" d="M 628 4666 
L 1569 4666 
L 2759 1491 
L 3956 4666 
L 4897 4666 
L 4897 0 
L 4281 0 
L 4281 4097 
L 3078 897 
L 2444 897 
L 1241 4097 
L 1241 0 
L 628 0 
L 628 4666 
z
" transform="scale(0.015625)"/>
      <path id="DejaVuSans-2c" d="M 750 794 
L 1409 794 
L 1409 256 
L 897 -744 
L 494 -744 
L 750 256 
L 750 794 
z
" transform="scale(0.015625)"/>
      <path id="DejaVuSans-41" d="M 2188 4044 
L 1331 1722 
L 3047 1722 
L 2188 4044 
z
M 1831 4666 
L 2547 4666 
L 4325 0 
L 3669 0 
L 3244 1197 
L 1141 1197 
L 716 0 
L 50 0 
L 1831 4666 
z
" transform="scale(0.015625)"/>
      <path id="DejaVuSans-53" d="M 3425 4513 
L 3425 3897 
Q 3066 4069 2747 4153 
Q 2428 4238 2131 4238 
Q 1616 4238 1336 4038 
Q 1056 3838 1056 3469 
Q 1056 3159 1242 3001 
Q 1428 2844 1947 2747 
L 2328 2669 
Q 3034 2534 3370 2195 
Q 3706 1856 3706 1288 
Q 3706 609 3251 259 
Q 2797 -91 1919 -91 
Q 1588 -91 1214 -16 
Q 841 59 441 206 
L 441 856 
Q 825 641 1194 531 
Q 1563 422 1919 422 
Q 2459 422 2753 634 
Q 3047 847 3047 1241 
Q 3047 1584 2836 1778 
Q 2625 1972 2144 2069 
L 1759 2144 
Q 1053 2284 737 2584 
Q 422 2884 422 3419 
Q 422 4038 858 4394 
Q 1294 4750 2059 4750 
Q 2388 4750 2728 4690 
Q 3069 4631 3425 4513 
z
" transform="scale(0.015625)"/>
      <path id="DejaVuSans-6c" d="M 603 4863 
L 1178 4863 
L 1178 0 
L 603 0 
L 603 4863 
z
" transform="scale(0.015625)"/>
      <path id="DejaVuSans-46" d="M 628 4666 
L 3309 4666 
L 3309 4134 
L 1259 4134 
L 1259 2759 
L 3109 2759 
L 3109 2228 
L 1259 2228 
L 1259 0 
L 628 0 
L 628 4666 
z
" transform="scale(0.015625)"/>
      <path id="DejaVuSans-52" d="M 2841 2188 
Q 3044 2119 3236 1894 
Q 3428 1669 3622 1275 
L 4263 0 
L 3584 0 
L 2988 1197 
Q 2756 1666 2539 1819 
Q 2322 1972 1947 1972 
L 1259 1972 
L 1259 0 
L 628 0 
L 628 4666 
L 2053 4666 
Q 2853 4666 3247 4331 
Q 3641 3997 3641 3322 
Q 3641 2881 3436 2590 
Q 3231 2300 2841 2188 
z
M 1259 4147 
L 1259 2491 
L 2053 2491 
Q 2509 2491 2742 2702 
Q 2975 2913 2975 3322 
Q 2975 3731 2742 3939 
Q 2509 4147 2053 4147 
L 1259 4147 
z
" transform="scale(0.015625)"/>
      <path id="DejaVuSans-56" d="M 1831 0 
L 50 4666 
L 709 4666 
L 2188 738 
L 3669 4666 
L 4325 4666 
L 2547 0 
L 1831 0 
z
" transform="scale(0.015625)"/>
      <path id="DejaVuSans-79" d="M 2059 -325 
Q 1816 -950 1584 -1140 
Q 1353 -1331 966 -1331 
L 506 -1331 
L 506 -850 
L 844 -850 
Q 1081 -850 1212 -737 
Q 1344 -625 1503 -206 
L 1606 56 
L 191 3500 
L 800 3500 
L 1894 763 
L 2988 3500 
L 3597 3500 
L 2059 -325 
z
" transform="scale(0.015625)"/>
      <path id="DejaVuSans-44" d="M 1259 4147 
L 1259 519 
L 2022 519 
Q 2988 519 3436 956 
Q 3884 1394 3884 2338 
Q 3884 3275 3436 3711 
Q 2988 4147 2022 4147 
L 1259 4147 
z
M 628 4666 
L 1925 4666 
Q 3281 4666 3915 4102 
Q 4550 3538 4550 2338 
Q 4550 1131 3912 565 
Q 3275 0 1925 0 
L 628 0 
L 628 4666 
z
" transform="scale(0.015625)"/>
     </defs>
     <use xlink:href="#DejaVuSans-49"/>
     <use xlink:href="#DejaVuSans-6e" x="29.492188"/>
     <use xlink:href="#DejaVuSans-70" x="92.871094"/>
     <use xlink:href="#DejaVuSans-75" x="156.347656"/>
     <use xlink:href="#DejaVuSans-74" x="219.726562"/>
     <use xlink:href="#DejaVuSans-20" x="258.935547"/>
     <use xlink:href="#DejaVuSans-76" x="290.722656"/>
     <use xlink:href="#DejaVuSans-65" x="349.902344"/>
     <use xlink:href="#DejaVuSans-63" x="411.425781"/>
     <use xlink:href="#DejaVuSans-74" x="466.40625"/>
     <use xlink:href="#DejaVuSans-6f" x="505.615234"/>
     <use xlink:href="#DejaVuSans-72" x="566.796875"/>
     <use xlink:href="#DejaVuSans-20" x="607.910156"/>
     <use xlink:href="#DejaVuSans-61" x="639.697266"/>
     <use xlink:href="#DejaVuSans-74" x="700.976562"/>
     <use xlink:href="#DejaVuSans-20" x="740.185547"/>
     <use xlink:href="#DejaVuSans-65" x="771.972656"/>
     <use xlink:href="#DejaVuSans-61" x="833.496094"/>
     <use xlink:href="#DejaVuSans-63" x="894.775391"/>
     <use xlink:href="#DejaVuSans-68" x="949.755859"/>
     <use xlink:href="#DejaVuSans-20" x="1013.134766"/>
     <use xlink:href="#DejaVuSans-74" x="1044.921875"/>
     <use xlink:href="#DejaVuSans-69" x="1084.130859"/>
     <use xlink:href="#DejaVuSans-6d" x="1111.914062"/>
     <use xlink:href="#DejaVuSans-65" x="1209.326172"/>
     <use xlink:href="#DejaVuSans-73" x="1270.849609"/>
     <use xlink:href="#DejaVuSans-74" x="1322.949219"/>
     <use xlink:href="#DejaVuSans-65" x="1362.158203"/>
     <use xlink:href="#DejaVuSans-70" x="1423.681641"/>
     <use xlink:href="#DejaVuSans-20" x="1487.158203"/>
     <use xlink:href="#DejaVuSans-28" x="1518.945312"/>
     <use xlink:href="#DejaVuSans-7a" x="1557.958984"/>
     <use xlink:href="#DejaVuSans-2d" x="1610.449219"/>
     <use xlink:href="#DejaVuSans-73" x="1646.533203"/>
     <use xlink:href="#DejaVuSans-63" x="1698.632812"/>
     <use xlink:href="#DejaVuSans-6f" x="1753.613281"/>
     <use xlink:href="#DejaVuSans-72" x="1814.794922"/>
     <use xlink:href="#DejaVuSans-65" x="1853.658203"/>
     <use xlink:href="#DejaVuSans-64" x="1915.181641"/>
     <use xlink:href="#DejaVuSans-29" x="1978.658203"/>
     <use xlink:href="#DejaVuSans-3a" x="2017.671875"/>
     <use xlink:href="#DejaVuSans-20" x="2051.363281"/>
     <use xlink:href="#DejaVuSans-20" x="2083.150391"/>
     <use xlink:href="#DejaVuSans-42" x="2114.9375"/>
     <use xlink:href="#DejaVuSans-48" x="2183.541016"/>
     <use xlink:href="#DejaVuSans-20" x="2258.736328"/>
     <use xlink:href="#DejaVuSans-4d" x="2290.523438"/>
     <use xlink:href="#DejaVuSans-61" x="2376.802734"/>
     <use xlink:href="#DejaVuSans-73" x="2438.082031"/>
     <use xlink:href="#DejaVuSans-73" x="2490.181641"/>
     <use xlink:href="#DejaVuSans-2c" x="2542.28125"/>
     <use xlink:href="#DejaVuSans-20" x="2574.068359"/>
     <use xlink:href="#DejaVuSans-42" x="2605.855469"/>
     <use xlink:href="#DejaVuSans-48" x="2674.458984"/>
     <use xlink:href="#DejaVuSans-20" x="2749.654297"/>
     <use xlink:href="#DejaVuSans-41" x="2781.441406"/>
     <use xlink:href="#DejaVuSans-63" x="2848.099609"/>
     <use xlink:href="#DejaVuSans-63" x="2903.080078"/>
     <use xlink:href="#DejaVuSans-72" x="2958.060547"/>
     <use xlink:href="#DejaVuSans-65" x="2996.923828"/>
     <use xlink:href="#DejaVuSans-74" x="3058.447266"/>
     <use xlink:href="#DejaVuSans-69" x="3097.65625"/>
     <use xlink:href="#DejaVuSans-6f" x="3125.439453"/>
     <use xlink:href="#DejaVuSans-6e" x="3186.621094"/>
     <use xlink:href="#DejaVuSans-2c" x="3250"/>
     <use xlink:href="#DejaVuSans-20" x="3281.787109"/>
     <use xlink:href="#DejaVuSans-53" x="3313.574219"/>
     <use xlink:href="#DejaVuSans-74" x="3377.050781"/>
     <use xlink:href="#DejaVuSans-65" x="3416.259766"/>
     <use xlink:href="#DejaVuSans-6c" x="3477.783203"/>
     <use xlink:href="#DejaVuSans-6c" x="3505.566406"/>
     <use xlink:href="#DejaVuSans-61" x="3533.349609"/>
     <use xlink:href="#DejaVuSans-72" x="3594.628906"/>
     <use xlink:href="#DejaVuSans-20" x="3635.742188"/>
     <use xlink:href="#DejaVuSans-4d" x="3667.529297"/>
     <use xlink:href="#DejaVuSans-61" x="3753.808594"/>
     <use xlink:href="#DejaVuSans-73" x="3815.087891"/>
     <use xlink:href="#DejaVuSans-73" x="3867.1875"/>
     <use xlink:href="#DejaVuSans-2c" x="3919.287109"/>
     <use xlink:href="#DejaVuSans-20" x="3951.074219"/>
     <use xlink:href="#DejaVuSans-53" x="3982.861328"/>
     <use xlink:href="#DejaVuSans-46" x="4046.337891"/>
     <use xlink:href="#DejaVuSans-52" x="4103.857422"/>
     <use xlink:href="#DejaVuSans-2c" x="4173.339844"/>
     <use xlink:href="#DejaVuSans-20" x="4205.126953"/>
     <use xlink:href="#DejaVuSans-48" x="4236.914062"/>
     <use xlink:href="#DejaVuSans-61" x="4312.109375"/>
     <use xlink:href="#DejaVuSans-6c" x="4373.388672"/>
     <use xlink:href="#DejaVuSans-6f" x="4401.171875"/>
     <use xlink:href="#DejaVuSans-20" x="4462.353516"/>
     <use xlink:href="#DejaVuSans-4d" x="4494.140625"/>
     <use xlink:href="#DejaVuSans-61" x="4580.419922"/>
     <use xlink:href="#DejaVuSans-73" x="4641.699219"/>
     <use xlink:href="#DejaVuSans-73" x="4693.798828"/>
     <use xlink:href="#DejaVuSans-2c" x="4745.898438"/>
     <use xlink:href="#DejaVuSans-20" x="4777.685547"/>
     <use xlink:href="#DejaVuSans-56" x="4809.472656"/>
     <use xlink:href="#DejaVuSans-65" x="4870.130859"/>
     <use xlink:href="#DejaVuSans-6c" x="4931.654297"/>
     <use xlink:href="#DejaVuSans-6f" x="4959.4375"/>
     <use xlink:href="#DejaVuSans-63" x="5020.619141"/>
     <use xlink:href="#DejaVuSans-69" x="5075.599609"/>
     <use xlink:href="#DejaVuSans-74" x="5103.382812"/>
     <use xlink:href="#DejaVuSans-79" x="5142.591797"/>
     <use xlink:href="#DejaVuSans-20" x="5201.771484"/>
     <use xlink:href="#DejaVuSans-44" x="5233.558594"/>
     <use xlink:href="#DejaVuSans-69" x="5310.560547"/>
     <use xlink:href="#DejaVuSans-73" x="5338.34375"/>
     <use xlink:href="#DejaVuSans-70" x="5390.443359"/>
     <use xlink:href="#DejaVuSans-65" x="5453.919922"/>
     <use xlink:href="#DejaVuSans-72" x="5515.443359"/>
     <use xlink:href="#DejaVuSans-73" x="5556.556641"/>
     <use xlink:href="#DejaVuSans-69" x="5608.65625"/>
     <use xlink:href="#DejaVuSans-6f" x="5636.439453"/>
     <use xlink:href="#DejaVuSans-6e" x="5697.621094"/>
    </g>
   </g>
   <g id="text_22">
    <!-- LSTM Architecture for Multi-Horizon Forecasting -->
    <g style="fill: #1c2333" transform="translate(184.437094 20.117344) scale(0.17 -0.17)">
     <defs>
      <path id="DejaVuSans-4c" d="M 628 4666 
L 1259 4666 
L 1259 531 
L 3531 531 
L 3531 0 
L 628 0 
L 628 4666 
z
" transform="scale(0.015625)"/>
      <path id="DejaVuSans-54" d="M -19 4666 
L 3928 4666 
L 3928 4134 
L 2272 4134 
L 2272 0 
L 1638 0 
L 1638 4134 
L -19 4134 
L -19 4666 
z
" transform="scale(0.015625)"/>
      <path id="DejaVuSans-67" d="M 2906 1791 
Q 2906 2416 2648 2759 
Q 2391 3103 1925 3103 
Q 1463 3103 1205 2759 
Q 947 2416 947 1791 
Q 947 1169 1205 825 
Q 1463 481 1925 481 
Q 2391 481 2648 825 
Q 2906 1169 2906 1791 
z
M 3481 434 
Q 3481 -459 3084 -895 
Q 2688 -1331 1869 -1331 
Q 1566 -1331 1297 -1286 
Q 1028 -1241 775 -1147 
L 775 -588 
Q 1028 -725 1275 -790 
Q 1522 -856 1778 -856 
Q 2344 -856 2625 -561 
Q 2906 -266 2906 331 
L 2906 616 
Q 2728 306 2450 153 
Q 2172 0 1784 0 
Q 1141 0 747 490 
Q 353 981 353 1791 
Q 353 2603 747 3093 
Q 1141 3584 1784 3584 
Q 2172 3584 2450 3431 
Q 2728 3278 2906 2969 
L 2906 3500 
L 3481 3500 
L 3481 434 
z
" transform="scale(0.015625)"/>
     </defs>
     <use xlink:href="#DejaVuSans-4c"/>
     <use xlink:href="#DejaVuSans-53" x="55.712891"/>
     <use xlink:href="#DejaVuSans-54" x="119.189453"/>
     <use xlink:href="#DejaVuSans-4d" x="180.273438"/>
     <use xlink:href="#DejaVuSans-20" x="266.552734"/>
     <use xlink:href="#DejaVuSans-41" x="298.339844"/>
     <use xlink:href="#DejaVuSans-72" x="366.748047"/>
     <use xlink:href="#DejaVuSans-63" x="405.611328"/>
     <use xlink:href="#DejaVuSans-68" x="460.591797"/>
     <use xlink:href="#DejaVuSans-69" x="523.970703"/>
     <use xlink:href="#DejaVuSans-74" x="551.753906"/>
     <use xlink:href="#DejaVuSans-65" x="590.962891"/>
     <use xlink:href="#DejaVuSans-63" x="652.486328"/>
     <use xlink:href="#DejaVuSans-74" x="707.466797"/>
     <use xlink:href="#DejaVuSans-75" x="746.675781"/>
     <use xlink:href="#DejaVuSans-72" x="810.054688"/>
     <use xlink:href="#DejaVuSans-65" x="848.917969"/>
     <use xlink:href="#DejaVuSans-20" x="910.441406"/>
     <use xlink:href="#DejaVuSans-66" x="942.228516"/>
     <use xlink:href="#DejaVuSans-6f" x="977.433594"/>
     <use xlink:href="#DejaVuSans-72" x="1038.615234"/>
     <use xlink:href="#DejaVuSans-20" x="1079.728516"/>
     <use xlink:href="#DejaVuSans-4d" x="1111.515625"/>
     <use xlink:href="#DejaVuSans-75" x="1197.794922"/>
     <use xlink:href="#DejaVuSans-6c" x="1261.173828"/>
     <use xlink:href="#DejaVuSans-74" x="1288.957031"/>
     <use xlink:href="#DejaVuSans-69" x="1328.166016"/>
     <use xlink:href="#DejaVuSans-2d" x="1355.949219"/>
     <use xlink:href="#DejaVuSans-48" x="1392.033203"/>
     <use xlink:href="#DejaVuSans-6f" x="1467.228516"/>
     <use xlink:href="#DejaVuSans-72" x="1528.410156"/>
     <use xlink:href="#DejaVuSans-69" x="1569.523438"/>
     <use xlink:href="#DejaVuSans-7a" x="1597.306641"/>
     <use xlink:href="#DejaVuSans-6f" x="1649.796875"/>
     <use xlink:href="#DejaVuSans-6e" x="1710.978516"/>
     <use xlink:href="#DejaVuSans-20" x="1774.357422"/>
     <use xlink:href="#DejaVuSans-46" x="1806.144531"/>
     <use xlink:href="#DejaVuSans-6f" x="1860.039062"/>
     <use xlink:href="#DejaVuSans-72" x="1921.220703"/>
     <use xlink:href="#DejaVuSans-65" x="1960.083984"/>
     <use xlink:href="#DejaVuSans-63" x="2021.607422"/>
     <use xlink:href="#DejaVuSans-61" x="2076.587891"/>
     <use xlink:href="#DejaVuSans-73" x="2137.867188"/>
     <use xlink:href="#DejaVuSans-74" x="2189.966797"/>
     <use xlink:href="#DejaVuSans-69" x="2229.175781"/>
     <use xlink:href="#DejaVuSans-6e" x="2256.958984"/>
     <use xlink:href="#DejaVuSans-67" x="2320.337891"/>
    </g>
   </g>
  </g>
 </g>
 <defs>
  <clipPath id="p3f4ab8a86a">
   <rect x="7.2" y="26.117344" width="759.717" height="305.04"/>
  </clipPath>
 </defs>
</svg>
