<?xml version="1.0" encoding="utf-8" standalone="no"?>
<!DOCTYPE svg PUBLIC "-//W3C//DTD SVG 1.1//EN"
  "http://www.w3.org/Graphics/SVG/1.1/DTD/svg11.dtd">
<svg xmlns:xlink="http://www.w3.org/1999/xlink" width="856.8pt" height="337.173664pt" viewBox="0 0 856.8 337.173664" xmlns="http://www.w3.org/2000/svg" version="1.1">
 <metadata>
  <rdf:RDF xmlns:dc="http://purl.org/dc/elements/1.1/" xmlns:cc="http://creativecommons.org/ns#" xmlns:rdf="http://www.w3.org/1999/02/22-rdf-syntax-ns#">
   <cc:Work>
    <dc:type rdf:resource="http://purl.org/dc/dcmitype/StillImage"/>
    <dc:date>2025-09-19T04:31:56.081053</dc:date>
    <dc:format>image/svg+xml</dc:format>
    <dc:creator>
     <cc:Agent>
      <dc:title>Matplotlib v3.7.2, https://matplotlib.org/</dc:title>
     </cc:Agent>
    </dc:creator>
   </cc:Work>
  </rdf:RDF>
 </metadata>
 <defs>
  <style type="text/css">*{stroke-linejoin: round; stroke-linecap: butt}</style>
 </defs>
 <g id="figure_1">
  <g id="patch_1">
   <path d="M 0 337.173664 
L 856.8 337.173664 
L 856.8 0 
L 0 0 
z
" style="fill: #ffffff"/>
  </g>
  <g id="axes_1">
   <g id="patch_2">
    <path d="M 9896.976 320.917974 
L -9663.552 320.917974 
Q 445.248 320.917974 445.248 -3301.357866 
L 445.248 3653.411747 
Q 445.248 31.135907 -9663.552 31.135907 
L 9896.976 31.135907 
Q -211.824 31.135907 -211.824 3653.411747 
L -211.824 -3301.357866 
Q -211.824 320.917974 9896.976 320.917974 
z
" clip-path="url(#pb3f1fa8896)" style="fill: #95a3b3; opacity: 0.18"/>
   </g>
   <g id="patch_3">
    <path d="M 10090.728 320.917974 
L -9469.8 320.917974 
Q 639 320.917974 639 -3301.357866 
L 639 3653.411747 
Q 639 31.135907 -9469.8 31.135907 
L 10090.728 31.135907 
Q -18.072 31.135907 -18.072 3653.411747 
L -18.072 -3301.357866 
Q -18.072 320.917974 10090.728 320.917974 
z
" clip-path="url(#pb3f1fa8896)" style="fill: #95a3b3; opacity: 0.18"/>
   </g>
   <g id="patch_4">
    <path d="M 10284.48 320.917974 
L -9276.048 320.917974 
Q 832.752 320.917974 832.752 -3301.357866 
L 832.752 3653.411747 
Q 832.752 31.135907 -9276.048 31.135907 
L 10284.48 31.135907 
Q 175.68 31.135907 175.68 3653.411747 
L 175.68 -3301.357866 
Q 175.68 320.917974 10284.48 320.917974 
z
" clip-path="url(#pb3f1fa8896)" style="fill: #95a3b3; opacity: 0.18"/>
   </g>
   <g id="patch_5">
    <path d="M 10478.232 320.917974 
L -9082.296 320.917974 
Q 1026.504 320.917974 1026.504 -3301.357866 
L 1026.504 3653.411747 
Q 1026.504 31.135907 -9082.296 31.135907 
L 10478.232 31.135907 
Q 369.432 31.135907 369.432 3653.411747 
L 369.432 -3301.357866 
Q 369.432 320.917974 10478.232 320.917974 
z
" clip-path="url(#pb3f1fa8896)" style="fill: #95a3b3; opacity: 0.18"/>
   </g>
   <g id="patch_6">
    <path d="M 10478.232 408.456307 
L -9023.328 408.456307 
Q 1085.472 408.456307 1085.472 -3213.819533 
L 1085.472 3783.209965 
Q 1085.472 160.934125 -9023.328 160.934125 
L 10478.232 160.934125 
Q 369.432 160.934125 369.432 3783.209965 
L 369.432 -3213.819533 
Q 369.432 408.456307 10478.232 408.456307 
z
" clip-path="url(#pb3f1fa8896)" style="fill: #95a3b3; opacity: 0.18"/>
   </g>
   <g id="patch_7">
    <path d="M 9888.552 317.899411 
L -9671.976 317.899411 
Q 436.824 317.899411 436.824 -3304.376429 
L 436.824 3650.393184 
Q 436.824 28.117344 -9671.976 28.117344 
L 9888.552 28.117344 
Q -220.248 28.117344 -220.248 3650.393184 
L -220.248 -3304.376429 
Q -220.248 317.899411 9888.552 317.899411 
z
" clip-path="url(#pb3f1fa8896)" style="fill: #eff4ff; stroke: #1a3a7c; stroke-width: 1.8; stroke-linejoin: miter"/>
   </g>
   <g id="patch_8">
    <path d="M 10082.304 317.899411 
L -9478.224 317.899411 
Q 630.576 317.899411 630.576 -3304.376429 
L 630.576 3650.393184 
Q 630.576 28.117344 -9478.224 28.117344 
L 10082.304 28.117344 
Q -26.496 28.117344 -26.496 3650.393184 
L -26.496 -3304.376429 
Q -26.496 317.899411 10082.304 317.899411 
z
" clip-path="url(#pb3f1fa8896)" style="fill: #eff4ff; stroke: #1a3a7c; stroke-width: 1.8; stroke-linejoin: miter"/>
   </g>
   <g id="patch_9">
    <path d="M 10276.056 317.899411 
L -9284.472 317.899411 
Q 824.328 317.899411 824.328 -3304.376429 
L 824.328 3650.393184 
Q 824.328 28.117344 -9284.472 28.117344 
L 10276.056 28.117344 
Q 167.256 28.117344 167.256 3650.393184 
L 167.256 -3304.376429 
Q 167.256 317.899411 10276.056 317.899411 
z
" clip-path="url(#pb3f1fa8896)" style="fill: #eff4ff; stroke: #1a3a7c; stroke-width: 1.8; stroke-linejoin: miter"/>
   </g>
   <g id="patch_10">
    <path d="M 10469.808 317.899411 
L -9090.72 317.899411 
Q 1018.08 317.899411 1018.08 -3304.376429 
L 1018.08 3650.393184 
Q 1018.08 28.117344 -9090.72 28.117344 
L 10469.808 28.117344 
Q 361.008 28.117344 361.008 3650.393184 
L 361.008 -3304.376429 
Q 361.008 317.899411 10469.808 317.899411 
z
" clip-path="url(#pb3f1fa8896)" style="fill: #eff4ff; stroke: #1a3a7c; stroke-width: 1.8; stroke-linejoin: miter"/>
   </g>
   <g id="patch_11">
    <path d="M 10469.808 405.437744 
L -9031.752 405.437744 
Q 1077.048 405.437744 1077.048 -3216.838096 
L 1077.048 3780.191401 
Q 1077.048 157.915561 -9031.752 157.915561 
L 10469.808 157.915561 
Q 361.008 157.915561 361.008 3780.191401 
L 361.008 -3216.838096 
Q 361.008 405.437744 10469.808 405.437744 
z
" clip-path="url(#pb3f1fa8896)" style="fill: #eff4ff; stroke: #1a3a7c; stroke-width: 1.8; stroke-linejoin: miter"/>
   </g>
   <g id="patch_12">
    <path d="M 186.101512 173.008377 
Q 205.161163 173.008377 221.984746 173.008377 
" clip-path="url(#pb3f1fa8896)" style="fill: none; stroke: #0f62fe; stroke-width: 2; stroke-linecap: round"/>
    <path d="M 216.384746 170.208377 
L 221.984746 173.008377 
L 216.384746 175.808377 
z
" clip-path="url(#pb3f1fa8896)" style="fill: #0f62fe; stroke: #0f62fe; stroke-width: 2; stroke-linecap: round"/>
   </g>
   <g id="patch_13">
    <path d="M 379.853512 173.008377 
Q 398.913163 173.008377 415.736746 173.008377 
" clip-path="url(#pb3f1fa8896)" style="fill: none; stroke: #0f62fe; stroke-width: 2; stroke-linecap: round"/>
    <path d="M 410.136746 170.208377 
L 415.736746 173.008377 
L 410.136746 175.808377 
z
" clip-path="url(#pb3f1fa8896)" style="fill: #0f62fe; stroke: #0f62fe; stroke-width: 2; stroke-linecap: round"/>
   </g>
   <g id="patch_14">
    <path d="M 573.605512 173.008377 
Q 592.665163 173.008377 609.488746 173.008377 
" clip-path="url(#pb3f1fa8896)" style="fill: none; stroke: #0f62fe; stroke-width: 2; stroke-linecap: round"/>
    <path d="M 603.888746 170.208377 
L 609.488746 173.008377 
L 603.888746 175.808377 
z
" clip-path="url(#pb3f1fa8896)" style="fill: #0f62fe; stroke: #0f62fe; stroke-width: 2; stroke-linecap: round"/>
   </g>
   <g id="patch_15">
    <path d="M 691.167204 228.505797 
Q 704.286469 237.907822 715.588213 246.007306 
" clip-path="url(#pb3f1fa8896)" style="fill: none; stroke: #0f62fe; stroke-width: 2; stroke-linecap: round"/>
    <path d="M 712.667458 240.469329 
L 715.588213 246.007306 
L 709.405378 245.021124 
z
" clip-path="url(#pb3f1fa8896)" style="fill: #0f62fe; stroke: #0f62fe; stroke-width: 2; stroke-linecap: round"/>
   </g>
   <g id="text_1">
    <!-- Simulation Data -->
    <g style="fill: #1c2333" transform="translate(47.131945 153.080636) scale(0.135 -0.135)">
     <defs>
      <path id="DejaVuSans-Bold-53" d="M 3834 4519 
L 3834 3531 
Q 3450 3703 3084 3790 
Q 2719 3878 2394 3878 
Q 1963 3878 1756 3759 
Q 1550 3641 1550 3391 
Q 1550 3203 1689 3098 
Q 1828 2994 2194 2919 
L 2706 2816 
Q 3484 2659 3812 2340 
Q 4141 2022 4141 1434 
Q 4141 663 3683 286 
Q 3225 -91 2284 -91 
Q 1841 -91 1394 -6 
Q 947 78 500 244 
L 500 1259 
Q 947 1022 1364 901 
Q 1781 781 2169 781 
Q 2563 781 2772 912 
Q 2981 1044 2981 1288 
Q 2981 1506 2839 1625 
Q 2697 1744 2272 1838 
L 1806 1941 
Q 1106 2091 782 2419 
Q 459 2747 459 3303 
Q 459 4000 909 4375 
Q 1359 4750 2203 4750 
Q 2588 4750 2994 4692 
Q 3400 4634 3834 4519 
z
" transform="scale(0.015625)"/>
      <path id="DejaVuSans-Bold-69" d="M 538 3500 
L 1656 3500 
L 1656 0 
L 538 0 
L 538 3500 
z
M 538 4863 
L 1656 4863 
L 1656 3950 
L 538 3950 
L 538 4863 
z
" transform="scale(0.015625)"/>
      <path id="DejaVuSans-Bold-6d" d="M 3781 2919 
Q 3994 3244 4286 3414 
Q 4578 3584 4928 3584 
Q 5531 3584 5847 3212 
Q 6163 2841 6163 2131 
L 6163 0 
L 5038 0 
L 5038 1825 
Q 5041 1866 5042 1909 
Q 5044 1953 5044 2034 
Q 5044 2406 4934 2573 
Q 4825 2741 4581 2741 
Q 4263 2741 4089 2478 
Q 3916 2216 3909 1719 
L 3909 0 
L 2784 0 
L 2784 1825 
Q 2784 2406 2684 2573 
Q 2584 2741 2328 2741 
Q 2006 2741 1831 2477 
Q 1656 2213 1656 1722 
L 1656 0 
L 531 0 
L 531 3500 
L 1656 3500 
L 1656 2988 
Q 1863 3284 2130 3434 
Q 2397 3584 2719 3584 
Q 3081 3584 3359 3409 
Q 3638 3234 3781 2919 
z
" transform="scale(0.015625)"/>
      <path id="DejaVuSans-Bold-75" d="M 500 1363 
L 500 3500 
L 1625 3500 
L 1625 3150 
Q 1625 2866 1622 2436 
Q 1619 2006 1619 1863 
Q 1619 1441 1641 1255 
Q 1663 1069 1716 984 
Q 1784 875 1895 815 
Q 2006 756 2150 756 
Q 2500 756 2700 1025 
Q 2900 1294 2900 1772 
L 2900 3500 
L 4019 3500 
L 4019 0 
L 2900 0 
L 2900 506 
Q 2647 200 2364 54 
Q 2081 -91 1741 -91 
Q 1134 -91 817 281 
Q 500 653 500 1363 
z
" transform="scale(0.015625)"/>
      <path id="DejaVuSans-Bold-6c" d="M 538 4863 
L 1656 4863 
L 1656 0 
L 538 0 
L 538 4863 
z
" transform="scale(0.015625)"/>
      <path id="DejaVuSans-Bold-61" d="M 2106 1575 
Q 1756 1575 1579 1456 
Q 1403 1338 1403 1106 
Q 1403 894 1545 773 
Q 1688 653 1941 653 
Q 2256 653 2472 879 
Q 2688 1106 2688 1447 
L 2688 1575 
L 2106 1575 
z
M 3816 1997 
L 3816 0 
L 2688 0 
L 2688 519 
Q 2463 200 2181 54 
Q 1900 -91 1497 -91 
Q 953 -91 614 226 
Q 275 544 275 1050 
Q 275 1666 698 1953 
Q 1122 2241 2028 2241 
L 2688 2241 
L 2688 2328 
Q 2688 2594 2478 2717 
Q 2269 2841 1825 2841 
Q 1466 2841 1156 2769 
Q 847 2697 581 2553 
L 581 3406 
Q 941 3494 1303 3539 
Q 1666 3584 2028 3584 
Q 2975 3584 3395 3211 
Q 3816 2838 3816 1997 
z
" transform="scale(0.015625)"/>
      <path id="DejaVuSans-Bold-74" d="M 1759 4494 
L 1759 3500 
L 2913 3500 
L 2913 2700 
L 1759 2700 
L 1759 1216 
Q 1759 972 1856 886 
Q 1953 800 2241 800 
L 2816 800 
L 2816 0 
L 1856 0 
Q 1194 0 917 276 
Q 641 553 641 1216 
L 641 2700 
L 84 2700 
L 84 3500 
L 641 3500 
L 641 4494 
L 1759 4494 
z
" transform="scale(0.015625)"/>
      <path id="DejaVuSans-Bold-6f" d="M 2203 2784 
Q 1831 2784 1636 2517 
Q 1441 2250 1441 1747 
Q 1441 1244 1636 976 
Q 1831 709 2203 709 
Q 2569 709 2762 976 
Q 2956 1244 2956 1747 
Q 2956 2250 2762 2517 
Q 2569 2784 2203 2784 
z
M 2203 3584 
Q 3106 3584 3614 3096 
Q 4122 2609 4122 1747 
Q 4122 884 3614 396 
Q 3106 -91 2203 -91 
Q 1297 -91 786 396 
Q 275 884 275 1747 
Q 275 2609 786 3096 
Q 1297 3584 2203 3584 
z
" transform="scale(0.015625)"/>
      <path id="DejaVuSans-Bold-6e" d="M 4056 2131 
L 4056 0 
L 2931 0 
L 2931 347 
L 2931 1631 
Q 2931 2084 2911 2256 
Q 2891 2428 2841 2509 
Q 2775 2619 2662 2680 
Q 2550 2741 2406 2741 
Q 2056 2741 1856 2470 
Q 1656 2200 1656 1722 
L 1656 0 
L 538 0 
L 538 3500 
L 1656 3500 
L 1656 2988 
Q 1909 3294 2193 3439 
Q 2478 3584 2822 3584 
Q 3428 3584 3742 3212 
Q 4056 2841 4056 2131 
z
" transform="scale(0.015625)"/>
      <path id="DejaVuSans-Bold-20" transform="scale(0.015625)"/>
      <path id="DejaVuSans-Bold-44" d="M 1791 3756 
L 1791 909 
L 2222 909 
Q 2959 909 3348 1275 
Q 3738 1641 3738 2338 
Q 3738 3031 3350 3393 
Q 2963 3756 2222 3756 
L 1791 3756 
z
M 588 4666 
L 1856 4666 
Q 2919 4666 3439 4514 
Q 3959 4363 4331 4000 
Q 4659 3684 4818 3271 
Q 4978 2859 4978 2338 
Q 4978 1809 4818 1395 
Q 4659 981 4331 666 
Q 3956 303 3431 151 
Q 2906 0 1856 0 
L 588 0 
L 588 4666 
z
" transform="scale(0.015625)"/>
     </defs>
     <use xlink:href="#DejaVuSans-Bold-53"/>
     <use xlink:href="#DejaVuSans-Bold-69" x="72.021484"/>
     <use xlink:href="#DejaVuSans-Bold-6d" x="106.298828"/>
     <use xlink:href="#DejaVuSans-Bold-75" x="210.498047"/>
     <use xlink:href="#DejaVuSans-Bold-6c" x="281.689453"/>
     <use xlink:href="#DejaVuSans-Bold-61" x="315.966797"/>
     <use xlink:href="#DejaVuSans-Bold-74" x="383.447266"/>
     <use xlink:href="#DejaVuSans-Bold-69" x="431.25"/>
     <use xlink:href="#DejaVuSans-Bold-6f" x="465.527344"/>
     <use xlink:href="#DejaVuSans-Bold-6e" x="534.228516"/>
     <use xlink:href="#DejaVuSans-Bold-20" x="605.419922"/>
     <use xlink:href="#DejaVuSans-Bold-44" x="640.234375"/>
     <use xlink:href="#DejaVuSans-Bold-61" x="723.242188"/>
     <use xlink:href="#DejaVuSans-Bold-74" x="790.722656"/>
     <use xlink:href="#DejaVuSans-Bold-61" x="838.525391"/>
    </g>
   </g>
   <g id="text_2">
    <!-- IllustrisTNG100 -->
    <g style="fill: #1c2333" transform="translate(66.214719 172.660115) scale(0.11 -0.11)">
     <defs>
      <path id="DejaVuSans-49" d="M 628 4666 
L 1259 4666 
L 1259 0 
L 628 0 
L 628 4666 
z
" transform="scale(0.015625)"/>
      <path id="DejaVuSans-6c" d="M 603 4863 
L 1178 4863 
L 1178 0 
L 603 0 
L 603 4863 
z
" transform="scale(0.015625)"/>
      <path id="DejaVuSans-75" d="M 544 1381 
L 544 3500 
L 1119 3500 
L 1119 1403 
Q 1119 906 1312 657 
Q 1506 409 1894 409 
Q 2359 409 2629 706 
Q 2900 1003 2900 1516 
L 2900 3500 
L 3475 3500 
L 3475 0 
L 2900 0 
L 2900 538 
Q 2691 219 2414 64 
Q 2138 -91 1772 -91 
Q 1169 -91 856 284 
Q 544 659 544 1381 
z
M 1991 3584 
L 1991 3584 
z
" transform="scale(0.015625)"/>
      <path id="DejaVuSans-73" d="M 2834 3397 
L 2834 2853 
Q 2591 2978 2328 3040 
Q 2066 3103 1784 3103 
Q 1356 3103 1142 2972 
Q 928 2841 928 2578 
Q 928 2378 1081 2264 
Q 1234 2150 1697 2047 
L 1894 2003 
Q 2506 1872 2764 1633 
Q 3022 1394 3022 966 
Q 3022 478 2636 193 
Q 2250 -91 1575 -91 
Q 1294 -91 989 -36 
Q 684 19 347 128 
L 347 722 
Q 666 556 975 473 
Q 1284 391 1588 391 
Q 1994 391 2212 530 
Q 2431 669 2431 922 
Q 2431 1156 2273 1281 
Q 2116 1406 1581 1522 
L 1381 1569 
Q 847 1681 609 1914 
Q 372 2147 372 2553 
Q 372 3047 722 3315 
Q 1072 3584 1716 3584 
Q 2034 3584 2315 3537 
Q 2597 3491 2834 3397 
z
" transform="scale(0.015625)"/>
      <path id="DejaVuSans-74" d="M 1172 4494 
L 1172 3500 
L 2356 3500 
L 2356 3053 
L 1172 3053 
L 1172 1153 
Q 1172 725 1289 603 
Q 1406 481 1766 481 
L 2356 481 
L 2356 0 
L 1766 0 
Q 1100 0 847 248 
Q 594 497 594 1153 
L 594 3053 
L 172 3053 
L 172 3500 
L 594 3500 
L 594 4494 
L 1172 4494 
z
" transform="scale(0.015625)"/>
      <path id="DejaVuSans-72" d="M 2631 2963 
Q 2534 3019 2420 3045 
Q 2306 3072 2169 3072 
Q 1681 3072 1420 2755 
Q 1159 2438 1159 1844 
L 1159 0 
L 581 0 
L 581 3500 
L 1159 3500 
L 1159 2956 
Q 1341 3275 1631 3429 
Q 1922 3584 2338 3584 
Q 2397 3584 2469 3576 
Q 2541 3569 2628 3553 
L 2631 2963 
z
" transform="scale(0.015625)"/>
      <path id="DejaVuSans-69" d="M 603 3500 
L 1178 3500 
L 1178 0 
L 603 0 
L 603 3500 
z
M 603 4863 
L 1178 4863 
L 1178 4134 
L 603 4134 
L 603 4863 
z
" transform="scale(0.015625)"/>
      <path id="DejaVuSans-54" d="M -19 4666 
L 3928 4666 
L 3928 4134 
L 2272 4134 
L 2272 0 
L 1638 0 
L 1638 4134 
L -19 4134 
L -19 4666 
z
" transform="scale(0.015625)"/>
      <path id="DejaVuSans-4e" d="M 628 4666 
L 1478 4666 
L 3547 763 
L 3547 4666 
L 4159 4666 
L 4159 0 
L 3309 0 
L 1241 3903 
L 1241 0 
L 628 0 
L 628 4666 
z
" transform="scale(0.015625)"/>
      <path id="DejaVuSans-47" d="M 3809 666 
L 3809 1919 
L 2778 1919 
L 2778 2438 
L 4434 2438 
L 4434 434 
Q 4069 175 3628 42 
Q 3188 -91 2688 -91 
Q 1594 -91 976 548 
Q 359 1188 359 2328 
Q 359 3472 976 4111 
Q 1594 4750 2688 4750 
Q 3144 4750 3555 4637 
Q 3966 4525 4313 4306 
L 4313 3634 
Q 3963 3931 3569 4081 
Q 3175 4231 2741 4231 
Q 1884 4231 1454 3753 
Q 1025 3275 1025 2328 
Q 1025 1384 1454 906 
Q 1884 428 2741 428 
Q 3075 428 3337 486 
Q 3600 544 3809 666 
z
" transform="scale(0.015625)"/>
      <path id="DejaVuSans-31" d="M 794 531 
L 1825 531 
L 1825 4091 
L 703 3866 
L 703 4441 
L 1819 4666 
L 2450 4666 
L 2450 531 
L 3481 531 
L 3481 0 
L 794 0 
L 794 531 
z
" transform="scale(0.015625)"/>
      <path id="DejaVuSans-30" d="M 2034 4250 
Q 1547 4250 1301 3770 
Q 1056 3291 1056 2328 
Q 1056 1369 1301 889 
Q 1547 409 2034 409 
Q 2525 409 2770 889 
Q 3016 1369 3016 2328 
Q 3016 3291 2770 3770 
Q 2525 4250 2034 4250 
z
M 2034 4750 
Q 2819 4750 3233 4129 
Q 3647 3509 3647 2328 
Q 3647 1150 3233 529 
Q 2819 -91 2034 -91 
Q 1250 -91 836 529 
Q 422 1150 422 2328 
Q 422 3509 836 4129 
Q 1250 4750 2034 4750 
z
" transform="scale(0.015625)"/>
     </defs>
     <use xlink:href="#DejaVuSans-49"/>
     <use xlink:href="#DejaVuSans-6c" x="29.492188"/>
     <use xlink:href="#DejaVuSans-6c" x="57.275391"/>
     <use xlink:href="#DejaVuSans-75" x="85.058594"/>
     <use xlink:href="#DejaVuSans-73" x="148.4375"/>
     <use xlink:href="#DejaVuSans-74" x="200.537109"/>
     <use xlink:href="#DejaVuSans-72" x="239.746094"/>
     <use xlink:href="#DejaVuSans-69" x="280.859375"/>
     <use xlink:href="#DejaVuSans-73" x="308.642578"/>
     <use xlink:href="#DejaVuSans-54" x="360.742188"/>
     <use xlink:href="#DejaVuSans-4e" x="421.826172"/>
     <use xlink:href="#DejaVuSans-47" x="496.630859"/>
     <use xlink:href="#DejaVuSans-31" x="574.121094"/>
     <use xlink:href="#DejaVuSans-30" x="637.744141"/>
     <use xlink:href="#DejaVuSans-30" x="701.367188"/>
    </g>
    <!-- Snapshots 18–33 -->
    <g style="fill: #1c2333" transform="translate(61.215734 184.977709) scale(0.11 -0.11)">
     <defs>
      <path id="DejaVuSans-53" d="M 3425 4513 
L 3425 3897 
Q 3066 4069 2747 4153 
Q 2428 4238 2131 4238 
Q 1616 4238 1336 4038 
Q 1056 3838 1056 3469 
Q 1056 3159 1242 3001 
Q 1428 2844 1947 2747 
L 2328 2669 
Q 3034 2534 3370 2195 
Q 3706 1856 3706 1288 
Q 3706 609 3251 259 
Q 2797 -91 1919 -91 
Q 1588 -91 1214 -16 
Q 841 59 441 206 
L 441 856 
Q 825 641 1194 531 
Q 1563 422 1919 422 
Q 2459 422 2753 634 
Q 3047 847 3047 1241 
Q 3047 1584 2836 1778 
Q 2625 1972 2144 2069 
L 1759 2144 
Q 1053 2284 737 2584 
Q 422 2884 422 3419 
Q 422 4038 858 4394 
Q 1294 4750 2059 4750 
Q 2388 4750 2728 4690 
Q 3069 4631 3425 4513 
z
" transform="scale(0.015625)"/>
      <path id="DejaVuSans-6e" d="M 3513 2113 
L 3513 0 
L 2938 0 
L 2938 2094 
Q 2938 2591 2744 2837 
Q 2550 3084 2163 3084 
Q 1697 3084 1428 2787 
Q 1159 2491 1159 1978 
L 1159 0 
L 581 0 
L 581 3500 
L 1159 3500 
L 1159 2956 
Q 1366 3272 1645 3428 
Q 1925 3584 2291 3584 
Q 2894 3584 3203 3211 
Q 3513 2838 3513 2113 
z
" transform="scale(0.015625)"/>
      <path id="DejaVuSans-61" d="M 2194 1759 
Q 1497 1759 1228 1600 
Q 959 1441 959 1056 
Q 959 750 1161 570 
Q 1363 391 1709 391 
Q 2188 391 2477 730 
Q 2766 1069 2766 1631 
L 2766 1759 
L 2194 1759 
z
M 3341 1997 
L 3341 0 
L 2766 0 
L 2766 531 
Q 2569 213 2275 61 
Q 1981 -91 1556 -91 
Q 1019 -91 701 211 
Q 384 513 384 1019 
Q 384 1609 779 1909 
Q 1175 2209 1959 2209 
L 2766 2209 
L 2766 2266 
Q 2766 2663 2505 2880 
Q 2244 3097 1772 3097 
Q 1472 3097 1187 3025 
Q 903 2953 641 2809 
L 641 3341 
Q 956 3463 1253 3523 
Q 1550 3584 1831 3584 
Q 2591 3584 2966 3190 
Q 3341 2797 3341 1997 
z
" transform="scale(0.015625)"/>
      <path id="DejaVuSans-70" d="M 1159 525 
L 1159 -1331 
L 581 -1331 
L 581 3500 
L 1159 3500 
L 1159 2969 
Q 1341 3281 1617 3432 
Q 1894 3584 2278 3584 
Q 2916 3584 3314 3078 
Q 3713 2572 3713 1747 
Q 3713 922 3314 415 
Q 2916 -91 2278 -91 
Q 1894 -91 1617 61 
Q 1341 213 1159 525 
z
M 3116 1747 
Q 3116 2381 2855 2742 
Q 2594 3103 2138 3103 
Q 1681 3103 1420 2742 
Q 1159 2381 1159 1747 
Q 1159 1113 1420 752 
Q 1681 391 2138 391 
Q 2594 391 2855 752 
Q 3116 1113 3116 1747 
z
" transform="scale(0.015625)"/>
      <path id="DejaVuSans-68" d="M 3513 2113 
L 3513 0 
L 2938 0 
L 2938 2094 
Q 2938 2591 2744 2837 
Q 2550 3084 2163 3084 
Q 1697 3084 1428 2787 
Q 1159 2491 1159 1978 
L 1159 0 
L 581 0 
L 581 4863 
L 1159 4863 
L 1159 2956 
Q 1366 3272 1645 3428 
Q 1925 3584 2291 3584 
Q 2894 3584 3203 3211 
Q 3513 2838 3513 2113 
z
" transform="scale(0.015625)"/>
      <path id="DejaVuSans-6f" d="M 1959 3097 
Q 1497 3097 1228 2736 
Q 959 2375 959 1747 
Q 959 1119 1226 758 
Q 1494 397 1959 397 
Q 2419 397 2687 759 
Q 2956 1122 2956 1747 
Q 2956 2369 2687 2733 
Q 2419 3097 1959 3097 
z
M 1959 3584 
Q 2709 3584 3137 3096 
Q 3566 2609 3566 1747 
Q 3566 888 3137 398 
Q 2709 -91 1959 -91 
Q 1206 -91 779 398 
Q 353 888 353 1747 
Q 353 2609 779 3096 
Q 1206 3584 1959 3584 
z
" transform="scale(0.015625)"/>
      <path id="DejaVuSans-20" transform="scale(0.015625)"/>
      <path id="DejaVuSans-38" d="M 2034 2216 
Q 1584 2216 1326 1975 
Q 1069 1734 1069 1313 
Q 1069 891 1326 650 
Q 1584 409 2034 409 
Q 2484 409 2743 651 
Q 3003 894 3003 1313 
Q 3003 1734 2745 1975 
Q 2488 2216 2034 2216 
z
M 1403 2484 
Q 997 2584 770 2862 
Q 544 3141 544 3541 
Q 544 4100 942 4425 
Q 1341 4750 2034 4750 
Q 2731 4750 3128 4425 
Q 3525 4100 3525 3541 
Q 3525 3141 3298 2862 
Q 3072 2584 2669 2484 
Q 3125 2378 3379 2068 
Q 3634 1759 3634 1313 
Q 3634 634 3220 271 
Q 2806 -91 2034 -91 
Q 1263 -91 848 271 
Q 434 634 434 1313 
Q 434 1759 690 2068 
Q 947 2378 1403 2484 
z
M 1172 3481 
Q 1172 3119 1398 2916 
Q 1625 2713 2034 2713 
Q 2441 2713 2670 2916 
Q 2900 3119 2900 3481 
Q 2900 3844 2670 4047 
Q 2441 4250 2034 4250 
Q 1625 4250 1398 4047 
Q 1172 3844 1172 3481 
z
" transform="scale(0.015625)"/>
      <path id="DejaVuSans-2013" d="M 313 1978 
L 2888 1978 
L 2888 1528 
L 313 1528 
L 313 1978 
z
" transform="scale(0.015625)"/>
      <path id="DejaVuSans-33" d="M 2597 2516 
Q 3050 2419 3304 2112 
Q 3559 1806 3559 1356 
Q 3559 666 3084 287 
Q 2609 -91 1734 -91 
Q 1441 -91 1130 -33 
Q 819 25 488 141 
L 488 750 
Q 750 597 1062 519 
Q 1375 441 1716 441 
Q 2309 441 2620 675 
Q 2931 909 2931 1356 
Q 2931 1769 2642 2001 
Q 2353 2234 1838 2234 
L 1294 2234 
L 1294 2753 
L 1863 2753 
Q 2328 2753 2575 2939 
Q 2822 3125 2822 3475 
Q 2822 3834 2567 4026 
Q 2313 4219 1838 4219 
Q 1578 4219 1281 4162 
Q 984 4106 628 3988 
L 628 4550 
Q 988 4650 1302 4700 
Q 1616 4750 1894 4750 
Q 2613 4750 3031 4423 
Q 3450 4097 3450 3541 
Q 3450 3153 3228 2886 
Q 3006 2619 2597 2516 
z
" transform="scale(0.015625)"/>
     </defs>
     <use xlink:href="#DejaVuSans-53"/>
     <use xlink:href="#DejaVuSans-6e" x="63.476562"/>
     <use xlink:href="#DejaVuSans-61" x="126.855469"/>
     <use xlink:href="#DejaVuSans-70" x="188.134766"/>
     <use xlink:href="#DejaVuSans-73" x="251.611328"/>
     <use xlink:href="#DejaVuSans-68" x="303.710938"/>
     <use xlink:href="#DejaVuSans-6f" x="367.089844"/>
     <use xlink:href="#DejaVuSans-74" x="428.271484"/>
     <use xlink:href="#DejaVuSans-73" x="467.480469"/>
     <use xlink:href="#DejaVuSans-20" x="519.580078"/>
     <use xlink:href="#DejaVuSans-31" x="551.367188"/>
     <use xlink:href="#DejaVuSans-38" x="614.990234"/>
     <use xlink:href="#DejaVuSans-2013" x="678.613281"/>
     <use xlink:href="#DejaVuSans-33" x="728.613281"/>
     <use xlink:href="#DejaVuSans-33" x="792.236328"/>
    </g>
    <!-- MPB extraction -->
    <g style="fill: #1c2333" transform="translate(66.814562 197.295303) scale(0.11 -0.11)">
     <defs>
      <path id="DejaVuSans-4d" d="M 628 4666 
L 1569 4666 
L 2759 1491 
L 3956 4666 
L 4897 4666 
L 4897 0 
L 4281 0 
L 4281 4097 
L 3078 897 
L 2444 897 
L 1241 4097 
L 1241 0 
L 628 0 
L 628 4666 
z
" transform="scale(0.015625)"/>
      <path id="DejaVuSans-50" d="M 1259 4147 
L 1259 2394 
L 2053 2394 
Q 2494 2394 2734 2622 
Q 2975 2850 2975 3272 
Q 2975 3691 2734 3919 
Q 2494 4147 2053 4147 
L 1259 4147 
z
M 628 4666 
L 2053 4666 
Q 2838 4666 3239 4311 
Q 3641 3956 3641 3272 
Q 3641 2581 3239 2228 
Q 2838 1875 2053 1875 
L 1259 1875 
L 1259 0 
L 628 0 
L 628 4666 
z
" transform="scale(0.015625)"/>
      <path id="DejaVuSans-42" d="M 1259 2228 
L 1259 519 
L 2272 519 
Q 2781 519 3026 730 
Q 3272 941 3272 1375 
Q 3272 1813 3026 2020 
Q 2781 2228 2272 2228 
L 1259 2228 
z
M 1259 4147 
L 1259 2741 
L 2194 2741 
Q 2656 2741 2882 2914 
Q 3109 3088 3109 3444 
Q 3109 3797 2882 3972 
Q 2656 4147 2194 4147 
L 1259 4147 
z
M 628 4666 
L 2241 4666 
Q 2963 4666 3353 4366 
Q 3744 4066 3744 3513 
Q 3744 3084 3544 2831 
Q 3344 2578 2956 2516 
Q 3422 2416 3680 2098 
Q 3938 1781 3938 1306 
Q 3938 681 3513 340 
Q 3088 0 2303 0 
L 628 0 
L 628 4666 
z
" transform="scale(0.015625)"/>
      <path id="DejaVuSans-65" d="M 3597 1894 
L 3597 1613 
L 953 1613 
Q 991 1019 1311 708 
Q 1631 397 2203 397 
Q 2534 397 2845 478 
Q 3156 559 3463 722 
L 3463 178 
Q 3153 47 2828 -22 
Q 2503 -91 2169 -91 
Q 1331 -91 842 396 
Q 353 884 353 1716 
Q 353 2575 817 3079 
Q 1281 3584 2069 3584 
Q 2775 3584 3186 3129 
Q 3597 2675 3597 1894 
z
M 3022 2063 
Q 3016 2534 2758 2815 
Q 2500 3097 2075 3097 
Q 1594 3097 1305 2825 
Q 1016 2553 972 2059 
L 3022 2063 
z
" transform="scale(0.015625)"/>
      <path id="DejaVuSans-78" d="M 3513 3500 
L 2247 1797 
L 3578 0 
L 2900 0 
L 1881 1375 
L 863 0 
L 184 0 
L 1544 1831 
L 300 3500 
L 978 3500 
L 1906 2253 
L 2834 3500 
L 3513 3500 
z
" transform="scale(0.015625)"/>
      <path id="DejaVuSans-63" d="M 3122 3366 
L 3122 2828 
Q 2878 2963 2633 3030 
Q 2388 3097 2138 3097 
Q 1578 3097 1268 2742 
Q 959 2388 959 1747 
Q 959 1106 1268 751 
Q 1578 397 2138 397 
Q 2388 397 2633 464 
Q 2878 531 3122 666 
L 3122 134 
Q 2881 22 2623 -34 
Q 2366 -91 2075 -91 
Q 1284 -91 818 406 
Q 353 903 353 1747 
Q 353 2603 823 3093 
Q 1294 3584 2113 3584 
Q 2378 3584 2631 3529 
Q 2884 3475 3122 3366 
z
" transform="scale(0.015625)"/>
     </defs>
     <use xlink:href="#DejaVuSans-4d"/>
     <use xlink:href="#DejaVuSans-50" x="86.279297"/>
     <use xlink:href="#DejaVuSans-42" x="146.582031"/>
     <use xlink:href="#DejaVuSans-20" x="215.185547"/>
     <use xlink:href="#DejaVuSans-65" x="246.972656"/>
     <use xlink:href="#DejaVuSans-78" x="306.746094"/>
     <use xlink:href="#DejaVuSans-74" x="365.925781"/>
     <use xlink:href="#DejaVuSans-72" x="405.134766"/>
     <use xlink:href="#DejaVuSans-61" x="446.248047"/>
     <use xlink:href="#DejaVuSans-63" x="507.527344"/>
     <use xlink:href="#DejaVuSans-74" x="562.507812"/>
     <use xlink:href="#DejaVuSans-69" x="601.716797"/>
     <use xlink:href="#DejaVuSans-6f" x="629.5"/>
     <use xlink:href="#DejaVuSans-6e" x="690.681641"/>
    </g>
    <!-- ≥90% coverage (N≈2500) -->
    <g style="fill: #1c2333" transform="translate(35.409562 209.612896) scale(0.11 -0.11)">
     <defs>
      <path id="DejaVuSans-2265" d="M 678 3175 
L 678 3725 
L 4684 2578 
L 4684 2047 
L 678 897 
L 678 1453 
L 3681 2309 
L 678 3175 
z
M 4684 531 
L 4684 0 
L 678 0 
L 678 531 
L 4684 531 
z
" transform="scale(0.015625)"/>
      <path id="DejaVuSans-39" d="M 703 97 
L 703 672 
Q 941 559 1184 500 
Q 1428 441 1663 441 
Q 2288 441 2617 861 
Q 2947 1281 2994 2138 
Q 2813 1869 2534 1725 
Q 2256 1581 1919 1581 
Q 1219 1581 811 2004 
Q 403 2428 403 3163 
Q 403 3881 828 4315 
Q 1253 4750 1959 4750 
Q 2769 4750 3195 4129 
Q 3622 3509 3622 2328 
Q 3622 1225 3098 567 
Q 2575 -91 1691 -91 
Q 1453 -91 1209 -44 
Q 966 3 703 97 
z
M 1959 2075 
Q 2384 2075 2632 2365 
Q 2881 2656 2881 3163 
Q 2881 3666 2632 3958 
Q 2384 4250 1959 4250 
Q 1534 4250 1286 3958 
Q 1038 3666 1038 3163 
Q 1038 2656 1286 2365 
Q 1534 2075 1959 2075 
z
" transform="scale(0.015625)"/>
      <path id="DejaVuSans-25" d="M 4653 2053 
Q 4381 2053 4226 1822 
Q 4072 1591 4072 1178 
Q 4072 772 4226 539 
Q 4381 306 4653 306 
Q 4919 306 5073 539 
Q 5228 772 5228 1178 
Q 5228 1588 5073 1820 
Q 4919 2053 4653 2053 
z
M 4653 2450 
Q 5147 2450 5437 2106 
Q 5728 1763 5728 1178 
Q 5728 594 5436 251 
Q 5144 -91 4653 -91 
Q 4153 -91 3862 251 
Q 3572 594 3572 1178 
Q 3572 1766 3864 2108 
Q 4156 2450 4653 2450 
z
M 1428 4353 
Q 1159 4353 1004 4120 
Q 850 3888 850 3481 
Q 850 3069 1003 2837 
Q 1156 2606 1428 2606 
Q 1700 2606 1854 2837 
Q 2009 3069 2009 3481 
Q 2009 3884 1853 4118 
Q 1697 4353 1428 4353 
z
M 4250 4750 
L 4750 4750 
L 1831 -91 
L 1331 -91 
L 4250 4750 
z
M 1428 4750 
Q 1922 4750 2215 4408 
Q 2509 4066 2509 3481 
Q 2509 2891 2217 2550 
Q 1925 2209 1428 2209 
Q 931 2209 642 2551 
Q 353 2894 353 3481 
Q 353 4063 643 4406 
Q 934 4750 1428 4750 
z
" transform="scale(0.015625)"/>
      <path id="DejaVuSans-76" d="M 191 3500 
L 800 3500 
L 1894 563 
L 2988 3500 
L 3597 3500 
L 2284 0 
L 1503 0 
L 191 3500 
z
" transform="scale(0.015625)"/>
      <path id="DejaVuSans-67" d="M 2906 1791 
Q 2906 2416 2648 2759 
Q 2391 3103 1925 3103 
Q 1463 3103 1205 2759 
Q 947 2416 947 1791 
Q 947 1169 1205 825 
Q 1463 481 1925 481 
Q 2391 481 2648 825 
Q 2906 1169 2906 1791 
z
M 3481 434 
Q 3481 -459 3084 -895 
Q 2688 -1331 1869 -1331 
Q 1566 -1331 1297 -1286 
Q 1028 -1241 775 -1147 
L 775 -588 
Q 1028 -725 1275 -790 
Q 1522 -856 1778 -856 
Q 2344 -856 2625 -561 
Q 2906 -266 2906 331 
L 2906 616 
Q 2728 306 2450 153 
Q 2172 0 1784 0 
Q 1141 0 747 490 
Q 353 981 353 1791 
Q 353 2603 747 3093 
Q 1141 3584 1784 3584 
Q 2172 3584 2450 3431 
Q 2728 3278 2906 2969 
L 2906 3500 
L 3481 3500 
L 3481 434 
z
" transform="scale(0.015625)"/>
      <path id="DejaVuSans-28" d="M 1984 4856 
Q 1566 4138 1362 3434 
Q 1159 2731 1159 2009 
Q 1159 1288 1364 580 
Q 1569 -128 1984 -844 
L 1484 -844 
Q 1016 -109 783 600 
Q 550 1309 550 2009 
Q 550 2706 781 3412 
Q 1013 4119 1484 4856 
L 1984 4856 
z
" transform="scale(0.015625)"/>
      <path id="DejaVuSans-2248" d="M 4684 1947 
L 4684 1388 
Q 4356 1144 4076 1036 
Q 3797 928 3494 928 
Q 3150 928 2694 1113 
Q 2663 1125 2641 1134 
Q 2622 1141 2575 1159 
Q 2091 1350 1797 1350 
Q 1522 1350 1253 1231 
Q 984 1113 678 850 
L 678 1409 
Q 1006 1653 1286 1761 
Q 1566 1869 1869 1869 
Q 2213 1869 2672 1684 
Q 2706 1669 2722 1663 
Q 2741 1656 2788 1638 
Q 3272 1447 3566 1447 
Q 3834 1447 4098 1564 
Q 4363 1681 4684 1947 
z
M 4684 3163 
L 4684 2606 
Q 4356 2359 4076 2251 
Q 3797 2144 3494 2144 
Q 3150 2144 2694 2328 
Q 2663 2341 2641 2350 
Q 2622 2356 2575 2375 
Q 2091 2566 1797 2566 
Q 1522 2566 1253 2447 
Q 984 2328 678 2069 
L 678 2625 
Q 1006 2869 1286 2976 
Q 1566 3084 1869 3084 
Q 2213 3084 2672 2900 
Q 2703 2888 2719 2881 
Q 2741 2872 2788 2853 
Q 3272 2663 3566 2663 
Q 3834 2663 4098 2780 
Q 4363 2897 4684 3163 
z
" transform="scale(0.015625)"/>
      <path id="DejaVuSans-32" d="M 1228 531 
L 3431 531 
L 3431 0 
L 469 0 
L 469 531 
Q 828 903 1448 1529 
Q 2069 2156 2228 2338 
Q 2531 2678 2651 2914 
Q 2772 3150 2772 3378 
Q 2772 3750 2511 3984 
Q 2250 4219 1831 4219 
Q 1534 4219 1204 4116 
Q 875 4013 500 3803 
L 500 4441 
Q 881 4594 1212 4672 
Q 1544 4750 1819 4750 
Q 2544 4750 2975 4387 
Q 3406 4025 3406 3419 
Q 3406 3131 3298 2873 
Q 3191 2616 2906 2266 
Q 2828 2175 2409 1742 
Q 1991 1309 1228 531 
z
" transform="scale(0.015625)"/>
      <path id="DejaVuSans-35" d="M 691 4666 
L 3169 4666 
L 3169 4134 
L 1269 4134 
L 1269 2991 
Q 1406 3038 1543 3061 
Q 1681 3084 1819 3084 
Q 2600 3084 3056 2656 
Q 3513 2228 3513 1497 
Q 3513 744 3044 326 
Q 2575 -91 1722 -91 
Q 1428 -91 1123 -41 
Q 819 9 494 109 
L 494 744 
Q 775 591 1075 516 
Q 1375 441 1709 441 
Q 2250 441 2565 725 
Q 2881 1009 2881 1497 
Q 2881 1984 2565 2268 
Q 2250 2553 1709 2553 
Q 1456 2553 1204 2497 
Q 953 2441 691 2322 
L 691 4666 
z
" transform="scale(0.015625)"/>
      <path id="DejaVuSans-29" d="M 513 4856 
L 1013 4856 
Q 1481 4119 1714 3412 
Q 1947 2706 1947 2009 
Q 1947 1309 1714 600 
Q 1481 -109 1013 -844 
L 513 -844 
Q 928 -128 1133 580 
Q 1338 1288 1338 2009 
Q 1338 2731 1133 3434 
Q 928 4138 513 4856 
z
" transform="scale(0.015625)"/>
     </defs>
     <use xlink:href="#DejaVuSans-2265"/>
     <use xlink:href="#DejaVuSans-39" x="83.789062"/>
     <use xlink:href="#DejaVuSans-30" x="147.412109"/>
     <use xlink:href="#DejaVuSans-25" x="211.035156"/>
     <use xlink:href="#DejaVuSans-20" x="306.054688"/>
     <use xlink:href="#DejaVuSans-63" x="337.841797"/>
     <use xlink:href="#DejaVuSans-6f" x="392.822266"/>
     <use xlink:href="#DejaVuSans-76" x="454.003906"/>
     <use xlink:href="#DejaVuSans-65" x="513.183594"/>
     <use xlink:href="#DejaVuSans-72" x="574.707031"/>
     <use xlink:href="#DejaVuSans-61" x="615.820312"/>
     <use xlink:href="#DejaVuSans-67" x="677.099609"/>
     <use xlink:href="#DejaVuSans-65" x="740.576172"/>
     <use xlink:href="#DejaVuSans-20" x="802.099609"/>
     <use xlink:href="#DejaVuSans-28" x="833.886719"/>
     <use xlink:href="#DejaVuSans-4e" x="872.900391"/>
     <use xlink:href="#DejaVuSans-2248" x="947.705078"/>
     <use xlink:href="#DejaVuSans-32" x="1031.494141"/>
     <use xlink:href="#DejaVuSans-35" x="1095.117188"/>
     <use xlink:href="#DejaVuSans-30" x="1158.740234"/>
     <use xlink:href="#DejaVuSans-30" x="1222.363281"/>
     <use xlink:href="#DejaVuSans-29" x="1285.986328"/>
    </g>
   </g>
   <g id="text_3">
    <!-- Preprocessing -->
    <g style="fill: #1c2333" transform="translate(247.822734 153.080636) scale(0.135 -0.135)">
     <defs>
      <path id="DejaVuSans-Bold-50" d="M 588 4666 
L 2584 4666 
Q 3475 4666 3951 4270 
Q 4428 3875 4428 3144 
Q 4428 2409 3951 2014 
Q 3475 1619 2584 1619 
L 1791 1619 
L 1791 0 
L 588 0 
L 588 4666 
z
M 1791 3794 
L 1791 2491 
L 2456 2491 
Q 2806 2491 2997 2661 
Q 3188 2831 3188 3144 
Q 3188 3456 2997 3625 
Q 2806 3794 2456 3794 
L 1791 3794 
z
" transform="scale(0.015625)"/>
      <path id="DejaVuSans-Bold-72" d="M 3138 2547 
Q 2991 2616 2845 2648 
Q 2700 2681 2553 2681 
Q 2122 2681 1889 2404 
Q 1656 2128 1656 1613 
L 1656 0 
L 538 0 
L 538 3500 
L 1656 3500 
L 1656 2925 
Q 1872 3269 2151 3426 
Q 2431 3584 2822 3584 
Q 2878 3584 2943 3579 
Q 3009 3575 3134 3559 
L 3138 2547 
z
" transform="scale(0.015625)"/>
      <path id="DejaVuSans-Bold-65" d="M 4031 1759 
L 4031 1441 
L 1416 1441 
Q 1456 1047 1700 850 
Q 1944 653 2381 653 
Q 2734 653 3104 758 
Q 3475 863 3866 1075 
L 3866 213 
Q 3469 63 3072 -14 
Q 2675 -91 2278 -91 
Q 1328 -91 801 392 
Q 275 875 275 1747 
Q 275 2603 792 3093 
Q 1309 3584 2216 3584 
Q 3041 3584 3536 3087 
Q 4031 2591 4031 1759 
z
M 2881 2131 
Q 2881 2450 2695 2645 
Q 2509 2841 2209 2841 
Q 1884 2841 1681 2658 
Q 1478 2475 1428 2131 
L 2881 2131 
z
" transform="scale(0.015625)"/>
      <path id="DejaVuSans-Bold-70" d="M 1656 506 
L 1656 -1331 
L 538 -1331 
L 538 3500 
L 1656 3500 
L 1656 2988 
Q 1888 3294 2169 3439 
Q 2450 3584 2816 3584 
Q 3463 3584 3878 3070 
Q 4294 2556 4294 1747 
Q 4294 938 3878 423 
Q 3463 -91 2816 -91 
Q 2450 -91 2169 54 
Q 1888 200 1656 506 
z
M 2400 2772 
Q 2041 2772 1848 2508 
Q 1656 2244 1656 1747 
Q 1656 1250 1848 986 
Q 2041 722 2400 722 
Q 2759 722 2948 984 
Q 3138 1247 3138 1747 
Q 3138 2247 2948 2509 
Q 2759 2772 2400 2772 
z
" transform="scale(0.015625)"/>
      <path id="DejaVuSans-Bold-63" d="M 3366 3391 
L 3366 2478 
Q 3138 2634 2908 2709 
Q 2678 2784 2431 2784 
Q 1963 2784 1702 2511 
Q 1441 2238 1441 1747 
Q 1441 1256 1702 982 
Q 1963 709 2431 709 
Q 2694 709 2930 787 
Q 3166 866 3366 1019 
L 3366 103 
Q 3103 6 2833 -42 
Q 2563 -91 2291 -91 
Q 1344 -91 809 395 
Q 275 881 275 1747 
Q 275 2613 809 3098 
Q 1344 3584 2291 3584 
Q 2566 3584 2833 3536 
Q 3100 3488 3366 3391 
z
" transform="scale(0.015625)"/>
      <path id="DejaVuSans-Bold-73" d="M 3272 3391 
L 3272 2541 
Q 2913 2691 2578 2766 
Q 2244 2841 1947 2841 
Q 1628 2841 1473 2761 
Q 1319 2681 1319 2516 
Q 1319 2381 1436 2309 
Q 1553 2238 1856 2203 
L 2053 2175 
Q 2913 2066 3209 1816 
Q 3506 1566 3506 1031 
Q 3506 472 3093 190 
Q 2681 -91 1863 -91 
Q 1516 -91 1145 -36 
Q 775 19 384 128 
L 384 978 
Q 719 816 1070 734 
Q 1422 653 1784 653 
Q 2113 653 2278 743 
Q 2444 834 2444 1013 
Q 2444 1163 2330 1236 
Q 2216 1309 1875 1350 
L 1678 1375 
Q 931 1469 631 1722 
Q 331 1975 331 2491 
Q 331 3047 712 3315 
Q 1094 3584 1881 3584 
Q 2191 3584 2531 3537 
Q 2872 3491 3272 3391 
z
" transform="scale(0.015625)"/>
      <path id="DejaVuSans-Bold-67" d="M 2919 594 
Q 2688 288 2409 144 
Q 2131 0 1766 0 
Q 1125 0 706 504 
Q 288 1009 288 1791 
Q 288 2575 706 3076 
Q 1125 3578 1766 3578 
Q 2131 3578 2409 3434 
Q 2688 3291 2919 2981 
L 2919 3500 
L 4044 3500 
L 4044 353 
Q 4044 -491 3511 -936 
Q 2978 -1381 1966 -1381 
Q 1638 -1381 1331 -1331 
Q 1025 -1281 716 -1178 
L 716 -306 
Q 1009 -475 1290 -558 
Q 1572 -641 1856 -641 
Q 2406 -641 2662 -400 
Q 2919 -159 2919 353 
L 2919 594 
z
M 2181 2772 
Q 1834 2772 1640 2515 
Q 1447 2259 1447 1791 
Q 1447 1309 1634 1061 
Q 1822 813 2181 813 
Q 2531 813 2725 1069 
Q 2919 1325 2919 1791 
Q 2919 2259 2725 2515 
Q 2531 2772 2181 2772 
z
" transform="scale(0.015625)"/>
     </defs>
     <use xlink:href="#DejaVuSans-Bold-50"/>
     <use xlink:href="#DejaVuSans-Bold-72" x="73.291016"/>
     <use xlink:href="#DejaVuSans-Bold-65" x="122.607422"/>
     <use xlink:href="#DejaVuSans-Bold-70" x="190.429688"/>
     <use xlink:href="#DejaVuSans-Bold-72" x="262.011719"/>
     <use xlink:href="#DejaVuSans-Bold-6f" x="311.328125"/>
     <use xlink:href="#DejaVuSans-Bold-63" x="380.029297"/>
     <use xlink:href="#DejaVuSans-Bold-65" x="439.306641"/>
     <use xlink:href="#DejaVuSans-Bold-73" x="507.128906"/>
     <use xlink:href="#DejaVuSans-Bold-73" x="566.650391"/>
     <use xlink:href="#DejaVuSans-Bold-69" x="626.171875"/>
     <use xlink:href="#DejaVuSans-Bold-6e" x="660.449219"/>
     <use xlink:href="#DejaVuSans-Bold-67" x="731.640625"/>
    </g>
   </g>
   <g id="text_4">
    <!-- Select features -->
    <g style="fill: #1c2333" transform="translate(260.604375 178.818912) scale(0.11 -0.11)">
     <defs>
      <path id="DejaVuSans-66" d="M 2375 4863 
L 2375 4384 
L 1825 4384 
Q 1516 4384 1395 4259 
Q 1275 4134 1275 3809 
L 1275 3500 
L 2222 3500 
L 2222 3053 
L 1275 3053 
L 1275 0 
L 697 0 
L 697 3053 
L 147 3053 
L 147 3500 
L 697 3500 
L 697 3744 
Q 697 4328 969 4595 
Q 1241 4863 1831 4863 
L 2375 4863 
z
" transform="scale(0.015625)"/>
     </defs>
     <use xlink:href="#DejaVuSans-53"/>
     <use xlink:href="#DejaVuSans-65" x="63.476562"/>
     <use xlink:href="#DejaVuSans-6c" x="125"/>
     <use xlink:href="#DejaVuSans-65" x="152.783203"/>
     <use xlink:href="#DejaVuSans-63" x="214.306641"/>
     <use xlink:href="#DejaVuSans-74" x="269.287109"/>
     <use xlink:href="#DejaVuSans-20" x="308.496094"/>
     <use xlink:href="#DejaVuSans-66" x="340.283203"/>
     <use xlink:href="#DejaVuSans-65" x="375.488281"/>
     <use xlink:href="#DejaVuSans-61" x="437.011719"/>
     <use xlink:href="#DejaVuSans-74" x="498.291016"/>
     <use xlink:href="#DejaVuSans-75" x="537.5"/>
     <use xlink:href="#DejaVuSans-72" x="600.878906"/>
     <use xlink:href="#DejaVuSans-65" x="639.742188"/>
     <use xlink:href="#DejaVuSans-73" x="701.265625"/>
    </g>
    <!-- Standardize (z-score) -->
    <g style="fill: #1c2333" transform="translate(243.532031 191.136506) scale(0.11 -0.11)">
     <defs>
      <path id="DejaVuSans-64" d="M 2906 2969 
L 2906 4863 
L 3481 4863 
L 3481 0 
L 2906 0 
L 2906 525 
Q 2725 213 2448 61 
Q 2172 -91 1784 -91 
Q 1150 -91 751 415 
Q 353 922 353 1747 
Q 353 2572 751 3078 
Q 1150 3584 1784 3584 
Q 2172 3584 2448 3432 
Q 2725 3281 2906 2969 
z
M 947 1747 
Q 947 1113 1208 752 
Q 1469 391 1925 391 
Q 2381 391 2643 752 
Q 2906 1113 2906 1747 
Q 2906 2381 2643 2742 
Q 2381 3103 1925 3103 
Q 1469 3103 1208 2742 
Q 947 2381 947 1747 
z
" transform="scale(0.015625)"/>
      <path id="DejaVuSans-7a" d="M 353 3500 
L 3084 3500 
L 3084 2975 
L 922 459 
L 3084 459 
L 3084 0 
L 275 0 
L 275 525 
L 2438 3041 
L 353 3041 
L 353 3500 
z
" transform="scale(0.015625)"/>
      <path id="DejaVuSans-2d" d="M 313 2009 
L 1997 2009 
L 1997 1497 
L 313 1497 
L 313 2009 
z
" transform="scale(0.015625)"/>
     </defs>
     <use xlink:href="#DejaVuSans-53"/>
     <use xlink:href="#DejaVuSans-74" x="63.476562"/>
     <use xlink:href="#DejaVuSans-61" x="102.685547"/>
     <use xlink:href="#DejaVuSans-6e" x="163.964844"/>
     <use xlink:href="#DejaVuSans-64" x="227.34375"/>
     <use xlink:href="#DejaVuSans-61" x="290.820312"/>
     <use xlink:href="#DejaVuSans-72" x="352.099609"/>
     <use xlink:href="#DejaVuSans-64" x="391.462891"/>
     <use xlink:href="#DejaVuSans-69" x="454.939453"/>
     <use xlink:href="#DejaVuSans-7a" x="482.722656"/>
     <use xlink:href="#DejaVuSans-65" x="535.212891"/>
     <use xlink:href="#DejaVuSans-20" x="596.736328"/>
     <use xlink:href="#DejaVuSans-28" x="628.523438"/>
     <use xlink:href="#DejaVuSans-7a" x="667.537109"/>
     <use xlink:href="#DejaVuSans-2d" x="720.027344"/>
     <use xlink:href="#DejaVuSans-73" x="756.111328"/>
     <use xlink:href="#DejaVuSans-63" x="808.210938"/>
     <use xlink:href="#DejaVuSans-6f" x="863.191406"/>
     <use xlink:href="#DejaVuSans-72" x="924.373047"/>
     <use xlink:href="#DejaVuSans-65" x="963.236328"/>
     <use xlink:href="#DejaVuSans-29" x="1024.759766"/>
    </g>
    <!-- QC &amp; coverage checks -->
    <g style="fill: #1c2333" transform="translate(239.832422 203.4541) scale(0.11 -0.11)">
     <defs>
      <path id="DejaVuSans-51" d="M 2522 4238 
Q 1834 4238 1429 3725 
Q 1025 3213 1025 2328 
Q 1025 1447 1429 934 
Q 1834 422 2522 422 
Q 3209 422 3611 934 
Q 4013 1447 4013 2328 
Q 4013 3213 3611 3725 
Q 3209 4238 2522 4238 
z
M 3406 84 
L 4238 -825 
L 3475 -825 
L 2784 -78 
Q 2681 -84 2626 -87 
Q 2572 -91 2522 -91 
Q 1538 -91 948 567 
Q 359 1225 359 2328 
Q 359 3434 948 4092 
Q 1538 4750 2522 4750 
Q 3503 4750 4090 4092 
Q 4678 3434 4678 2328 
Q 4678 1516 4351 937 
Q 4025 359 3406 84 
z
" transform="scale(0.015625)"/>
      <path id="DejaVuSans-43" d="M 4122 4306 
L 4122 3641 
Q 3803 3938 3442 4084 
Q 3081 4231 2675 4231 
Q 1875 4231 1450 3742 
Q 1025 3253 1025 2328 
Q 1025 1406 1450 917 
Q 1875 428 2675 428 
Q 3081 428 3442 575 
Q 3803 722 4122 1019 
L 4122 359 
Q 3791 134 3420 21 
Q 3050 -91 2638 -91 
Q 1578 -91 968 557 
Q 359 1206 359 2328 
Q 359 3453 968 4101 
Q 1578 4750 2638 4750 
Q 3056 4750 3426 4639 
Q 3797 4528 4122 4306 
z
" transform="scale(0.015625)"/>
      <path id="DejaVuSans-26" d="M 1556 2509 
Q 1272 2256 1139 2004 
Q 1006 1753 1006 1478 
Q 1006 1022 1337 719 
Q 1669 416 2169 416 
Q 2466 416 2725 514 
Q 2984 613 3213 813 
L 1556 2509 
z
M 1997 2859 
L 3584 1234 
Q 3769 1513 3872 1830 
Q 3975 2147 3994 2503 
L 4575 2503 
Q 4538 2091 4375 1687 
Q 4213 1284 3922 891 
L 4794 0 
L 4006 0 
L 3559 459 
Q 3234 181 2878 45 
Q 2522 -91 2113 -91 
Q 1359 -91 881 339 
Q 403 769 403 1441 
Q 403 1841 612 2192 
Q 822 2544 1241 2853 
Q 1091 3050 1012 3245 
Q 934 3441 934 3628 
Q 934 4134 1281 4442 
Q 1628 4750 2203 4750 
Q 2463 4750 2720 4694 
Q 2978 4638 3244 4525 
L 3244 3956 
Q 2972 4103 2725 4179 
Q 2478 4256 2266 4256 
Q 1938 4256 1733 4082 
Q 1528 3909 1528 3634 
Q 1528 3475 1620 3314 
Q 1713 3153 1997 2859 
z
" transform="scale(0.015625)"/>
      <path id="DejaVuSans-6b" d="M 581 4863 
L 1159 4863 
L 1159 1991 
L 2875 3500 
L 3609 3500 
L 1753 1863 
L 3688 0 
L 2938 0 
L 1159 1709 
L 1159 0 
L 581 0 
L 581 4863 
z
" transform="scale(0.015625)"/>
     </defs>
     <use xlink:href="#DejaVuSans-51"/>
     <use xlink:href="#DejaVuSans-43" x="78.710938"/>
     <use xlink:href="#DejaVuSans-20" x="148.535156"/>
     <use xlink:href="#DejaVuSans-26" x="180.322266"/>
     <use xlink:href="#DejaVuSans-20" x="258.300781"/>
     <use xlink:href="#DejaVuSans-63" x="290.087891"/>
     <use xlink:href="#DejaVuSans-6f" x="345.068359"/>
     <use xlink:href="#DejaVuSans-76" x="406.25"/>
     <use xlink:href="#DejaVuSans-65" x="465.429688"/>
     <use xlink:href="#DejaVuSans-72" x="526.953125"/>
     <use xlink:href="#DejaVuSans-61" x="568.066406"/>
     <use xlink:href="#DejaVuSans-67" x="629.345703"/>
     <use xlink:href="#DejaVuSans-65" x="692.822266"/>
     <use xlink:href="#DejaVuSans-20" x="754.345703"/>
     <use xlink:href="#DejaVuSans-63" x="786.132812"/>
     <use xlink:href="#DejaVuSans-68" x="841.113281"/>
     <use xlink:href="#DejaVuSans-65" x="904.492188"/>
     <use xlink:href="#DejaVuSans-63" x="966.015625"/>
     <use xlink:href="#DejaVuSans-6b" x="1020.996094"/>
     <use xlink:href="#DejaVuSans-73" x="1078.90625"/>
    </g>
   </g>
   <g id="text_5">
    <!-- Data Split -->
    <g style="fill: #1c2333" transform="translate(457.955086 153.080636) scale(0.135 -0.135)">
     <use xlink:href="#DejaVuSans-Bold-44"/>
     <use xlink:href="#DejaVuSans-Bold-61" x="83.007812"/>
     <use xlink:href="#DejaVuSans-Bold-74" x="150.488281"/>
     <use xlink:href="#DejaVuSans-Bold-61" x="198.291016"/>
     <use xlink:href="#DejaVuSans-Bold-20" x="265.771484"/>
     <use xlink:href="#DejaVuSans-Bold-53" x="300.585938"/>
     <use xlink:href="#DejaVuSans-Bold-70" x="372.607422"/>
     <use xlink:href="#DejaVuSans-Bold-6c" x="444.189453"/>
     <use xlink:href="#DejaVuSans-Bold-69" x="478.466797"/>
     <use xlink:href="#DejaVuSans-Bold-74" x="512.744141"/>
    </g>
   </g>
   <g id="text_6">
    <!-- Train / Val / Test -->
    <g style="fill: #1c2333" transform="translate(452.837 184.977709) scale(0.11 -0.11)">
     <defs>
      <path id="DejaVuSans-2f" d="M 1625 4666 
L 2156 4666 
L 531 -594 
L 0 -594 
L 1625 4666 
z
" transform="scale(0.015625)"/>
      <path id="DejaVuSans-56" d="M 1831 0 
L 50 4666 
L 709 4666 
L 2188 738 
L 3669 4666 
L 4325 4666 
L 2547 0 
L 1831 0 
z
" transform="scale(0.015625)"/>
     </defs>
     <use xlink:href="#DejaVuSans-54"/>
     <use xlink:href="#DejaVuSans-72" x="46.333984"/>
     <use xlink:href="#DejaVuSans-61" x="87.447266"/>
     <use xlink:href="#DejaVuSans-69" x="148.726562"/>
     <use xlink:href="#DejaVuSans-6e" x="176.509766"/>
     <use xlink:href="#DejaVuSans-20" x="239.888672"/>
     <use xlink:href="#DejaVuSans-2f" x="271.675781"/>
     <use xlink:href="#DejaVuSans-20" x="305.367188"/>
     <use xlink:href="#DejaVuSans-56" x="337.154297"/>
     <use xlink:href="#DejaVuSans-61" x="397.8125"/>
     <use xlink:href="#DejaVuSans-6c" x="459.091797"/>
     <use xlink:href="#DejaVuSans-20" x="486.875"/>
     <use xlink:href="#DejaVuSans-2f" x="518.662109"/>
     <use xlink:href="#DejaVuSans-20" x="552.353516"/>
     <use xlink:href="#DejaVuSans-54" x="584.140625"/>
     <use xlink:href="#DejaVuSans-65" x="628.224609"/>
     <use xlink:href="#DejaVuSans-73" x="689.748047"/>
     <use xlink:href="#DejaVuSans-74" x="741.847656"/>
    </g>
    <!-- by subhalo ID -->
    <g style="fill: #1c2333" transform="translate(458.099812 197.295303) scale(0.11 -0.11)">
     <defs>
      <path id="DejaVuSans-62" d="M 3116 1747 
Q 3116 2381 2855 2742 
Q 2594 3103 2138 3103 
Q 1681 3103 1420 2742 
Q 1159 2381 1159 1747 
Q 1159 1113 1420 752 
Q 1681 391 2138 391 
Q 2594 391 2855 752 
Q 3116 1113 3116 1747 
z
M 1159 2969 
Q 1341 3281 1617 3432 
Q 1894 3584 2278 3584 
Q 2916 3584 3314 3078 
Q 3713 2572 3713 1747 
Q 3713 922 3314 415 
Q 2916 -91 2278 -91 
Q 1894 -91 1617 61 
Q 1341 213 1159 525 
L 1159 0 
L 581 0 
L 581 4863 
L 1159 4863 
L 1159 2969 
z
" transform="scale(0.015625)"/>
      <path id="DejaVuSans-79" d="M 2059 -325 
Q 1816 -950 1584 -1140 
Q 1353 -1331 966 -1331 
L 506 -1331 
L 506 -850 
L 844 -850 
Q 1081 -850 1212 -737 
Q 1344 -625 1503 -206 
L 1606 56 
L 191 3500 
L 800 3500 
L 1894 763 
L 2988 3500 
L 3597 3500 
L 2059 -325 
z
" transform="scale(0.015625)"/>
      <path id="DejaVuSans-44" d="M 1259 4147 
L 1259 519 
L 2022 519 
Q 2988 519 3436 956 
Q 3884 1394 3884 2338 
Q 3884 3275 3436 3711 
Q 2988 4147 2022 4147 
L 1259 4147 
z
M 628 4666 
L 1925 4666 
Q 3281 4666 3915 4102 
Q 4550 3538 4550 2338 
Q 4550 1131 3912 565 
Q 3275 0 1925 0 
L 628 0 
L 628 4666 
z
" transform="scale(0.015625)"/>
     </defs>
     <use xlink:href="#DejaVuSans-62"/>
     <use xlink:href="#DejaVuSans-79" x="63.476562"/>
     <use xlink:href="#DejaVuSans-20" x="122.65625"/>
     <use xlink:href="#DejaVuSans-73" x="154.443359"/>
     <use xlink:href="#DejaVuSans-75" x="206.542969"/>
     <use xlink:href="#DejaVuSans-62" x="269.921875"/>
     <use xlink:href="#DejaVuSans-68" x="333.398438"/>
     <use xlink:href="#DejaVuSans-61" x="396.777344"/>
     <use xlink:href="#DejaVuSans-6c" x="458.056641"/>
     <use xlink:href="#DejaVuSans-6f" x="485.839844"/>
     <use xlink:href="#DejaVuSans-20" x="547.021484"/>
     <use xlink:href="#DejaVuSans-49" x="578.808594"/>
     <use xlink:href="#DejaVuSans-44" x="608.300781"/>
    </g>
   </g>
   <g id="text_7">
    <!-- Modeling -->
    <g style="fill: #1c2333" transform="translate(654.514664 153.080636) scale(0.135 -0.135)">
     <defs>
      <path id="DejaVuSans-Bold-4d" d="M 588 4666 
L 2119 4666 
L 3181 2169 
L 4250 4666 
L 5778 4666 
L 5778 0 
L 4641 0 
L 4641 3413 
L 3566 897 
L 2803 897 
L 1728 3413 
L 1728 0 
L 588 0 
L 588 4666 
z
" transform="scale(0.015625)"/>
      <path id="DejaVuSans-Bold-64" d="M 2919 2988 
L 2919 4863 
L 4044 4863 
L 4044 0 
L 2919 0 
L 2919 506 
Q 2688 197 2409 53 
Q 2131 -91 1766 -91 
Q 1119 -91 703 423 
Q 288 938 288 1747 
Q 288 2556 703 3070 
Q 1119 3584 1766 3584 
Q 2128 3584 2408 3439 
Q 2688 3294 2919 2988 
z
M 2181 722 
Q 2541 722 2730 984 
Q 2919 1247 2919 1747 
Q 2919 2247 2730 2509 
Q 2541 2772 2181 2772 
Q 1825 2772 1636 2509 
Q 1447 2247 1447 1747 
Q 1447 1247 1636 984 
Q 1825 722 2181 722 
z
" transform="scale(0.015625)"/>
     </defs>
     <use xlink:href="#DejaVuSans-Bold-4d"/>
     <use xlink:href="#DejaVuSans-Bold-6f" x="99.511719"/>
     <use xlink:href="#DejaVuSans-Bold-64" x="168.212891"/>
     <use xlink:href="#DejaVuSans-Bold-65" x="239.794922"/>
     <use xlink:href="#DejaVuSans-Bold-6c" x="307.617188"/>
     <use xlink:href="#DejaVuSans-Bold-69" x="341.894531"/>
     <use xlink:href="#DejaVuSans-Bold-6e" x="376.171875"/>
     <use xlink:href="#DejaVuSans-Bold-67" x="447.363281"/>
    </g>
   </g>
   <g id="text_8">
    <!-- LSTM forecaster -->
    <g style="fill: #1c2333" transform="translate(645.250953 184.977709) scale(0.11 -0.11)">
     <defs>
      <path id="DejaVuSans-4c" d="M 628 4666 
L 1259 4666 
L 1259 531 
L 3531 531 
L 3531 0 
L 628 0 
L 628 4666 
z
" transform="scale(0.015625)"/>
     </defs>
     <use xlink:href="#DejaVuSans-4c"/>
     <use xlink:href="#DejaVuSans-53" x="55.712891"/>
     <use xlink:href="#DejaVuSans-54" x="119.189453"/>
     <use xlink:href="#DejaVuSans-4d" x="180.273438"/>
     <use xlink:href="#DejaVuSans-20" x="266.552734"/>
     <use xlink:href="#DejaVuSans-66" x="298.339844"/>
     <use xlink:href="#DejaVuSans-6f" x="333.544922"/>
     <use xlink:href="#DejaVuSans-72" x="394.726562"/>
     <use xlink:href="#DejaVuSans-65" x="433.589844"/>
     <use xlink:href="#DejaVuSans-63" x="495.113281"/>
     <use xlink:href="#DejaVuSans-61" x="550.09375"/>
     <use xlink:href="#DejaVuSans-73" x="611.373047"/>
     <use xlink:href="#DejaVuSans-74" x="663.472656"/>
     <use xlink:href="#DejaVuSans-65" x="702.681641"/>
     <use xlink:href="#DejaVuSans-72" x="764.205078"/>
    </g>
    <!-- Horizons Δ = {1,3,5} -->
    <g style="fill: #1c2333" transform="translate(631.042906 197.295303) scale(0.11 -0.11)">
     <defs>
      <path id="DejaVuSans-48" d="M 628 4666 
L 1259 4666 
L 1259 2753 
L 3553 2753 
L 3553 4666 
L 4184 4666 
L 4184 0 
L 3553 0 
L 3553 2222 
L 1259 2222 
L 1259 0 
L 628 0 
L 628 4666 
z
" transform="scale(0.015625)"/>
      <path id="DejaVuSans-394" d="M 2188 4044 
L 906 525 
L 3472 525 
L 2188 4044 
z
M 50 0 
L 1831 4666 
L 2547 4666 
L 4325 0 
L 50 0 
z
" transform="scale(0.015625)"/>
      <path id="DejaVuSans-3d" d="M 678 2906 
L 4684 2906 
L 4684 2381 
L 678 2381 
L 678 2906 
z
M 678 1631 
L 4684 1631 
L 4684 1100 
L 678 1100 
L 678 1631 
z
" transform="scale(0.015625)"/>
      <path id="DejaVuSans-7b" d="M 3272 -594 
L 3272 -1044 
L 3078 -1044 
Q 2300 -1044 2036 -812 
Q 1772 -581 1772 109 
L 1772 856 
Q 1772 1328 1603 1509 
Q 1434 1691 991 1691 
L 800 1691 
L 800 2138 
L 991 2138 
Q 1438 2138 1605 2317 
Q 1772 2497 1772 2963 
L 1772 3713 
Q 1772 4403 2036 4633 
Q 2300 4863 3078 4863 
L 3272 4863 
L 3272 4416 
L 3059 4416 
Q 2619 4416 2484 4278 
Q 2350 4141 2350 3700 
L 2350 2925 
Q 2350 2434 2208 2212 
Q 2066 1991 1722 1913 
Q 2069 1828 2209 1606 
Q 2350 1384 2350 897 
L 2350 122 
Q 2350 -319 2484 -456 
Q 2619 -594 3059 -594 
L 3272 -594 
z
" transform="scale(0.015625)"/>
      <path id="DejaVuSans-2c" d="M 750 794 
L 1409 794 
L 1409 256 
L 897 -744 
L 494 -744 
L 750 256 
L 750 794 
z
" transform="scale(0.015625)"/>
      <path id="DejaVuSans-7d" d="M 800 -594 
L 1019 -594 
Q 1456 -594 1589 -459 
Q 1722 -325 1722 122 
L 1722 897 
Q 1722 1384 1862 1606 
Q 2003 1828 2350 1913 
Q 2003 1991 1862 2212 
Q 1722 2434 1722 2925 
L 1722 3700 
Q 1722 4144 1589 4280 
Q 1456 4416 1019 4416 
L 800 4416 
L 800 4863 
L 997 4863 
Q 1775 4863 2036 4633 
Q 2297 4403 2297 3713 
L 2297 2963 
Q 2297 2497 2465 2317 
Q 2634 2138 3078 2138 
L 3272 2138 
L 3272 1691 
L 3078 1691 
Q 2634 1691 2465 1509 
Q 2297 1328 2297 856 
L 2297 109 
Q 2297 -581 2036 -812 
Q 1775 -1044 997 -1044 
L 800 -1044 
L 800 -594 
z
" transform="scale(0.015625)"/>
     </defs>
     <use xlink:href="#DejaVuSans-48"/>
     <use xlink:href="#DejaVuSans-6f" x="75.195312"/>
     <use xlink:href="#DejaVuSans-72" x="136.376953"/>
     <use xlink:href="#DejaVuSans-69" x="177.490234"/>
     <use xlink:href="#DejaVuSans-7a" x="205.273438"/>
     <use xlink:href="#DejaVuSans-6f" x="257.763672"/>
     <use xlink:href="#DejaVuSans-6e" x="318.945312"/>
     <use xlink:href="#DejaVuSans-73" x="382.324219"/>
     <use xlink:href="#DejaVuSans-20" x="434.423828"/>
     <use xlink:href="#DejaVuSans-394" x="466.210938"/>
     <use xlink:href="#DejaVuSans-20" x="534.619141"/>
     <use xlink:href="#DejaVuSans-3d" x="566.40625"/>
     <use xlink:href="#DejaVuSans-20" x="650.195312"/>
     <use xlink:href="#DejaVuSans-7b" x="681.982422"/>
     <use xlink:href="#DejaVuSans-31" x="745.605469"/>
     <use xlink:href="#DejaVuSans-2c" x="809.228516"/>
     <use xlink:href="#DejaVuSans-33" x="841.015625"/>
     <use xlink:href="#DejaVuSans-2c" x="904.638672"/>
     <use xlink:href="#DejaVuSans-35" x="936.425781"/>
     <use xlink:href="#DejaVuSans-7d" x="1000.048828"/>
    </g>
   </g>
   <g id="text_9">
    <!-- Evaluation &amp; Explainability -->
    <g style="fill: #1c2333" transform="translate(616.478625 282.878854) scale(0.135 -0.135)">
     <defs>
      <path id="DejaVuSans-Bold-45" d="M 588 4666 
L 3834 4666 
L 3834 3756 
L 1791 3756 
L 1791 2888 
L 3713 2888 
L 3713 1978 
L 1791 1978 
L 1791 909 
L 3903 909 
L 3903 0 
L 588 0 
L 588 4666 
z
" transform="scale(0.015625)"/>
      <path id="DejaVuSans-Bold-76" d="M 97 3500 
L 1216 3500 
L 2088 1081 
L 2956 3500 
L 4078 3500 
L 2700 0 
L 1472 0 
L 97 3500 
z
" transform="scale(0.015625)"/>
      <path id="DejaVuSans-Bold-26" d="M 2497 3097 
L 3775 1691 
Q 3941 1909 4027 2181 
Q 4113 2453 4128 2797 
L 5100 2797 
Q 5053 2228 4879 1784 
Q 4706 1341 4397 1006 
L 5313 0 
L 3988 0 
L 3681 341 
Q 3353 122 2990 15 
Q 2628 -91 2222 -91 
Q 1400 -91 892 342 
Q 384 775 384 1459 
Q 384 1916 607 2267 
Q 831 2619 1338 2950 
Q 1206 3116 1143 3281 
Q 1081 3447 1081 3628 
Q 1081 4138 1478 4444 
Q 1875 4750 2534 4750 
Q 2819 4750 3126 4704 
Q 3434 4659 3769 4569 
L 3769 3700 
Q 3475 3850 3212 3922 
Q 2950 3994 2700 3994 
Q 2459 3994 2326 3901 
Q 2194 3809 2194 3641 
Q 2194 3534 2270 3398 
Q 2347 3263 2497 3097 
z
M 1875 2322 
Q 1672 2175 1569 1989 
Q 1466 1803 1466 1581 
Q 1466 1222 1731 969 
Q 1997 716 2369 716 
Q 2578 716 2759 780 
Q 2941 844 3097 972 
L 1875 2322 
z
" transform="scale(0.015625)"/>
      <path id="DejaVuSans-Bold-78" d="M 1422 1791 
L 159 3500 
L 1344 3500 
L 2059 2463 
L 2784 3500 
L 3969 3500 
L 2706 1797 
L 4031 0 
L 2847 0 
L 2059 1106 
L 1281 0 
L 97 0 
L 1422 1791 
z
" transform="scale(0.015625)"/>
      <path id="DejaVuSans-Bold-62" d="M 2400 722 
Q 2759 722 2948 984 
Q 3138 1247 3138 1747 
Q 3138 2247 2948 2509 
Q 2759 2772 2400 2772 
Q 2041 2772 1848 2508 
Q 1656 2244 1656 1747 
Q 1656 1250 1848 986 
Q 2041 722 2400 722 
z
M 1656 2988 
Q 1888 3294 2169 3439 
Q 2450 3584 2816 3584 
Q 3463 3584 3878 3070 
Q 4294 2556 4294 1747 
Q 4294 938 3878 423 
Q 3463 -91 2816 -91 
Q 2450 -91 2169 54 
Q 1888 200 1656 506 
L 1656 0 
L 538 0 
L 538 4863 
L 1656 4863 
L 1656 2988 
z
" transform="scale(0.015625)"/>
      <path id="DejaVuSans-Bold-79" d="M 78 3500 
L 1197 3500 
L 2138 1125 
L 2938 3500 
L 4056 3500 
L 2584 -331 
Q 2363 -916 2067 -1148 
Q 1772 -1381 1288 -1381 
L 641 -1381 
L 641 -647 
L 991 -647 
Q 1275 -647 1404 -556 
Q 1534 -466 1606 -231 
L 1638 -134 
L 78 3500 
z
" transform="scale(0.015625)"/>
     </defs>
     <use xlink:href="#DejaVuSans-Bold-45"/>
     <use xlink:href="#DejaVuSans-Bold-76" x="68.310547"/>
     <use xlink:href="#DejaVuSans-Bold-61" x="133.496094"/>
     <use xlink:href="#DejaVuSans-Bold-6c" x="200.976562"/>
     <use xlink:href="#DejaVuSans-Bold-75" x="235.253906"/>
     <use xlink:href="#DejaVuSans-Bold-61" x="306.445312"/>
     <use xlink:href="#DejaVuSans-Bold-74" x="373.925781"/>
     <use xlink:href="#DejaVuSans-Bold-69" x="421.728516"/>
     <use xlink:href="#DejaVuSans-Bold-6f" x="456.005859"/>
     <use xlink:href="#DejaVuSans-Bold-6e" x="524.707031"/>
     <use xlink:href="#DejaVuSans-Bold-20" x="595.898438"/>
     <use xlink:href="#DejaVuSans-Bold-26" x="630.712891"/>
     <use xlink:href="#DejaVuSans-Bold-20" x="717.919922"/>
     <use xlink:href="#DejaVuSans-Bold-45" x="752.734375"/>
     <use xlink:href="#DejaVuSans-Bold-78" x="821.044922"/>
     <use xlink:href="#DejaVuSans-Bold-70" x="885.546875"/>
     <use xlink:href="#DejaVuSans-Bold-6c" x="957.128906"/>
     <use xlink:href="#DejaVuSans-Bold-61" x="991.40625"/>
     <use xlink:href="#DejaVuSans-Bold-69" x="1058.886719"/>
     <use xlink:href="#DejaVuSans-Bold-6e" x="1093.164062"/>
     <use xlink:href="#DejaVuSans-Bold-61" x="1164.355469"/>
     <use xlink:href="#DejaVuSans-Bold-62" x="1231.835938"/>
     <use xlink:href="#DejaVuSans-Bold-69" x="1303.417969"/>
     <use xlink:href="#DejaVuSans-Bold-6c" x="1337.695312"/>
     <use xlink:href="#DejaVuSans-Bold-69" x="1371.972656"/>
     <use xlink:href="#DejaVuSans-Bold-74" x="1406.25"/>
     <use xlink:href="#DejaVuSans-Bold-79" x="1454.052734"/>
    </g>
   </g>
   <g id="text_10">
    <!-- RMSE per horizon/feature -->
    <g style="fill: #1c2333" transform="translate(648.776672 275.169594) scale(0.11 -0.11)">
     <defs>
      <path id="DejaVuSans-52" d="M 2841 2188 
Q 3044 2119 3236 1894 
Q 3428 1669 3622 1275 
L 4263 0 
L 3584 0 
L 2988 1197 
Q 2756 1666 2539 1819 
Q 2322 1972 1947 1972 
L 1259 1972 
L 1259 0 
L 628 0 
L 628 4666 
L 2053 4666 
Q 2853 4666 3247 4331 
Q 3641 3997 3641 3322 
Q 3641 2881 3436 2590 
Q 3231 2300 2841 2188 
z
M 1259 4147 
L 1259 2491 
L 2053 2491 
Q 2509 2491 2742 2702 
Q 2975 2913 2975 3322 
Q 2975 3731 2742 3939 
Q 2509 4147 2053 4147 
L 1259 4147 
z
" transform="scale(0.015625)"/>
      <path id="DejaVuSans-45" d="M 628 4666 
L 3578 4666 
L 3578 4134 
L 1259 4134 
L 1259 2753 
L 3481 2753 
L 3481 2222 
L 1259 2222 
L 1259 531 
L 3634 531 
L 3634 0 
L 628 0 
L 628 4666 
z
" transform="scale(0.015625)"/>
     </defs>
     <use xlink:href="#DejaVuSans-52"/>
     <use xlink:href="#DejaVuSans-4d" x="69.482422"/>
     <use xlink:href="#DejaVuSans-53" x="155.761719"/>
     <use xlink:href="#DejaVuSans-45" x="219.238281"/>
     <use xlink:href="#DejaVuSans-20" x="282.421875"/>
     <use xlink:href="#DejaVuSans-70" x="314.208984"/>
     <use xlink:href="#DejaVuSans-65" x="377.685547"/>
     <use xlink:href="#DejaVuSans-72" x="439.208984"/>
     <use xlink:href="#DejaVuSans-20" x="480.322266"/>
     <use xlink:href="#DejaVuSans-68" x="512.109375"/>
     <use xlink:href="#DejaVuSans-6f" x="575.488281"/>
     <use xlink:href="#DejaVuSans-72" x="636.669922"/>
     <use xlink:href="#DejaVuSans-69" x="677.783203"/>
     <use xlink:href="#DejaVuSans-7a" x="705.566406"/>
     <use xlink:href="#DejaVuSans-6f" x="758.056641"/>
     <use xlink:href="#DejaVuSans-6e" x="819.238281"/>
     <use xlink:href="#DejaVuSans-2f" x="882.617188"/>
     <use xlink:href="#DejaVuSans-66" x="916.308594"/>
     <use xlink:href="#DejaVuSans-65" x="951.513672"/>
     <use xlink:href="#DejaVuSans-61" x="1013.037109"/>
     <use xlink:href="#DejaVuSans-74" x="1074.316406"/>
     <use xlink:href="#DejaVuSans-75" x="1113.525391"/>
     <use xlink:href="#DejaVuSans-72" x="1176.904297"/>
     <use xlink:href="#DejaVuSans-65" x="1215.767578"/>
    </g>
    <!-- Parity plots -->
    <g style="fill: #1c2333" transform="translate(688.234016 287.487187) scale(0.11 -0.11)">
     <use xlink:href="#DejaVuSans-50"/>
     <use xlink:href="#DejaVuSans-61" x="55.802734"/>
     <use xlink:href="#DejaVuSans-72" x="117.082031"/>
     <use xlink:href="#DejaVuSans-69" x="158.195312"/>
     <use xlink:href="#DejaVuSans-74" x="185.978516"/>
     <use xlink:href="#DejaVuSans-79" x="225.1875"/>
     <use xlink:href="#DejaVuSans-20" x="284.367188"/>
     <use xlink:href="#DejaVuSans-70" x="316.154297"/>
     <use xlink:href="#DejaVuSans-6c" x="379.630859"/>
     <use xlink:href="#DejaVuSans-6f" x="407.414062"/>
     <use xlink:href="#DejaVuSans-74" x="468.595703"/>
     <use xlink:href="#DejaVuSans-73" x="507.804688"/>
    </g>
    <!-- Baselines (persistence, ridge) -->
    <g style="fill: #1c2333" transform="translate(637.322063 299.804781) scale(0.11 -0.11)">
     <use xlink:href="#DejaVuSans-42"/>
     <use xlink:href="#DejaVuSans-61" x="68.603516"/>
     <use xlink:href="#DejaVuSans-73" x="129.882812"/>
     <use xlink:href="#DejaVuSans-65" x="181.982422"/>
     <use xlink:href="#DejaVuSans-6c" x="243.505859"/>
     <use xlink:href="#DejaVuSans-69" x="271.289062"/>
     <use xlink:href="#DejaVuSans-6e" x="299.072266"/>
     <use xlink:href="#DejaVuSans-65" x="362.451172"/>
     <use xlink:href="#DejaVuSans-73" x="423.974609"/>
     <use xlink:href="#DejaVuSans-20" x="476.074219"/>
     <use xlink:href="#DejaVuSans-28" x="507.861328"/>
     <use xlink:href="#DejaVuSans-70" x="546.875"/>
     <use xlink:href="#DejaVuSans-65" x="610.351562"/>
     <use xlink:href="#DejaVuSans-72" x="671.875"/>
     <use xlink:href="#DejaVuSans-73" x="712.988281"/>
     <use xlink:href="#DejaVuSans-69" x="765.087891"/>
     <use xlink:href="#DejaVuSans-73" x="792.871094"/>
     <use xlink:href="#DejaVuSans-74" x="844.970703"/>
     <use xlink:href="#DejaVuSans-65" x="884.179688"/>
     <use xlink:href="#DejaVuSans-6e" x="945.703125"/>
     <use xlink:href="#DejaVuSans-63" x="1009.082031"/>
     <use xlink:href="#DejaVuSans-65" x="1064.0625"/>
     <use xlink:href="#DejaVuSans-2c" x="1125.585938"/>
     <use xlink:href="#DejaVuSans-20" x="1157.373047"/>
     <use xlink:href="#DejaVuSans-72" x="1189.160156"/>
     <use xlink:href="#DejaVuSans-69" x="1230.273438"/>
     <use xlink:href="#DejaVuSans-64" x="1258.056641"/>
     <use xlink:href="#DejaVuSans-67" x="1321.533203"/>
     <use xlink:href="#DejaVuSans-65" x="1385.009766"/>
     <use xlink:href="#DejaVuSans-29" x="1446.533203"/>
    </g>
    <!-- Permutation importance -->
    <g style="fill: #1c2333" transform="translate(652.2855 312.122375) scale(0.11 -0.11)">
     <defs>
      <path id="DejaVuSans-6d" d="M 3328 2828 
Q 3544 3216 3844 3400 
Q 4144 3584 4550 3584 
Q 5097 3584 5394 3201 
Q 5691 2819 5691 2113 
L 5691 0 
L 5113 0 
L 5113 2094 
Q 5113 2597 4934 2840 
Q 4756 3084 4391 3084 
Q 3944 3084 3684 2787 
Q 3425 2491 3425 1978 
L 3425 0 
L 2847 0 
L 2847 2094 
Q 2847 2600 2669 2842 
Q 2491 3084 2119 3084 
Q 1678 3084 1418 2786 
Q 1159 2488 1159 1978 
L 1159 0 
L 581 0 
L 581 3500 
L 1159 3500 
L 1159 2956 
Q 1356 3278 1631 3431 
Q 1906 3584 2284 3584 
Q 2666 3584 2933 3390 
Q 3200 3197 3328 2828 
z
" transform="scale(0.015625)"/>
     </defs>
     <use xlink:href="#DejaVuSans-50"/>
     <use xlink:href="#DejaVuSans-65" x="56.677734"/>
     <use xlink:href="#DejaVuSans-72" x="118.201172"/>
     <use xlink:href="#DejaVuSans-6d" x="157.564453"/>
     <use xlink:href="#DejaVuSans-75" x="254.976562"/>
     <use xlink:href="#DejaVuSans-74" x="318.355469"/>
     <use xlink:href="#DejaVuSans-61" x="357.564453"/>
     <use xlink:href="#DejaVuSans-74" x="418.84375"/>
     <use xlink:href="#DejaVuSans-69" x="458.052734"/>
     <use xlink:href="#DejaVuSans-6f" x="485.835938"/>
     <use xlink:href="#DejaVuSans-6e" x="547.017578"/>
     <use xlink:href="#DejaVuSans-20" x="610.396484"/>
     <use xlink:href="#DejaVuSans-69" x="642.183594"/>
     <use xlink:href="#DejaVuSans-6d" x="669.966797"/>
     <use xlink:href="#DejaVuSans-70" x="767.378906"/>
     <use xlink:href="#DejaVuSans-6f" x="830.855469"/>
     <use xlink:href="#DejaVuSans-72" x="892.037109"/>
     <use xlink:href="#DejaVuSans-74" x="933.150391"/>
     <use xlink:href="#DejaVuSans-61" x="972.359375"/>
     <use xlink:href="#DejaVuSans-6e" x="1033.638672"/>
     <use xlink:href="#DejaVuSans-63" x="1097.017578"/>
     <use xlink:href="#DejaVuSans-65" x="1151.998047"/>
    </g>
    <!-- ±1σ sensitivity -->
    <g style="fill: #1c2333" transform="translate(677.679172 324.439969) scale(0.11 -0.11)">
     <defs>
      <path id="DejaVuSans-b1" d="M 2944 4013 
L 2944 2803 
L 4684 2803 
L 4684 2272 
L 2944 2272 
L 2944 1063 
L 2419 1063 
L 2419 2272 
L 678 2272 
L 678 2803 
L 2419 2803 
L 2419 4013 
L 2944 4013 
z
M 678 531 
L 4684 531 
L 4684 0 
L 678 0 
L 678 531 
z
" transform="scale(0.015625)"/>
      <path id="DejaVuSans-3c3" d="M 1959 3044 
Q 1484 3044 1228 2700 
Q 959 2341 959 1747 
Q 959 1119 1226 758 
Q 1494 397 1959 397 
Q 2419 397 2687 759 
Q 2956 1122 2956 1747 
Q 2956 2319 2688 2700 
Q 2441 3044 1959 3044 
z
M 1959 3500 
L 3869 3500 
L 3869 2925 
L 3225 2925 
Q 3566 2438 3566 1747 
Q 3566 888 3138 400 
Q 2709 -91 1959 -91 
Q 1206 -91 781 400 
Q 353 888 353 1747 
Q 353 2613 781 3097 
Q 1134 3500 1959 3500 
z
" transform="scale(0.015625)"/>
     </defs>
     <use xlink:href="#DejaVuSans-b1"/>
     <use xlink:href="#DejaVuSans-31" x="83.789062"/>
     <use xlink:href="#DejaVuSans-3c3" x="147.412109"/>
     <use xlink:href="#DejaVuSans-20" x="210.791016"/>
     <use xlink:href="#DejaVuSans-73" x="242.578125"/>
     <use xlink:href="#DejaVuSans-65" x="294.677734"/>
     <use xlink:href="#DejaVuSans-6e" x="356.201172"/>
     <use xlink:href="#DejaVuSans-73" x="419.580078"/>
     <use xlink:href="#DejaVuSans-69" x="471.679688"/>
     <use xlink:href="#DejaVuSans-74" x="499.462891"/>
     <use xlink:href="#DejaVuSans-69" x="538.671875"/>
     <use xlink:href="#DejaVuSans-76" x="566.455078"/>
     <use xlink:href="#DejaVuSans-69" x="625.634766"/>
     <use xlink:href="#DejaVuSans-74" x="653.417969"/>
     <use xlink:href="#DejaVuSans-79" x="692.626953"/>
    </g>
   </g>
   <g id="text_11">
    <!-- End-to-End Pipeline for Forecasting Black Hole Evolution -->
    <g style="fill: #1c2333" transform="translate(189.191406 20.117344) scale(0.17 -0.17)">
     <defs>
      <path id="DejaVuSans-46" d="M 628 4666 
L 3309 4666 
L 3309 4134 
L 1259 4134 
L 1259 2759 
L 3109 2759 
L 3109 2228 
L 1259 2228 
L 1259 0 
L 628 0 
L 628 4666 
z
" transform="scale(0.015625)"/>
     </defs>
     <use xlink:href="#DejaVuSans-45"/>
     <use xlink:href="#DejaVuSans-6e" x="63.183594"/>
     <use xlink:href="#DejaVuSans-64" x="126.5625"/>
     <use xlink:href="#DejaVuSans-2d" x="190.039062"/>
     <use xlink:href="#DejaVuSans-74" x="226.123047"/>
     <use xlink:href="#DejaVuSans-6f" x="265.332031"/>
     <use xlink:href="#DejaVuSans-2d" x="328.388672"/>
     <use xlink:href="#DejaVuSans-45" x="364.472656"/>
     <use xlink:href="#DejaVuSans-6e" x="427.65625"/>
     <use xlink:href="#DejaVuSans-64" x="491.035156"/>
     <use xlink:href="#DejaVuSans-20" x="554.511719"/>
     <use xlink:href="#DejaVuSans-50" x="586.298828"/>
     <use xlink:href="#DejaVuSans-69" x="644.351562"/>
     <use xlink:href="#DejaVuSans-70" x="672.134766"/>
     <use xlink:href="#DejaVuSans-65" x="735.611328"/>
     <use xlink:href="#DejaVuSans-6c" x="797.134766"/>
     <use xlink:href="#DejaVuSans-69" x="824.917969"/>
     <use xlink:href="#DejaVuSans-6e" x="852.701172"/>
     <use xlink:href="#DejaVuSans-65" x="916.080078"/>
     <use xlink:href="#DejaVuSans-20" x="977.603516"/>
     <use xlink:href="#DejaVuSans-66" x="1009.390625"/>
     <use xlink:href="#DejaVuSans-6f" x="1044.595703"/>
     <use xlink:href="#DejaVuSans-72" x="1105.777344"/>
     <use xlink:href="#DejaVuSans-20" x="1146.890625"/>
     <use xlink:href="#DejaVuSans-46" x="1178.677734"/>
     <use xlink:href="#DejaVuSans-6f" x="1232.572266"/>
     <use xlink:href="#DejaVuSans-72" x="1293.753906"/>
     <use xlink:href="#DejaVuSans-65" x="1332.617188"/>
     <use xlink:href="#DejaVuSans-63" x="1394.140625"/>
     <use xlink:href="#DejaVuSans-61" x="1449.121094"/>
     <use xlink:href="#DejaVuSans-73" x="1510.400391"/>
     <use xlink:href="#DejaVuSans-74" x="1562.5"/>
     <use xlink:href="#DejaVuSans-69" x="1601.708984"/>
     <use xlink:href="#DejaVuSans-6e" x="1629.492188"/>
     <use xlink:href="#DejaVuSans-67" x="1692.871094"/>
     <use xlink:href="#DejaVuSans-20" x="1756.347656"/>
     <use xlink:href="#DejaVuSans-42" x="1788.134766"/>
     <use xlink:href="#DejaVuSans-6c" x="1856.738281"/>
     <use xlink:href="#DejaVuSans-61" x="1884.521484"/>
     <use xlink:href="#DejaVuSans-63" x="1945.800781"/>
     <use xlink:href="#DejaVuSans-6b" x="2000.78125"/>
     <use xlink:href="#DejaVuSans-20" x="2058.691406"/>
     <use xlink:href="#DejaVuSans-48" x="2090.478516"/>
     <use xlink:href="#DejaVuSans-6f" x="2165.673828"/>
     <use xlink:href="#DejaVuSans-6c" x="2226.855469"/>
     <use xlink:href="#DejaVuSans-65" x="2254.638672"/>
     <use xlink:href="#DejaVuSans-20" x="2316.162109"/>
     <use xlink:href="#DejaVuSans-45" x="2347.949219"/>
     <use xlink:href="#DejaVuSans-76" x="2411.132812"/>
     <use xlink:href="#DejaVuSans-6f" x="2470.3125"/>
     <use xlink:href="#DejaVuSans-6c" x="2531.494141"/>
     <use xlink:href="#DejaVuSans-75" x="2559.277344"/>
     <use xlink:href="#DejaVuSans-74" x="2622.65625"/>
     <use xlink:href="#DejaVuSans-69" x="2661.865234"/>
     <use xlink:href="#DejaVuSans-6f" x="2689.648438"/>
     <use xlink:href="#DejaVuSans-6e" x="2750.830078"/>
    </g>
   </g>
  </g>
 </g>
 <defs>
  <clipPath id="pb3f1fa8896">
   <rect x="7.2" y="28.117344" width="842.4" height="301.85632"/>
  </clipPath>
 </defs>
</svg>
