<?xml version="1.0" encoding="utf-8" standalone="no"?>
<!DOCTYPE svg PUBLIC "-//W3C//DTD SVG 1.1//EN"
  "http://www.w3.org/Graphics/SVG/1.1/DTD/svg11.dtd">
<svg xmlns:xlink="http://www.w3.org/1999/xlink" width="833.715pt" height="337.5975pt" viewBox="0 0 833.715 337.5975" xmlns="http://www.w3.org/2000/svg" version="1.1">
 <metadata>
  <rdf:RDF xmlns:dc="http://purl.org/dc/elements/1.1/" xmlns:cc="http://creativecommons.org/ns#" xmlns:rdf="http://www.w3.org/1999/02/22-rdf-syntax-ns#">
   <cc:Work>
    <dc:type rdf:resource="http://purl.org/dc/dcmitype/StillImage"/>
    <dc:date>2025-09-18T04:22:25.148673</dc:date>
    <dc:format>image/svg+xml</dc:format>
    <dc:creator>
     <cc:Agent>
      <dc:title>Matplotlib v3.7.2, https://matplotlib.org/</dc:title>
     </cc:Agent>
    </dc:creator>
   </cc:Work>
  </rdf:RDF>
 </metadata>
 <defs>
  <style type="text/css">*{stroke-linejoin: round; stroke-linecap: butt}</style>
 </defs>
 <g id="figure_1">
  <g id="patch_1">
   <path d="M 0 337.5975 
L 833.715 337.5975 
L 833.715 0 
L 0 0 
z
" style="fill: #ffffff"/>
  </g>
  <g id="axes_1">
   <g id="patch_2">
    <path d="M -202.54464 315.1455 
L 380.80764 315.1455 
Q 400.4712 315.1455 400.4712 307.82454 
L 400.4712 47.93046 
Q 400.4712 40.6095 380.80764 40.6095 
L -202.54464 40.6095 
Q -222.2082 40.6095 -222.2082 47.93046 
L -222.2082 307.82454 
Q -222.2082 315.1455 -202.54464 315.1455 
z
" clip-path="url(#p108be3c556)" style="fill: #eff3ff; stroke: #1f4b99; stroke-width: 1.8; stroke-linejoin: miter"/>
   </g>
   <g id="patch_3">
    <path d="M -38.68164 315.1455 
L 544.67064 315.1455 
Q 564.3342 315.1455 564.3342 307.82454 
L 564.3342 47.93046 
Q 564.3342 40.6095 544.67064 40.6095 
L -38.68164 40.6095 
Q -58.3452 40.6095 -58.3452 47.93046 
L -58.3452 307.82454 
Q -58.3452 315.1455 -38.68164 315.1455 
z
" clip-path="url(#p108be3c556)" style="fill: #eff3ff; stroke: #1f4b99; stroke-width: 1.8; stroke-linejoin: miter"/>
   </g>
   <g id="patch_4">
    <path d="M 125.18136 315.1455 
L 708.53364 315.1455 
Q 728.1972 315.1455 728.1972 307.82454 
L 728.1972 47.93046 
Q 728.1972 40.6095 708.53364 40.6095 
L 125.18136 40.6095 
Q 105.5178 40.6095 105.5178 47.93046 
L 105.5178 307.82454 
Q 105.5178 315.1455 125.18136 315.1455 
z
" clip-path="url(#p108be3c556)" style="fill: #eff3ff; stroke: #1f4b99; stroke-width: 1.8; stroke-linejoin: miter"/>
   </g>
   <g id="patch_5">
    <path d="M 289.04436 315.1455 
L 872.39664 315.1455 
Q 892.0602 315.1455 892.0602 307.82454 
L 892.0602 47.93046 
Q 892.0602 40.6095 872.39664 40.6095 
L 289.04436 40.6095 
Q 269.3808 40.6095 269.3808 47.93046 
L 269.3808 307.82454 
Q 269.3808 315.1455 289.04436 315.1455 
z
" clip-path="url(#p108be3c556)" style="fill: #eff3ff; stroke: #1f4b99; stroke-width: 1.8; stroke-linejoin: miter"/>
   </g>
   <g id="patch_6">
    <path d="M 452.90736 315.1455 
L 1036.25964 315.1455 
Q 1055.9232 315.1455 1055.9232 307.82454 
L 1055.9232 47.93046 
Q 1055.9232 40.6095 1036.25964 40.6095 
L 452.90736 40.6095 
Q 433.2438 40.6095 433.2438 47.93046 
L 433.2438 307.82454 
Q 433.2438 315.1455 452.90736 315.1455 
z
" clip-path="url(#p108be3c556)" style="fill: #eff3ff; stroke: #1f4b99; stroke-width: 1.8; stroke-linejoin: miter"/>
   </g>
   <g id="text_1">
    <!-- IllustrisTNG100 -->
    <g transform="translate(41.276344 162.393453) scale(0.11 -0.11)">
     <defs>
      <path id="DejaVuSans-Bold-49" d="M 588 4666 
L 1791 4666 
L 1791 0 
L 588 0 
L 588 4666 
z
" transform="scale(0.015625)"/>
      <path id="DejaVuSans-Bold-6c" d="M 538 4863 
L 1656 4863 
L 1656 0 
L 538 0 
L 538 4863 
z
" transform="scale(0.015625)"/>
      <path id="DejaVuSans-Bold-75" d="M 500 1363 
L 500 3500 
L 1625 3500 
L 1625 3150 
Q 1625 2866 1622 2436 
Q 1619 2006 1619 1863 
Q 1619 1441 1641 1255 
Q 1663 1069 1716 984 
Q 1784 875 1895 815 
Q 2006 756 2150 756 
Q 2500 756 2700 1025 
Q 2900 1294 2900 1772 
L 2900 3500 
L 4019 3500 
L 4019 0 
L 2900 0 
L 2900 506 
Q 2647 200 2364 54 
Q 2081 -91 1741 -91 
Q 1134 -91 817 281 
Q 500 653 500 1363 
z
" transform="scale(0.015625)"/>
      <path id="DejaVuSans-Bold-73" d="M 3272 3391 
L 3272 2541 
Q 2913 2691 2578 2766 
Q 2244 2841 1947 2841 
Q 1628 2841 1473 2761 
Q 1319 2681 1319 2516 
Q 1319 2381 1436 2309 
Q 1553 2238 1856 2203 
L 2053 2175 
Q 2913 2066 3209 1816 
Q 3506 1566 3506 1031 
Q 3506 472 3093 190 
Q 2681 -91 1863 -91 
Q 1516 -91 1145 -36 
Q 775 19 384 128 
L 384 978 
Q 719 816 1070 734 
Q 1422 653 1784 653 
Q 2113 653 2278 743 
Q 2444 834 2444 1013 
Q 2444 1163 2330 1236 
Q 2216 1309 1875 1350 
L 1678 1375 
Q 931 1469 631 1722 
Q 331 1975 331 2491 
Q 331 3047 712 3315 
Q 1094 3584 1881 3584 
Q 2191 3584 2531 3537 
Q 2872 3491 3272 3391 
z
" transform="scale(0.015625)"/>
      <path id="DejaVuSans-Bold-74" d="M 1759 4494 
L 1759 3500 
L 2913 3500 
L 2913 2700 
L 1759 2700 
L 1759 1216 
Q 1759 972 1856 886 
Q 1953 800 2241 800 
L 2816 800 
L 2816 0 
L 1856 0 
Q 1194 0 917 276 
Q 641 553 641 1216 
L 641 2700 
L 84 2700 
L 84 3500 
L 641 3500 
L 641 4494 
L 1759 4494 
z
" transform="scale(0.015625)"/>
      <path id="DejaVuSans-Bold-72" d="M 3138 2547 
Q 2991 2616 2845 2648 
Q 2700 2681 2553 2681 
Q 2122 2681 1889 2404 
Q 1656 2128 1656 1613 
L 1656 0 
L 538 0 
L 538 3500 
L 1656 3500 
L 1656 2925 
Q 1872 3269 2151 3426 
Q 2431 3584 2822 3584 
Q 2878 3584 2943 3579 
Q 3009 3575 3134 3559 
L 3138 2547 
z
" transform="scale(0.015625)"/>
      <path id="DejaVuSans-Bold-69" d="M 538 3500 
L 1656 3500 
L 1656 0 
L 538 0 
L 538 3500 
z
M 538 4863 
L 1656 4863 
L 1656 3950 
L 538 3950 
L 538 4863 
z
" transform="scale(0.015625)"/>
      <path id="DejaVuSans-Bold-54" d="M 31 4666 
L 4331 4666 
L 4331 3756 
L 2784 3756 
L 2784 0 
L 1581 0 
L 1581 3756 
L 31 3756 
L 31 4666 
z
" transform="scale(0.015625)"/>
      <path id="DejaVuSans-Bold-4e" d="M 588 4666 
L 1931 4666 
L 3628 1466 
L 3628 4666 
L 4769 4666 
L 4769 0 
L 3425 0 
L 1728 3200 
L 1728 0 
L 588 0 
L 588 4666 
z
" transform="scale(0.015625)"/>
      <path id="DejaVuSans-Bold-47" d="M 4781 347 
Q 4331 128 3847 18 
Q 3363 -91 2847 -91 
Q 1681 -91 1000 561 
Q 319 1213 319 2328 
Q 319 3456 1012 4103 
Q 1706 4750 2913 4750 
Q 3378 4750 3804 4662 
Q 4231 4575 4609 4403 
L 4609 3438 
Q 4219 3659 3833 3768 
Q 3447 3878 3059 3878 
Q 2341 3878 1952 3476 
Q 1563 3075 1563 2328 
Q 1563 1588 1938 1184 
Q 2313 781 3003 781 
Q 3191 781 3352 804 
Q 3513 828 3641 878 
L 3641 1784 
L 2906 1784 
L 2906 2591 
L 4781 2591 
L 4781 347 
z
" transform="scale(0.015625)"/>
      <path id="DejaVuSans-Bold-31" d="M 750 831 
L 1813 831 
L 1813 3847 
L 722 3622 
L 722 4441 
L 1806 4666 
L 2950 4666 
L 2950 831 
L 4013 831 
L 4013 0 
L 750 0 
L 750 831 
z
" transform="scale(0.015625)"/>
      <path id="DejaVuSans-Bold-30" d="M 2944 2338 
Q 2944 3213 2780 3570 
Q 2616 3928 2228 3928 
Q 1841 3928 1675 3570 
Q 1509 3213 1509 2338 
Q 1509 1453 1675 1090 
Q 1841 728 2228 728 
Q 2613 728 2778 1090 
Q 2944 1453 2944 2338 
z
M 4147 2328 
Q 4147 1169 3647 539 
Q 3147 -91 2228 -91 
Q 1306 -91 806 539 
Q 306 1169 306 2328 
Q 306 3491 806 4120 
Q 1306 4750 2228 4750 
Q 3147 4750 3647 4120 
Q 4147 3491 4147 2328 
z
" transform="scale(0.015625)"/>
     </defs>
     <use xlink:href="#DejaVuSans-Bold-49"/>
     <use xlink:href="#DejaVuSans-Bold-6c" x="37.207031"/>
     <use xlink:href="#DejaVuSans-Bold-6c" x="71.484375"/>
     <use xlink:href="#DejaVuSans-Bold-75" x="105.761719"/>
     <use xlink:href="#DejaVuSans-Bold-73" x="176.953125"/>
     <use xlink:href="#DejaVuSans-Bold-74" x="236.474609"/>
     <use xlink:href="#DejaVuSans-Bold-72" x="284.277344"/>
     <use xlink:href="#DejaVuSans-Bold-69" x="333.59375"/>
     <use xlink:href="#DejaVuSans-Bold-73" x="367.871094"/>
     <use xlink:href="#DejaVuSans-Bold-54" x="427.392578"/>
     <use xlink:href="#DejaVuSans-Bold-4e" x="495.605469"/>
     <use xlink:href="#DejaVuSans-Bold-47" x="579.296875"/>
     <use xlink:href="#DejaVuSans-Bold-31" x="661.376953"/>
     <use xlink:href="#DejaVuSans-Bold-30" x="730.957031"/>
     <use xlink:href="#DejaVuSans-Bold-30" x="800.537109"/>
    </g>
    <!-- Snapshots 18–33 -->
    <g transform="translate(36.765484 174.711047) scale(0.11 -0.11)">
     <defs>
      <path id="DejaVuSans-Bold-53" d="M 3834 4519 
L 3834 3531 
Q 3450 3703 3084 3790 
Q 2719 3878 2394 3878 
Q 1963 3878 1756 3759 
Q 1550 3641 1550 3391 
Q 1550 3203 1689 3098 
Q 1828 2994 2194 2919 
L 2706 2816 
Q 3484 2659 3812 2340 
Q 4141 2022 4141 1434 
Q 4141 663 3683 286 
Q 3225 -91 2284 -91 
Q 1841 -91 1394 -6 
Q 947 78 500 244 
L 500 1259 
Q 947 1022 1364 901 
Q 1781 781 2169 781 
Q 2563 781 2772 912 
Q 2981 1044 2981 1288 
Q 2981 1506 2839 1625 
Q 2697 1744 2272 1838 
L 1806 1941 
Q 1106 2091 782 2419 
Q 459 2747 459 3303 
Q 459 4000 909 4375 
Q 1359 4750 2203 4750 
Q 2588 4750 2994 4692 
Q 3400 4634 3834 4519 
z
" transform="scale(0.015625)"/>
      <path id="DejaVuSans-Bold-6e" d="M 4056 2131 
L 4056 0 
L 2931 0 
L 2931 347 
L 2931 1631 
Q 2931 2084 2911 2256 
Q 2891 2428 2841 2509 
Q 2775 2619 2662 2680 
Q 2550 2741 2406 2741 
Q 2056 2741 1856 2470 
Q 1656 2200 1656 1722 
L 1656 0 
L 538 0 
L 538 3500 
L 1656 3500 
L 1656 2988 
Q 1909 3294 2193 3439 
Q 2478 3584 2822 3584 
Q 3428 3584 3742 3212 
Q 4056 2841 4056 2131 
z
" transform="scale(0.015625)"/>
      <path id="DejaVuSans-Bold-61" d="M 2106 1575 
Q 1756 1575 1579 1456 
Q 1403 1338 1403 1106 
Q 1403 894 1545 773 
Q 1688 653 1941 653 
Q 2256 653 2472 879 
Q 2688 1106 2688 1447 
L 2688 1575 
L 2106 1575 
z
M 3816 1997 
L 3816 0 
L 2688 0 
L 2688 519 
Q 2463 200 2181 54 
Q 1900 -91 1497 -91 
Q 953 -91 614 226 
Q 275 544 275 1050 
Q 275 1666 698 1953 
Q 1122 2241 2028 2241 
L 2688 2241 
L 2688 2328 
Q 2688 2594 2478 2717 
Q 2269 2841 1825 2841 
Q 1466 2841 1156 2769 
Q 847 2697 581 2553 
L 581 3406 
Q 941 3494 1303 3539 
Q 1666 3584 2028 3584 
Q 2975 3584 3395 3211 
Q 3816 2838 3816 1997 
z
" transform="scale(0.015625)"/>
      <path id="DejaVuSans-Bold-70" d="M 1656 506 
L 1656 -1331 
L 538 -1331 
L 538 3500 
L 1656 3500 
L 1656 2988 
Q 1888 3294 2169 3439 
Q 2450 3584 2816 3584 
Q 3463 3584 3878 3070 
Q 4294 2556 4294 1747 
Q 4294 938 3878 423 
Q 3463 -91 2816 -91 
Q 2450 -91 2169 54 
Q 1888 200 1656 506 
z
M 2400 2772 
Q 2041 2772 1848 2508 
Q 1656 2244 1656 1747 
Q 1656 1250 1848 986 
Q 2041 722 2400 722 
Q 2759 722 2948 984 
Q 3138 1247 3138 1747 
Q 3138 2247 2948 2509 
Q 2759 2772 2400 2772 
z
" transform="scale(0.015625)"/>
      <path id="DejaVuSans-Bold-68" d="M 4056 2131 
L 4056 0 
L 2931 0 
L 2931 347 
L 2931 1625 
Q 2931 2084 2911 2256 
Q 2891 2428 2841 2509 
Q 2775 2619 2662 2680 
Q 2550 2741 2406 2741 
Q 2056 2741 1856 2470 
Q 1656 2200 1656 1722 
L 1656 0 
L 538 0 
L 538 4863 
L 1656 4863 
L 1656 2988 
Q 1909 3294 2193 3439 
Q 2478 3584 2822 3584 
Q 3428 3584 3742 3212 
Q 4056 2841 4056 2131 
z
" transform="scale(0.015625)"/>
      <path id="DejaVuSans-Bold-6f" d="M 2203 2784 
Q 1831 2784 1636 2517 
Q 1441 2250 1441 1747 
Q 1441 1244 1636 976 
Q 1831 709 2203 709 
Q 2569 709 2762 976 
Q 2956 1244 2956 1747 
Q 2956 2250 2762 2517 
Q 2569 2784 2203 2784 
z
M 2203 3584 
Q 3106 3584 3614 3096 
Q 4122 2609 4122 1747 
Q 4122 884 3614 396 
Q 3106 -91 2203 -91 
Q 1297 -91 786 396 
Q 275 884 275 1747 
Q 275 2609 786 3096 
Q 1297 3584 2203 3584 
z
" transform="scale(0.015625)"/>
      <path id="DejaVuSans-Bold-20" transform="scale(0.015625)"/>
      <path id="DejaVuSans-Bold-38" d="M 2228 2088 
Q 1891 2088 1709 1903 
Q 1528 1719 1528 1375 
Q 1528 1031 1709 848 
Q 1891 666 2228 666 
Q 2563 666 2741 848 
Q 2919 1031 2919 1375 
Q 2919 1722 2741 1905 
Q 2563 2088 2228 2088 
z
M 1350 2484 
Q 925 2613 709 2878 
Q 494 3144 494 3541 
Q 494 4131 934 4440 
Q 1375 4750 2228 4750 
Q 3075 4750 3515 4442 
Q 3956 4134 3956 3541 
Q 3956 3144 3739 2878 
Q 3522 2613 3097 2484 
Q 3572 2353 3814 2058 
Q 4056 1763 4056 1313 
Q 4056 619 3595 264 
Q 3134 -91 2228 -91 
Q 1319 -91 855 264 
Q 391 619 391 1313 
Q 391 1763 633 2058 
Q 875 2353 1350 2484 
z
M 1631 3419 
Q 1631 3141 1786 2991 
Q 1941 2841 2228 2841 
Q 2509 2841 2662 2991 
Q 2816 3141 2816 3419 
Q 2816 3697 2662 3845 
Q 2509 3994 2228 3994 
Q 1941 3994 1786 3844 
Q 1631 3694 1631 3419 
z
" transform="scale(0.015625)"/>
      <path id="DejaVuSans-Bold-2013" d="M 344 2156 
L 2856 2156 
L 2856 1350 
L 344 1350 
L 344 2156 
z
" transform="scale(0.015625)"/>
      <path id="DejaVuSans-Bold-33" d="M 2981 2516 
Q 3453 2394 3698 2092 
Q 3944 1791 3944 1325 
Q 3944 631 3412 270 
Q 2881 -91 1863 -91 
Q 1503 -91 1142 -33 
Q 781 25 428 141 
L 428 1069 
Q 766 900 1098 814 
Q 1431 728 1753 728 
Q 2231 728 2486 893 
Q 2741 1059 2741 1369 
Q 2741 1688 2480 1852 
Q 2219 2016 1709 2016 
L 1228 2016 
L 1228 2791 
L 1734 2791 
Q 2188 2791 2409 2933 
Q 2631 3075 2631 3366 
Q 2631 3634 2415 3781 
Q 2200 3928 1806 3928 
Q 1516 3928 1219 3862 
Q 922 3797 628 3669 
L 628 4550 
Q 984 4650 1334 4700 
Q 1684 4750 2022 4750 
Q 2931 4750 3382 4451 
Q 3834 4153 3834 3553 
Q 3834 3144 3618 2883 
Q 3403 2622 2981 2516 
z
" transform="scale(0.015625)"/>
     </defs>
     <use xlink:href="#DejaVuSans-Bold-53"/>
     <use xlink:href="#DejaVuSans-Bold-6e" x="72.021484"/>
     <use xlink:href="#DejaVuSans-Bold-61" x="143.212891"/>
     <use xlink:href="#DejaVuSans-Bold-70" x="210.693359"/>
     <use xlink:href="#DejaVuSans-Bold-73" x="282.275391"/>
     <use xlink:href="#DejaVuSans-Bold-68" x="341.796875"/>
     <use xlink:href="#DejaVuSans-Bold-6f" x="412.988281"/>
     <use xlink:href="#DejaVuSans-Bold-74" x="481.689453"/>
     <use xlink:href="#DejaVuSans-Bold-73" x="529.492188"/>
     <use xlink:href="#DejaVuSans-Bold-20" x="589.013672"/>
     <use xlink:href="#DejaVuSans-Bold-31" x="623.828125"/>
     <use xlink:href="#DejaVuSans-Bold-38" x="693.408203"/>
     <use xlink:href="#DejaVuSans-Bold-2013" x="762.988281"/>
     <use xlink:href="#DejaVuSans-Bold-33" x="812.988281"/>
     <use xlink:href="#DejaVuSans-Bold-33" x="882.568359"/>
    </g>
    <!-- MPB Extraction -->
    <g transform="translate(41.694 187.028641) scale(0.11 -0.11)">
     <defs>
      <path id="DejaVuSans-Bold-4d" d="M 588 4666 
L 2119 4666 
L 3181 2169 
L 4250 4666 
L 5778 4666 
L 5778 0 
L 4641 0 
L 4641 3413 
L 3566 897 
L 2803 897 
L 1728 3413 
L 1728 0 
L 588 0 
L 588 4666 
z
" transform="scale(0.015625)"/>
      <path id="DejaVuSans-Bold-50" d="M 588 4666 
L 2584 4666 
Q 3475 4666 3951 4270 
Q 4428 3875 4428 3144 
Q 4428 2409 3951 2014 
Q 3475 1619 2584 1619 
L 1791 1619 
L 1791 0 
L 588 0 
L 588 4666 
z
M 1791 3794 
L 1791 2491 
L 2456 2491 
Q 2806 2491 2997 2661 
Q 3188 2831 3188 3144 
Q 3188 3456 2997 3625 
Q 2806 3794 2456 3794 
L 1791 3794 
z
" transform="scale(0.015625)"/>
      <path id="DejaVuSans-Bold-42" d="M 2456 2859 
Q 2741 2859 2887 2984 
Q 3034 3109 3034 3353 
Q 3034 3594 2887 3720 
Q 2741 3847 2456 3847 
L 1791 3847 
L 1791 2859 
L 2456 2859 
z
M 2497 819 
Q 2859 819 3042 972 
Q 3225 1125 3225 1434 
Q 3225 1738 3044 1889 
Q 2863 2041 2497 2041 
L 1791 2041 
L 1791 819 
L 2497 819 
z
M 3616 2497 
Q 4003 2384 4215 2081 
Q 4428 1778 4428 1338 
Q 4428 663 3972 331 
Q 3516 0 2584 0 
L 588 0 
L 588 4666 
L 2394 4666 
Q 3366 4666 3802 4372 
Q 4238 4078 4238 3431 
Q 4238 3091 4078 2852 
Q 3919 2613 3616 2497 
z
" transform="scale(0.015625)"/>
      <path id="DejaVuSans-Bold-45" d="M 588 4666 
L 3834 4666 
L 3834 3756 
L 1791 3756 
L 1791 2888 
L 3713 2888 
L 3713 1978 
L 1791 1978 
L 1791 909 
L 3903 909 
L 3903 0 
L 588 0 
L 588 4666 
z
" transform="scale(0.015625)"/>
      <path id="DejaVuSans-Bold-78" d="M 1422 1791 
L 159 3500 
L 1344 3500 
L 2059 2463 
L 2784 3500 
L 3969 3500 
L 2706 1797 
L 4031 0 
L 2847 0 
L 2059 1106 
L 1281 0 
L 97 0 
L 1422 1791 
z
" transform="scale(0.015625)"/>
      <path id="DejaVuSans-Bold-63" d="M 3366 3391 
L 3366 2478 
Q 3138 2634 2908 2709 
Q 2678 2784 2431 2784 
Q 1963 2784 1702 2511 
Q 1441 2238 1441 1747 
Q 1441 1256 1702 982 
Q 1963 709 2431 709 
Q 2694 709 2930 787 
Q 3166 866 3366 1019 
L 3366 103 
Q 3103 6 2833 -42 
Q 2563 -91 2291 -91 
Q 1344 -91 809 395 
Q 275 881 275 1747 
Q 275 2613 809 3098 
Q 1344 3584 2291 3584 
Q 2566 3584 2833 3536 
Q 3100 3488 3366 3391 
z
" transform="scale(0.015625)"/>
     </defs>
     <use xlink:href="#DejaVuSans-Bold-4d"/>
     <use xlink:href="#DejaVuSans-Bold-50" x="99.511719"/>
     <use xlink:href="#DejaVuSans-Bold-42" x="172.802734"/>
     <use xlink:href="#DejaVuSans-Bold-20" x="249.023438"/>
     <use xlink:href="#DejaVuSans-Bold-45" x="283.837891"/>
     <use xlink:href="#DejaVuSans-Bold-78" x="352.148438"/>
     <use xlink:href="#DejaVuSans-Bold-74" x="416.650391"/>
     <use xlink:href="#DejaVuSans-Bold-72" x="464.453125"/>
     <use xlink:href="#DejaVuSans-Bold-61" x="513.769531"/>
     <use xlink:href="#DejaVuSans-Bold-63" x="581.25"/>
     <use xlink:href="#DejaVuSans-Bold-74" x="640.527344"/>
     <use xlink:href="#DejaVuSans-Bold-69" x="688.330078"/>
     <use xlink:href="#DejaVuSans-Bold-6f" x="722.607422"/>
     <use xlink:href="#DejaVuSans-Bold-6e" x="791.308594"/>
    </g>
    <!-- (≥90% coverage, N≈2500) -->
    <g transform="translate(7.447047 199.346234) scale(0.11 -0.11)">
     <defs>
      <path id="DejaVuSans-Bold-28" d="M 2413 -844 
L 1484 -844 
Q 1006 -72 778 623 
Q 550 1319 550 2003 
Q 550 2688 779 3389 
Q 1009 4091 1484 4856 
L 2413 4856 
Q 2013 4116 1813 3408 
Q 1613 2700 1613 2009 
Q 1613 1319 1811 609 
Q 2009 -100 2413 -844 
z
" transform="scale(0.015625)"/>
      <path id="DejaVuSans-Bold-2265" d="M 678 744 
L 4684 744 
L 4684 0 
L 678 0 
L 678 744 
z
M 678 2963 
L 678 3725 
L 4684 2681 
L 4684 1947 
L 678 897 
L 678 1656 
L 3481 2309 
L 678 2963 
z
" transform="scale(0.015625)"/>
      <path id="DejaVuSans-Bold-39" d="M 641 103 
L 641 966 
Q 928 831 1190 764 
Q 1453 697 1709 697 
Q 2247 697 2547 995 
Q 2847 1294 2900 1881 
Q 2688 1725 2447 1647 
Q 2206 1569 1925 1569 
Q 1209 1569 770 1986 
Q 331 2403 331 3084 
Q 331 3838 820 4291 
Q 1309 4744 2131 4744 
Q 3044 4744 3544 4128 
Q 4044 3513 4044 2388 
Q 4044 1231 3459 570 
Q 2875 -91 1856 -91 
Q 1528 -91 1228 -42 
Q 928 6 641 103 
z
M 2125 2350 
Q 2441 2350 2600 2554 
Q 2759 2759 2759 3169 
Q 2759 3575 2600 3781 
Q 2441 3988 2125 3988 
Q 1809 3988 1650 3781 
Q 1491 3575 1491 3169 
Q 1491 2759 1650 2554 
Q 1809 2350 2125 2350 
z
" transform="scale(0.015625)"/>
      <path id="DejaVuSans-Bold-25" d="M 4959 1925 
Q 4738 1925 4616 1733 
Q 4494 1541 4494 1184 
Q 4494 825 4614 633 
Q 4734 441 4959 441 
Q 5184 441 5303 633 
Q 5422 825 5422 1184 
Q 5422 1541 5301 1733 
Q 5181 1925 4959 1925 
z
M 4959 2450 
Q 5541 2450 5875 2112 
Q 6209 1775 6209 1184 
Q 6209 594 5875 251 
Q 5541 -91 4959 -91 
Q 4378 -91 4042 251 
Q 3706 594 3706 1184 
Q 3706 1772 4042 2111 
Q 4378 2450 4959 2450 
z
M 2094 -91 
L 1403 -91 
L 4319 4750 
L 5013 4750 
L 2094 -91 
z
M 1453 4750 
Q 2034 4750 2367 4411 
Q 2700 4072 2700 3481 
Q 2700 2891 2367 2550 
Q 2034 2209 1453 2209 
Q 872 2209 539 2550 
Q 206 2891 206 3481 
Q 206 4072 539 4411 
Q 872 4750 1453 4750 
z
M 1453 4225 
Q 1228 4225 1106 4031 
Q 984 3838 984 3481 
Q 984 3122 1106 2926 
Q 1228 2731 1453 2731 
Q 1678 2731 1798 2926 
Q 1919 3122 1919 3481 
Q 1919 3838 1797 4031 
Q 1675 4225 1453 4225 
z
" transform="scale(0.015625)"/>
      <path id="DejaVuSans-Bold-76" d="M 97 3500 
L 1216 3500 
L 2088 1081 
L 2956 3500 
L 4078 3500 
L 2700 0 
L 1472 0 
L 97 3500 
z
" transform="scale(0.015625)"/>
      <path id="DejaVuSans-Bold-65" d="M 4031 1759 
L 4031 1441 
L 1416 1441 
Q 1456 1047 1700 850 
Q 1944 653 2381 653 
Q 2734 653 3104 758 
Q 3475 863 3866 1075 
L 3866 213 
Q 3469 63 3072 -14 
Q 2675 -91 2278 -91 
Q 1328 -91 801 392 
Q 275 875 275 1747 
Q 275 2603 792 3093 
Q 1309 3584 2216 3584 
Q 3041 3584 3536 3087 
Q 4031 2591 4031 1759 
z
M 2881 2131 
Q 2881 2450 2695 2645 
Q 2509 2841 2209 2841 
Q 1884 2841 1681 2658 
Q 1478 2475 1428 2131 
L 2881 2131 
z
" transform="scale(0.015625)"/>
      <path id="DejaVuSans-Bold-67" d="M 2919 594 
Q 2688 288 2409 144 
Q 2131 0 1766 0 
Q 1125 0 706 504 
Q 288 1009 288 1791 
Q 288 2575 706 3076 
Q 1125 3578 1766 3578 
Q 2131 3578 2409 3434 
Q 2688 3291 2919 2981 
L 2919 3500 
L 4044 3500 
L 4044 353 
Q 4044 -491 3511 -936 
Q 2978 -1381 1966 -1381 
Q 1638 -1381 1331 -1331 
Q 1025 -1281 716 -1178 
L 716 -306 
Q 1009 -475 1290 -558 
Q 1572 -641 1856 -641 
Q 2406 -641 2662 -400 
Q 2919 -159 2919 353 
L 2919 594 
z
M 2181 2772 
Q 1834 2772 1640 2515 
Q 1447 2259 1447 1791 
Q 1447 1309 1634 1061 
Q 1822 813 2181 813 
Q 2531 813 2725 1069 
Q 2919 1325 2919 1791 
Q 2919 2259 2725 2515 
Q 2531 2772 2181 2772 
z
" transform="scale(0.015625)"/>
      <path id="DejaVuSans-Bold-2c" d="M 653 1209 
L 1778 1209 
L 1778 256 
L 1006 -909 
L 341 -909 
L 653 256 
L 653 1209 
z
" transform="scale(0.015625)"/>
      <path id="DejaVuSans-Bold-2248" d="M 4684 3309 
L 4684 2547 
Q 4353 2297 4073 2189 
Q 3794 2081 3494 2081 
Q 3159 2081 2713 2263 
Q 2669 2281 2644 2291 
Q 2622 2300 2575 2319 
Q 2091 2509 1797 2509 
Q 1522 2509 1253 2389 
Q 984 2269 678 2009 
L 678 2772 
Q 1006 3016 1286 3123 
Q 1566 3231 1869 3231 
Q 2213 3231 2672 3047 
Q 2703 3034 2719 3028 
Q 2744 3019 2788 3000 
Q 3272 2809 3566 2809 
Q 3834 2809 4098 2926 
Q 4363 3044 4684 3309 
z
M 4684 2003 
L 4684 1241 
Q 4353 991 4073 883 
Q 3794 775 3494 775 
Q 3159 775 2713 956 
Q 2669 975 2641 988 
Q 2622 994 2575 1013 
Q 2091 1203 1797 1203 
Q 1522 1203 1253 1084 
Q 984 966 678 703 
L 678 1466 
Q 1013 1716 1291 1823 
Q 1569 1931 1869 1931 
Q 2203 1931 2650 1750 
Q 2697 1731 2719 1722 
Q 2744 1713 2788 1697 
Q 3272 1503 3566 1503 
Q 3834 1503 4098 1620 
Q 4363 1738 4684 2003 
z
" transform="scale(0.015625)"/>
      <path id="DejaVuSans-Bold-32" d="M 1844 884 
L 3897 884 
L 3897 0 
L 506 0 
L 506 884 
L 2209 2388 
Q 2438 2594 2547 2791 
Q 2656 2988 2656 3200 
Q 2656 3528 2436 3728 
Q 2216 3928 1850 3928 
Q 1569 3928 1234 3808 
Q 900 3688 519 3450 
L 519 4475 
Q 925 4609 1322 4679 
Q 1719 4750 2100 4750 
Q 2938 4750 3402 4381 
Q 3866 4013 3866 3353 
Q 3866 2972 3669 2642 
Q 3472 2313 2841 1759 
L 1844 884 
z
" transform="scale(0.015625)"/>
      <path id="DejaVuSans-Bold-35" d="M 678 4666 
L 3669 4666 
L 3669 3781 
L 1638 3781 
L 1638 3059 
Q 1775 3097 1914 3117 
Q 2053 3138 2203 3138 
Q 3056 3138 3531 2711 
Q 4006 2284 4006 1522 
Q 4006 766 3489 337 
Q 2972 -91 2053 -91 
Q 1656 -91 1267 -14 
Q 878 63 494 219 
L 494 1166 
Q 875 947 1217 837 
Q 1559 728 1863 728 
Q 2300 728 2551 942 
Q 2803 1156 2803 1522 
Q 2803 1891 2551 2103 
Q 2300 2316 1863 2316 
Q 1603 2316 1309 2248 
Q 1016 2181 678 2041 
L 678 4666 
z
" transform="scale(0.015625)"/>
      <path id="DejaVuSans-Bold-29" d="M 513 -844 
Q 913 -100 1113 609 
Q 1313 1319 1313 2009 
Q 1313 2700 1113 3408 
Q 913 4116 513 4856 
L 1441 4856 
Q 1916 4091 2145 3389 
Q 2375 2688 2375 2003 
Q 2375 1319 2147 623 
Q 1919 -72 1441 -844 
L 513 -844 
z
" transform="scale(0.015625)"/>
     </defs>
     <use xlink:href="#DejaVuSans-Bold-28"/>
     <use xlink:href="#DejaVuSans-Bold-2265" x="45.703125"/>
     <use xlink:href="#DejaVuSans-Bold-39" x="129.492188"/>
     <use xlink:href="#DejaVuSans-Bold-30" x="199.072266"/>
     <use xlink:href="#DejaVuSans-Bold-25" x="268.652344"/>
     <use xlink:href="#DejaVuSans-Bold-20" x="368.847656"/>
     <use xlink:href="#DejaVuSans-Bold-63" x="403.662109"/>
     <use xlink:href="#DejaVuSans-Bold-6f" x="462.939453"/>
     <use xlink:href="#DejaVuSans-Bold-76" x="531.640625"/>
     <use xlink:href="#DejaVuSans-Bold-65" x="596.826172"/>
     <use xlink:href="#DejaVuSans-Bold-72" x="664.648438"/>
     <use xlink:href="#DejaVuSans-Bold-61" x="713.964844"/>
     <use xlink:href="#DejaVuSans-Bold-67" x="781.445312"/>
     <use xlink:href="#DejaVuSans-Bold-65" x="853.027344"/>
     <use xlink:href="#DejaVuSans-Bold-2c" x="920.849609"/>
     <use xlink:href="#DejaVuSans-Bold-20" x="958.837891"/>
     <use xlink:href="#DejaVuSans-Bold-4e" x="993.652344"/>
     <use xlink:href="#DejaVuSans-Bold-2248" x="1077.34375"/>
     <use xlink:href="#DejaVuSans-Bold-32" x="1161.132812"/>
     <use xlink:href="#DejaVuSans-Bold-35" x="1230.712891"/>
     <use xlink:href="#DejaVuSans-Bold-30" x="1300.292969"/>
     <use xlink:href="#DejaVuSans-Bold-30" x="1369.873047"/>
     <use xlink:href="#DejaVuSans-Bold-29" x="1439.453125"/>
    </g>
   </g>
   <g id="text_2">
    <!-- Preprocessing -->
    <g transform="translate(214.614813 162.436422) scale(0.11 -0.11)">
     <defs>
      <path id="DejaVuSans-50" d="M 1259 4147 
L 1259 2394 
L 2053 2394 
Q 2494 2394 2734 2622 
Q 2975 2850 2975 3272 
Q 2975 3691 2734 3919 
Q 2494 4147 2053 4147 
L 1259 4147 
z
M 628 4666 
L 2053 4666 
Q 2838 4666 3239 4311 
Q 3641 3956 3641 3272 
Q 3641 2581 3239 2228 
Q 2838 1875 2053 1875 
L 1259 1875 
L 1259 0 
L 628 0 
L 628 4666 
z
" transform="scale(0.015625)"/>
      <path id="DejaVuSans-72" d="M 2631 2963 
Q 2534 3019 2420 3045 
Q 2306 3072 2169 3072 
Q 1681 3072 1420 2755 
Q 1159 2438 1159 1844 
L 1159 0 
L 581 0 
L 581 3500 
L 1159 3500 
L 1159 2956 
Q 1341 3275 1631 3429 
Q 1922 3584 2338 3584 
Q 2397 3584 2469 3576 
Q 2541 3569 2628 3553 
L 2631 2963 
z
" transform="scale(0.015625)"/>
      <path id="DejaVuSans-65" d="M 3597 1894 
L 3597 1613 
L 953 1613 
Q 991 1019 1311 708 
Q 1631 397 2203 397 
Q 2534 397 2845 478 
Q 3156 559 3463 722 
L 3463 178 
Q 3153 47 2828 -22 
Q 2503 -91 2169 -91 
Q 1331 -91 842 396 
Q 353 884 353 1716 
Q 353 2575 817 3079 
Q 1281 3584 2069 3584 
Q 2775 3584 3186 3129 
Q 3597 2675 3597 1894 
z
M 3022 2063 
Q 3016 2534 2758 2815 
Q 2500 3097 2075 3097 
Q 1594 3097 1305 2825 
Q 1016 2553 972 2059 
L 3022 2063 
z
" transform="scale(0.015625)"/>
      <path id="DejaVuSans-70" d="M 1159 525 
L 1159 -1331 
L 581 -1331 
L 581 3500 
L 1159 3500 
L 1159 2969 
Q 1341 3281 1617 3432 
Q 1894 3584 2278 3584 
Q 2916 3584 3314 3078 
Q 3713 2572 3713 1747 
Q 3713 922 3314 415 
Q 2916 -91 2278 -91 
Q 1894 -91 1617 61 
Q 1341 213 1159 525 
z
M 3116 1747 
Q 3116 2381 2855 2742 
Q 2594 3103 2138 3103 
Q 1681 3103 1420 2742 
Q 1159 2381 1159 1747 
Q 1159 1113 1420 752 
Q 1681 391 2138 391 
Q 2594 391 2855 752 
Q 3116 1113 3116 1747 
z
" transform="scale(0.015625)"/>
      <path id="DejaVuSans-6f" d="M 1959 3097 
Q 1497 3097 1228 2736 
Q 959 2375 959 1747 
Q 959 1119 1226 758 
Q 1494 397 1959 397 
Q 2419 397 2687 759 
Q 2956 1122 2956 1747 
Q 2956 2369 2687 2733 
Q 2419 3097 1959 3097 
z
M 1959 3584 
Q 2709 3584 3137 3096 
Q 3566 2609 3566 1747 
Q 3566 888 3137 398 
Q 2709 -91 1959 -91 
Q 1206 -91 779 398 
Q 353 888 353 1747 
Q 353 2609 779 3096 
Q 1206 3584 1959 3584 
z
" transform="scale(0.015625)"/>
      <path id="DejaVuSans-63" d="M 3122 3366 
L 3122 2828 
Q 2878 2963 2633 3030 
Q 2388 3097 2138 3097 
Q 1578 3097 1268 2742 
Q 959 2388 959 1747 
Q 959 1106 1268 751 
Q 1578 397 2138 397 
Q 2388 397 2633 464 
Q 2878 531 3122 666 
L 3122 134 
Q 2881 22 2623 -34 
Q 2366 -91 2075 -91 
Q 1284 -91 818 406 
Q 353 903 353 1747 
Q 353 2603 823 3093 
Q 1294 3584 2113 3584 
Q 2378 3584 2631 3529 
Q 2884 3475 3122 3366 
z
" transform="scale(0.015625)"/>
      <path id="DejaVuSans-73" d="M 2834 3397 
L 2834 2853 
Q 2591 2978 2328 3040 
Q 2066 3103 1784 3103 
Q 1356 3103 1142 2972 
Q 928 2841 928 2578 
Q 928 2378 1081 2264 
Q 1234 2150 1697 2047 
L 1894 2003 
Q 2506 1872 2764 1633 
Q 3022 1394 3022 966 
Q 3022 478 2636 193 
Q 2250 -91 1575 -91 
Q 1294 -91 989 -36 
Q 684 19 347 128 
L 347 722 
Q 666 556 975 473 
Q 1284 391 1588 391 
Q 1994 391 2212 530 
Q 2431 669 2431 922 
Q 2431 1156 2273 1281 
Q 2116 1406 1581 1522 
L 1381 1569 
Q 847 1681 609 1914 
Q 372 2147 372 2553 
Q 372 3047 722 3315 
Q 1072 3584 1716 3584 
Q 2034 3584 2315 3537 
Q 2597 3491 2834 3397 
z
" transform="scale(0.015625)"/>
      <path id="DejaVuSans-69" d="M 603 3500 
L 1178 3500 
L 1178 0 
L 603 0 
L 603 3500 
z
M 603 4863 
L 1178 4863 
L 1178 4134 
L 603 4134 
L 603 4863 
z
" transform="scale(0.015625)"/>
      <path id="DejaVuSans-6e" d="M 3513 2113 
L 3513 0 
L 2938 0 
L 2938 2094 
Q 2938 2591 2744 2837 
Q 2550 3084 2163 3084 
Q 1697 3084 1428 2787 
Q 1159 2491 1159 1978 
L 1159 0 
L 581 0 
L 581 3500 
L 1159 3500 
L 1159 2956 
Q 1366 3272 1645 3428 
Q 1925 3584 2291 3584 
Q 2894 3584 3203 3211 
Q 3513 2838 3513 2113 
z
" transform="scale(0.015625)"/>
      <path id="DejaVuSans-67" d="M 2906 1791 
Q 2906 2416 2648 2759 
Q 2391 3103 1925 3103 
Q 1463 3103 1205 2759 
Q 947 2416 947 1791 
Q 947 1169 1205 825 
Q 1463 481 1925 481 
Q 2391 481 2648 825 
Q 2906 1169 2906 1791 
z
M 3481 434 
Q 3481 -459 3084 -895 
Q 2688 -1331 1869 -1331 
Q 1566 -1331 1297 -1286 
Q 1028 -1241 775 -1147 
L 775 -588 
Q 1028 -725 1275 -790 
Q 1522 -856 1778 -856 
Q 2344 -856 2625 -561 
Q 2906 -266 2906 331 
L 2906 616 
Q 2728 306 2450 153 
Q 2172 0 1784 0 
Q 1141 0 747 490 
Q 353 981 353 1791 
Q 353 2603 747 3093 
Q 1141 3584 1784 3584 
Q 2172 3584 2450 3431 
Q 2728 3278 2906 2969 
L 2906 3500 
L 3481 3500 
L 3481 434 
z
" transform="scale(0.015625)"/>
     </defs>
     <use xlink:href="#DejaVuSans-50"/>
     <use xlink:href="#DejaVuSans-72" x="58.552734"/>
     <use xlink:href="#DejaVuSans-65" x="97.416016"/>
     <use xlink:href="#DejaVuSans-70" x="158.939453"/>
     <use xlink:href="#DejaVuSans-72" x="222.416016"/>
     <use xlink:href="#DejaVuSans-6f" x="261.279297"/>
     <use xlink:href="#DejaVuSans-63" x="322.460938"/>
     <use xlink:href="#DejaVuSans-65" x="377.441406"/>
     <use xlink:href="#DejaVuSans-73" x="438.964844"/>
     <use xlink:href="#DejaVuSans-73" x="491.064453"/>
     <use xlink:href="#DejaVuSans-69" x="543.164062"/>
     <use xlink:href="#DejaVuSans-6e" x="570.947266"/>
     <use xlink:href="#DejaVuSans-67" x="634.326172"/>
    </g>
    <!-- • Select features -->
    <g transform="translate(206.566766 174.754016) scale(0.11 -0.11)">
     <defs>
      <path id="DejaVuSans-2022" d="M 959 2381 
Q 959 2769 1229 3036 
Q 1500 3303 1894 3303 
Q 2281 3303 2548 3036 
Q 2816 2769 2816 2381 
Q 2816 1991 2547 1722 
Q 2278 1453 1888 1453 
Q 1497 1453 1228 1722 
Q 959 1991 959 2381 
z
" transform="scale(0.015625)"/>
      <path id="DejaVuSans-20" transform="scale(0.015625)"/>
      <path id="DejaVuSans-53" d="M 3425 4513 
L 3425 3897 
Q 3066 4069 2747 4153 
Q 2428 4238 2131 4238 
Q 1616 4238 1336 4038 
Q 1056 3838 1056 3469 
Q 1056 3159 1242 3001 
Q 1428 2844 1947 2747 
L 2328 2669 
Q 3034 2534 3370 2195 
Q 3706 1856 3706 1288 
Q 3706 609 3251 259 
Q 2797 -91 1919 -91 
Q 1588 -91 1214 -16 
Q 841 59 441 206 
L 441 856 
Q 825 641 1194 531 
Q 1563 422 1919 422 
Q 2459 422 2753 634 
Q 3047 847 3047 1241 
Q 3047 1584 2836 1778 
Q 2625 1972 2144 2069 
L 1759 2144 
Q 1053 2284 737 2584 
Q 422 2884 422 3419 
Q 422 4038 858 4394 
Q 1294 4750 2059 4750 
Q 2388 4750 2728 4690 
Q 3069 4631 3425 4513 
z
" transform="scale(0.015625)"/>
      <path id="DejaVuSans-6c" d="M 603 4863 
L 1178 4863 
L 1178 0 
L 603 0 
L 603 4863 
z
" transform="scale(0.015625)"/>
      <path id="DejaVuSans-74" d="M 1172 4494 
L 1172 3500 
L 2356 3500 
L 2356 3053 
L 1172 3053 
L 1172 1153 
Q 1172 725 1289 603 
Q 1406 481 1766 481 
L 2356 481 
L 2356 0 
L 1766 0 
Q 1100 0 847 248 
Q 594 497 594 1153 
L 594 3053 
L 172 3053 
L 172 3500 
L 594 3500 
L 594 4494 
L 1172 4494 
z
" transform="scale(0.015625)"/>
      <path id="DejaVuSans-66" d="M 2375 4863 
L 2375 4384 
L 1825 4384 
Q 1516 4384 1395 4259 
Q 1275 4134 1275 3809 
L 1275 3500 
L 2222 3500 
L 2222 3053 
L 1275 3053 
L 1275 0 
L 697 0 
L 697 3053 
L 147 3053 
L 147 3500 
L 697 3500 
L 697 3744 
Q 697 4328 969 4595 
Q 1241 4863 1831 4863 
L 2375 4863 
z
" transform="scale(0.015625)"/>
      <path id="DejaVuSans-61" d="M 2194 1759 
Q 1497 1759 1228 1600 
Q 959 1441 959 1056 
Q 959 750 1161 570 
Q 1363 391 1709 391 
Q 2188 391 2477 730 
Q 2766 1069 2766 1631 
L 2766 1759 
L 2194 1759 
z
M 3341 1997 
L 3341 0 
L 2766 0 
L 2766 531 
Q 2569 213 2275 61 
Q 1981 -91 1556 -91 
Q 1019 -91 701 211 
Q 384 513 384 1019 
Q 384 1609 779 1909 
Q 1175 2209 1959 2209 
L 2766 2209 
L 2766 2266 
Q 2766 2663 2505 2880 
Q 2244 3097 1772 3097 
Q 1472 3097 1187 3025 
Q 903 2953 641 2809 
L 641 3341 
Q 956 3463 1253 3523 
Q 1550 3584 1831 3584 
Q 2591 3584 2966 3190 
Q 3341 2797 3341 1997 
z
" transform="scale(0.015625)"/>
      <path id="DejaVuSans-75" d="M 544 1381 
L 544 3500 
L 1119 3500 
L 1119 1403 
Q 1119 906 1312 657 
Q 1506 409 1894 409 
Q 2359 409 2629 706 
Q 2900 1003 2900 1516 
L 2900 3500 
L 3475 3500 
L 3475 0 
L 2900 0 
L 2900 538 
Q 2691 219 2414 64 
Q 2138 -91 1772 -91 
Q 1169 -91 856 284 
Q 544 659 544 1381 
z
M 1991 3584 
L 1991 3584 
z
" transform="scale(0.015625)"/>
     </defs>
     <use xlink:href="#DejaVuSans-2022"/>
     <use xlink:href="#DejaVuSans-20" x="58.984375"/>
     <use xlink:href="#DejaVuSans-53" x="90.771484"/>
     <use xlink:href="#DejaVuSans-65" x="154.248047"/>
     <use xlink:href="#DejaVuSans-6c" x="215.771484"/>
     <use xlink:href="#DejaVuSans-65" x="243.554688"/>
     <use xlink:href="#DejaVuSans-63" x="305.078125"/>
     <use xlink:href="#DejaVuSans-74" x="360.058594"/>
     <use xlink:href="#DejaVuSans-20" x="399.267578"/>
     <use xlink:href="#DejaVuSans-66" x="431.054688"/>
     <use xlink:href="#DejaVuSans-65" x="466.259766"/>
     <use xlink:href="#DejaVuSans-61" x="527.783203"/>
     <use xlink:href="#DejaVuSans-74" x="589.0625"/>
     <use xlink:href="#DejaVuSans-75" x="628.271484"/>
     <use xlink:href="#DejaVuSans-72" x="691.650391"/>
     <use xlink:href="#DejaVuSans-65" x="730.513672"/>
     <use xlink:href="#DejaVuSans-73" x="792.037109"/>
    </g>
    <!-- • Handle coverage -->
    <g transform="translate(201.322 187.071609) scale(0.11 -0.11)">
     <defs>
      <path id="DejaVuSans-48" d="M 628 4666 
L 1259 4666 
L 1259 2753 
L 3553 2753 
L 3553 4666 
L 4184 4666 
L 4184 0 
L 3553 0 
L 3553 2222 
L 1259 2222 
L 1259 0 
L 628 0 
L 628 4666 
z
" transform="scale(0.015625)"/>
      <path id="DejaVuSans-64" d="M 2906 2969 
L 2906 4863 
L 3481 4863 
L 3481 0 
L 2906 0 
L 2906 525 
Q 2725 213 2448 61 
Q 2172 -91 1784 -91 
Q 1150 -91 751 415 
Q 353 922 353 1747 
Q 353 2572 751 3078 
Q 1150 3584 1784 3584 
Q 2172 3584 2448 3432 
Q 2725 3281 2906 2969 
z
M 947 1747 
Q 947 1113 1208 752 
Q 1469 391 1925 391 
Q 2381 391 2643 752 
Q 2906 1113 2906 1747 
Q 2906 2381 2643 2742 
Q 2381 3103 1925 3103 
Q 1469 3103 1208 2742 
Q 947 2381 947 1747 
z
" transform="scale(0.015625)"/>
      <path id="DejaVuSans-76" d="M 191 3500 
L 800 3500 
L 1894 563 
L 2988 3500 
L 3597 3500 
L 2284 0 
L 1503 0 
L 191 3500 
z
" transform="scale(0.015625)"/>
     </defs>
     <use xlink:href="#DejaVuSans-2022"/>
     <use xlink:href="#DejaVuSans-20" x="58.984375"/>
     <use xlink:href="#DejaVuSans-48" x="90.771484"/>
     <use xlink:href="#DejaVuSans-61" x="165.966797"/>
     <use xlink:href="#DejaVuSans-6e" x="227.246094"/>
     <use xlink:href="#DejaVuSans-64" x="290.625"/>
     <use xlink:href="#DejaVuSans-6c" x="354.101562"/>
     <use xlink:href="#DejaVuSans-65" x="381.884766"/>
     <use xlink:href="#DejaVuSans-20" x="443.408203"/>
     <use xlink:href="#DejaVuSans-63" x="475.195312"/>
     <use xlink:href="#DejaVuSans-6f" x="530.175781"/>
     <use xlink:href="#DejaVuSans-76" x="591.357422"/>
     <use xlink:href="#DejaVuSans-65" x="650.537109"/>
     <use xlink:href="#DejaVuSans-72" x="712.060547"/>
     <use xlink:href="#DejaVuSans-61" x="753.173828"/>
     <use xlink:href="#DejaVuSans-67" x="814.453125"/>
     <use xlink:href="#DejaVuSans-65" x="877.929688"/>
    </g>
    <!-- • Standardize (z-score) -->
    <g transform="translate(189.494422 199.389203) scale(0.11 -0.11)">
     <defs>
      <path id="DejaVuSans-7a" d="M 353 3500 
L 3084 3500 
L 3084 2975 
L 922 459 
L 3084 459 
L 3084 0 
L 275 0 
L 275 525 
L 2438 3041 
L 353 3041 
L 353 3500 
z
" transform="scale(0.015625)"/>
      <path id="DejaVuSans-28" d="M 1984 4856 
Q 1566 4138 1362 3434 
Q 1159 2731 1159 2009 
Q 1159 1288 1364 580 
Q 1569 -128 1984 -844 
L 1484 -844 
Q 1016 -109 783 600 
Q 550 1309 550 2009 
Q 550 2706 781 3412 
Q 1013 4119 1484 4856 
L 1984 4856 
z
" transform="scale(0.015625)"/>
      <path id="DejaVuSans-2d" d="M 313 2009 
L 1997 2009 
L 1997 1497 
L 313 1497 
L 313 2009 
z
" transform="scale(0.015625)"/>
      <path id="DejaVuSans-29" d="M 513 4856 
L 1013 4856 
Q 1481 4119 1714 3412 
Q 1947 2706 1947 2009 
Q 1947 1309 1714 600 
Q 1481 -109 1013 -844 
L 513 -844 
Q 928 -128 1133 580 
Q 1338 1288 1338 2009 
Q 1338 2731 1133 3434 
Q 928 4138 513 4856 
z
" transform="scale(0.015625)"/>
     </defs>
     <use xlink:href="#DejaVuSans-2022"/>
     <use xlink:href="#DejaVuSans-20" x="58.984375"/>
     <use xlink:href="#DejaVuSans-53" x="90.771484"/>
     <use xlink:href="#DejaVuSans-74" x="154.248047"/>
     <use xlink:href="#DejaVuSans-61" x="193.457031"/>
     <use xlink:href="#DejaVuSans-6e" x="254.736328"/>
     <use xlink:href="#DejaVuSans-64" x="318.115234"/>
     <use xlink:href="#DejaVuSans-61" x="381.591797"/>
     <use xlink:href="#DejaVuSans-72" x="442.871094"/>
     <use xlink:href="#DejaVuSans-64" x="482.234375"/>
     <use xlink:href="#DejaVuSans-69" x="545.710938"/>
     <use xlink:href="#DejaVuSans-7a" x="573.494141"/>
     <use xlink:href="#DejaVuSans-65" x="625.984375"/>
     <use xlink:href="#DejaVuSans-20" x="687.507812"/>
     <use xlink:href="#DejaVuSans-28" x="719.294922"/>
     <use xlink:href="#DejaVuSans-7a" x="758.308594"/>
     <use xlink:href="#DejaVuSans-2d" x="810.798828"/>
     <use xlink:href="#DejaVuSans-73" x="846.882812"/>
     <use xlink:href="#DejaVuSans-63" x="898.982422"/>
     <use xlink:href="#DejaVuSans-6f" x="953.962891"/>
     <use xlink:href="#DejaVuSans-72" x="1015.144531"/>
     <use xlink:href="#DejaVuSans-65" x="1054.007812"/>
     <use xlink:href="#DejaVuSans-29" x="1115.53125"/>
    </g>
   </g>
   <g id="text_3">
    <!-- Train/Val/Test Split -->
    <g transform="translate(366.951016 174.754016) scale(0.11 -0.11)">
     <defs>
      <path id="DejaVuSans-54" d="M -19 4666 
L 3928 4666 
L 3928 4134 
L 2272 4134 
L 2272 0 
L 1638 0 
L 1638 4134 
L -19 4134 
L -19 4666 
z
" transform="scale(0.015625)"/>
      <path id="DejaVuSans-2f" d="M 1625 4666 
L 2156 4666 
L 531 -594 
L 0 -594 
L 1625 4666 
z
" transform="scale(0.015625)"/>
      <path id="DejaVuSans-56" d="M 1831 0 
L 50 4666 
L 709 4666 
L 2188 738 
L 3669 4666 
L 4325 4666 
L 2547 0 
L 1831 0 
z
" transform="scale(0.015625)"/>
     </defs>
     <use xlink:href="#DejaVuSans-54"/>
     <use xlink:href="#DejaVuSans-72" x="46.333984"/>
     <use xlink:href="#DejaVuSans-61" x="87.447266"/>
     <use xlink:href="#DejaVuSans-69" x="148.726562"/>
     <use xlink:href="#DejaVuSans-6e" x="176.509766"/>
     <use xlink:href="#DejaVuSans-2f" x="239.888672"/>
     <use xlink:href="#DejaVuSans-56" x="273.580078"/>
     <use xlink:href="#DejaVuSans-61" x="334.238281"/>
     <use xlink:href="#DejaVuSans-6c" x="395.517578"/>
     <use xlink:href="#DejaVuSans-2f" x="423.300781"/>
     <use xlink:href="#DejaVuSans-54" x="456.992188"/>
     <use xlink:href="#DejaVuSans-65" x="501.076172"/>
     <use xlink:href="#DejaVuSans-73" x="562.599609"/>
     <use xlink:href="#DejaVuSans-74" x="614.699219"/>
     <use xlink:href="#DejaVuSans-20" x="653.908203"/>
     <use xlink:href="#DejaVuSans-53" x="685.695312"/>
     <use xlink:href="#DejaVuSans-70" x="749.171875"/>
     <use xlink:href="#DejaVuSans-6c" x="812.648438"/>
     <use xlink:href="#DejaVuSans-69" x="840.431641"/>
     <use xlink:href="#DejaVuSans-74" x="868.214844"/>
    </g>
    <!-- by Subhalo ID -->
    <g transform="translate(378.538828 187.071609) scale(0.11 -0.11)">
     <defs>
      <path id="DejaVuSans-62" d="M 3116 1747 
Q 3116 2381 2855 2742 
Q 2594 3103 2138 3103 
Q 1681 3103 1420 2742 
Q 1159 2381 1159 1747 
Q 1159 1113 1420 752 
Q 1681 391 2138 391 
Q 2594 391 2855 752 
Q 3116 1113 3116 1747 
z
M 1159 2969 
Q 1341 3281 1617 3432 
Q 1894 3584 2278 3584 
Q 2916 3584 3314 3078 
Q 3713 2572 3713 1747 
Q 3713 922 3314 415 
Q 2916 -91 2278 -91 
Q 1894 -91 1617 61 
Q 1341 213 1159 525 
L 1159 0 
L 581 0 
L 581 4863 
L 1159 4863 
L 1159 2969 
z
" transform="scale(0.015625)"/>
      <path id="DejaVuSans-79" d="M 2059 -325 
Q 1816 -950 1584 -1140 
Q 1353 -1331 966 -1331 
L 506 -1331 
L 506 -850 
L 844 -850 
Q 1081 -850 1212 -737 
Q 1344 -625 1503 -206 
L 1606 56 
L 191 3500 
L 800 3500 
L 1894 763 
L 2988 3500 
L 3597 3500 
L 2059 -325 
z
" transform="scale(0.015625)"/>
      <path id="DejaVuSans-68" d="M 3513 2113 
L 3513 0 
L 2938 0 
L 2938 2094 
Q 2938 2591 2744 2837 
Q 2550 3084 2163 3084 
Q 1697 3084 1428 2787 
Q 1159 2491 1159 1978 
L 1159 0 
L 581 0 
L 581 4863 
L 1159 4863 
L 1159 2956 
Q 1366 3272 1645 3428 
Q 1925 3584 2291 3584 
Q 2894 3584 3203 3211 
Q 3513 2838 3513 2113 
z
" transform="scale(0.015625)"/>
      <path id="DejaVuSans-49" d="M 628 4666 
L 1259 4666 
L 1259 0 
L 628 0 
L 628 4666 
z
" transform="scale(0.015625)"/>
      <path id="DejaVuSans-44" d="M 1259 4147 
L 1259 519 
L 2022 519 
Q 2988 519 3436 956 
Q 3884 1394 3884 2338 
Q 3884 3275 3436 3711 
Q 2988 4147 2022 4147 
L 1259 4147 
z
M 628 4666 
L 1925 4666 
Q 3281 4666 3915 4102 
Q 4550 3538 4550 2338 
Q 4550 1131 3912 565 
Q 3275 0 1925 0 
L 628 0 
L 628 4666 
z
" transform="scale(0.015625)"/>
     </defs>
     <use xlink:href="#DejaVuSans-62"/>
     <use xlink:href="#DejaVuSans-79" x="63.476562"/>
     <use xlink:href="#DejaVuSans-20" x="122.65625"/>
     <use xlink:href="#DejaVuSans-53" x="154.443359"/>
     <use xlink:href="#DejaVuSans-75" x="217.919922"/>
     <use xlink:href="#DejaVuSans-62" x="281.298828"/>
     <use xlink:href="#DejaVuSans-68" x="344.775391"/>
     <use xlink:href="#DejaVuSans-61" x="408.154297"/>
     <use xlink:href="#DejaVuSans-6c" x="469.433594"/>
     <use xlink:href="#DejaVuSans-6f" x="497.216797"/>
     <use xlink:href="#DejaVuSans-20" x="558.398438"/>
     <use xlink:href="#DejaVuSans-49" x="590.185547"/>
     <use xlink:href="#DejaVuSans-44" x="619.677734"/>
    </g>
   </g>
   <g id="text_4">
    <!-- Modeling -->
    <g transform="translate(555.700656 168.595219) scale(0.11 -0.11)">
     <defs>
      <path id="DejaVuSans-4d" d="M 628 4666 
L 1569 4666 
L 2759 1491 
L 3956 4666 
L 4897 4666 
L 4897 0 
L 4281 0 
L 4281 4097 
L 3078 897 
L 2444 897 
L 1241 4097 
L 1241 0 
L 628 0 
L 628 4666 
z
" transform="scale(0.015625)"/>
     </defs>
     <use xlink:href="#DejaVuSans-4d"/>
     <use xlink:href="#DejaVuSans-6f" x="86.279297"/>
     <use xlink:href="#DejaVuSans-64" x="147.460938"/>
     <use xlink:href="#DejaVuSans-65" x="210.9375"/>
     <use xlink:href="#DejaVuSans-6c" x="272.460938"/>
     <use xlink:href="#DejaVuSans-69" x="300.244141"/>
     <use xlink:href="#DejaVuSans-6e" x="328.027344"/>
     <use xlink:href="#DejaVuSans-67" x="391.40625"/>
    </g>
    <!-- LSTM Forecaster -->
    <g transform="translate(535.399641 180.912813) scale(0.11 -0.11)">
     <defs>
      <path id="DejaVuSans-4c" d="M 628 4666 
L 1259 4666 
L 1259 531 
L 3531 531 
L 3531 0 
L 628 0 
L 628 4666 
z
" transform="scale(0.015625)"/>
      <path id="DejaVuSans-46" d="M 628 4666 
L 3309 4666 
L 3309 4134 
L 1259 4134 
L 1259 2759 
L 3109 2759 
L 3109 2228 
L 1259 2228 
L 1259 0 
L 628 0 
L 628 4666 
z
" transform="scale(0.015625)"/>
     </defs>
     <use xlink:href="#DejaVuSans-4c"/>
     <use xlink:href="#DejaVuSans-53" x="55.712891"/>
     <use xlink:href="#DejaVuSans-54" x="119.189453"/>
     <use xlink:href="#DejaVuSans-4d" x="180.273438"/>
     <use xlink:href="#DejaVuSans-20" x="266.552734"/>
     <use xlink:href="#DejaVuSans-46" x="298.339844"/>
     <use xlink:href="#DejaVuSans-6f" x="352.234375"/>
     <use xlink:href="#DejaVuSans-72" x="413.416016"/>
     <use xlink:href="#DejaVuSans-65" x="452.279297"/>
     <use xlink:href="#DejaVuSans-63" x="513.802734"/>
     <use xlink:href="#DejaVuSans-61" x="568.783203"/>
     <use xlink:href="#DejaVuSans-73" x="630.0625"/>
     <use xlink:href="#DejaVuSans-74" x="682.162109"/>
     <use xlink:href="#DejaVuSans-65" x="721.371094"/>
     <use xlink:href="#DejaVuSans-72" x="782.894531"/>
    </g>
    <!-- (H=[1,3,5]) -->
    <g transform="translate(549.398 193.230406) scale(0.11 -0.11)">
     <defs>
      <path id="DejaVuSans-3d" d="M 678 2906 
L 4684 2906 
L 4684 2381 
L 678 2381 
L 678 2906 
z
M 678 1631 
L 4684 1631 
L 4684 1100 
L 678 1100 
L 678 1631 
z
" transform="scale(0.015625)"/>
      <path id="DejaVuSans-5b" d="M 550 4863 
L 1875 4863 
L 1875 4416 
L 1125 4416 
L 1125 -397 
L 1875 -397 
L 1875 -844 
L 550 -844 
L 550 4863 
z
" transform="scale(0.015625)"/>
      <path id="DejaVuSans-31" d="M 794 531 
L 1825 531 
L 1825 4091 
L 703 3866 
L 703 4441 
L 1819 4666 
L 2450 4666 
L 2450 531 
L 3481 531 
L 3481 0 
L 794 0 
L 794 531 
z
" transform="scale(0.015625)"/>
      <path id="DejaVuSans-2c" d="M 750 794 
L 1409 794 
L 1409 256 
L 897 -744 
L 494 -744 
L 750 256 
L 750 794 
z
" transform="scale(0.015625)"/>
      <path id="DejaVuSans-33" d="M 2597 2516 
Q 3050 2419 3304 2112 
Q 3559 1806 3559 1356 
Q 3559 666 3084 287 
Q 2609 -91 1734 -91 
Q 1441 -91 1130 -33 
Q 819 25 488 141 
L 488 750 
Q 750 597 1062 519 
Q 1375 441 1716 441 
Q 2309 441 2620 675 
Q 2931 909 2931 1356 
Q 2931 1769 2642 2001 
Q 2353 2234 1838 2234 
L 1294 2234 
L 1294 2753 
L 1863 2753 
Q 2328 2753 2575 2939 
Q 2822 3125 2822 3475 
Q 2822 3834 2567 4026 
Q 2313 4219 1838 4219 
Q 1578 4219 1281 4162 
Q 984 4106 628 3988 
L 628 4550 
Q 988 4650 1302 4700 
Q 1616 4750 1894 4750 
Q 2613 4750 3031 4423 
Q 3450 4097 3450 3541 
Q 3450 3153 3228 2886 
Q 3006 2619 2597 2516 
z
" transform="scale(0.015625)"/>
      <path id="DejaVuSans-35" d="M 691 4666 
L 3169 4666 
L 3169 4134 
L 1269 4134 
L 1269 2991 
Q 1406 3038 1543 3061 
Q 1681 3084 1819 3084 
Q 2600 3084 3056 2656 
Q 3513 2228 3513 1497 
Q 3513 744 3044 326 
Q 2575 -91 1722 -91 
Q 1428 -91 1123 -41 
Q 819 9 494 109 
L 494 744 
Q 775 591 1075 516 
Q 1375 441 1709 441 
Q 2250 441 2565 725 
Q 2881 1009 2881 1497 
Q 2881 1984 2565 2268 
Q 2250 2553 1709 2553 
Q 1456 2553 1204 2497 
Q 953 2441 691 2322 
L 691 4666 
z
" transform="scale(0.015625)"/>
      <path id="DejaVuSans-5d" d="M 1947 4863 
L 1947 -844 
L 622 -844 
L 622 -397 
L 1369 -397 
L 1369 4416 
L 622 4416 
L 622 4863 
L 1947 4863 
z
" transform="scale(0.015625)"/>
     </defs>
     <use xlink:href="#DejaVuSans-28"/>
     <use xlink:href="#DejaVuSans-48" x="39.013672"/>
     <use xlink:href="#DejaVuSans-3d" x="114.208984"/>
     <use xlink:href="#DejaVuSans-5b" x="197.998047"/>
     <use xlink:href="#DejaVuSans-31" x="237.011719"/>
     <use xlink:href="#DejaVuSans-2c" x="300.634766"/>
     <use xlink:href="#DejaVuSans-33" x="332.421875"/>
     <use xlink:href="#DejaVuSans-2c" x="396.044922"/>
     <use xlink:href="#DejaVuSans-35" x="427.832031"/>
     <use xlink:href="#DejaVuSans-5d" x="491.455078"/>
     <use xlink:href="#DejaVuSans-29" x="530.46875"/>
    </g>
   </g>
   <g id="text_5">
    <!-- Evaluation -->
    <g transform="translate(715.563266 156.277625) scale(0.11 -0.11)">
     <defs>
      <path id="DejaVuSans-45" d="M 628 4666 
L 3578 4666 
L 3578 4134 
L 1259 4134 
L 1259 2753 
L 3481 2753 
L 3481 2222 
L 1259 2222 
L 1259 531 
L 3634 531 
L 3634 0 
L 628 0 
L 628 4666 
z
" transform="scale(0.015625)"/>
     </defs>
     <use xlink:href="#DejaVuSans-45"/>
     <use xlink:href="#DejaVuSans-76" x="63.183594"/>
     <use xlink:href="#DejaVuSans-61" x="122.363281"/>
     <use xlink:href="#DejaVuSans-6c" x="183.642578"/>
     <use xlink:href="#DejaVuSans-75" x="211.425781"/>
     <use xlink:href="#DejaVuSans-61" x="274.804688"/>
     <use xlink:href="#DejaVuSans-74" x="336.083984"/>
     <use xlink:href="#DejaVuSans-69" x="375.292969"/>
     <use xlink:href="#DejaVuSans-6f" x="403.076172"/>
     <use xlink:href="#DejaVuSans-6e" x="464.257812"/>
    </g>
    <!-- • RMSE per horizon/feature -->
    <g transform="translate(669.340063 168.595219) scale(0.11 -0.11)">
     <defs>
      <path id="DejaVuSans-52" d="M 2841 2188 
Q 3044 2119 3236 1894 
Q 3428 1669 3622 1275 
L 4263 0 
L 3584 0 
L 2988 1197 
Q 2756 1666 2539 1819 
Q 2322 1972 1947 1972 
L 1259 1972 
L 1259 0 
L 628 0 
L 628 4666 
L 2053 4666 
Q 2853 4666 3247 4331 
Q 3641 3997 3641 3322 
Q 3641 2881 3436 2590 
Q 3231 2300 2841 2188 
z
M 1259 4147 
L 1259 2491 
L 2053 2491 
Q 2509 2491 2742 2702 
Q 2975 2913 2975 3322 
Q 2975 3731 2742 3939 
Q 2509 4147 2053 4147 
L 1259 4147 
z
" transform="scale(0.015625)"/>
     </defs>
     <use xlink:href="#DejaVuSans-2022"/>
     <use xlink:href="#DejaVuSans-20" x="58.984375"/>
     <use xlink:href="#DejaVuSans-52" x="90.771484"/>
     <use xlink:href="#DejaVuSans-4d" x="160.253906"/>
     <use xlink:href="#DejaVuSans-53" x="246.533203"/>
     <use xlink:href="#DejaVuSans-45" x="310.009766"/>
     <use xlink:href="#DejaVuSans-20" x="373.193359"/>
     <use xlink:href="#DejaVuSans-70" x="404.980469"/>
     <use xlink:href="#DejaVuSans-65" x="468.457031"/>
     <use xlink:href="#DejaVuSans-72" x="529.980469"/>
     <use xlink:href="#DejaVuSans-20" x="571.09375"/>
     <use xlink:href="#DejaVuSans-68" x="602.880859"/>
     <use xlink:href="#DejaVuSans-6f" x="666.259766"/>
     <use xlink:href="#DejaVuSans-72" x="727.441406"/>
     <use xlink:href="#DejaVuSans-69" x="768.554688"/>
     <use xlink:href="#DejaVuSans-7a" x="796.337891"/>
     <use xlink:href="#DejaVuSans-6f" x="848.828125"/>
     <use xlink:href="#DejaVuSans-6e" x="910.009766"/>
     <use xlink:href="#DejaVuSans-2f" x="973.388672"/>
     <use xlink:href="#DejaVuSans-66" x="1007.080078"/>
     <use xlink:href="#DejaVuSans-65" x="1042.285156"/>
     <use xlink:href="#DejaVuSans-61" x="1103.808594"/>
     <use xlink:href="#DejaVuSans-74" x="1165.087891"/>
     <use xlink:href="#DejaVuSans-75" x="1204.296875"/>
     <use xlink:href="#DejaVuSans-72" x="1267.675781"/>
     <use xlink:href="#DejaVuSans-65" x="1306.539062"/>
    </g>
    <!-- • Parity plots -->
    <g transform="translate(708.797406 180.912813) scale(0.11 -0.11)">
     <use xlink:href="#DejaVuSans-2022"/>
     <use xlink:href="#DejaVuSans-20" x="58.984375"/>
     <use xlink:href="#DejaVuSans-50" x="90.771484"/>
     <use xlink:href="#DejaVuSans-61" x="146.574219"/>
     <use xlink:href="#DejaVuSans-72" x="207.853516"/>
     <use xlink:href="#DejaVuSans-69" x="248.966797"/>
     <use xlink:href="#DejaVuSans-74" x="276.75"/>
     <use xlink:href="#DejaVuSans-79" x="315.958984"/>
     <use xlink:href="#DejaVuSans-20" x="375.138672"/>
     <use xlink:href="#DejaVuSans-70" x="406.925781"/>
     <use xlink:href="#DejaVuSans-6c" x="470.402344"/>
     <use xlink:href="#DejaVuSans-6f" x="498.185547"/>
     <use xlink:href="#DejaVuSans-74" x="559.367188"/>
     <use xlink:href="#DejaVuSans-73" x="598.576172"/>
    </g>
    <!-- • Baselines -->
    <g transform="translate(713.407094 193.230406) scale(0.11 -0.11)">
     <defs>
      <path id="DejaVuSans-42" d="M 1259 2228 
L 1259 519 
L 2272 519 
Q 2781 519 3026 730 
Q 3272 941 3272 1375 
Q 3272 1813 3026 2020 
Q 2781 2228 2272 2228 
L 1259 2228 
z
M 1259 4147 
L 1259 2741 
L 2194 2741 
Q 2656 2741 2882 2914 
Q 3109 3088 3109 3444 
Q 3109 3797 2882 3972 
Q 2656 4147 2194 4147 
L 1259 4147 
z
M 628 4666 
L 2241 4666 
Q 2963 4666 3353 4366 
Q 3744 4066 3744 3513 
Q 3744 3084 3544 2831 
Q 3344 2578 2956 2516 
Q 3422 2416 3680 2098 
Q 3938 1781 3938 1306 
Q 3938 681 3513 340 
Q 3088 0 2303 0 
L 628 0 
L 628 4666 
z
" transform="scale(0.015625)"/>
     </defs>
     <use xlink:href="#DejaVuSans-2022"/>
     <use xlink:href="#DejaVuSans-20" x="58.984375"/>
     <use xlink:href="#DejaVuSans-42" x="90.771484"/>
     <use xlink:href="#DejaVuSans-61" x="159.375"/>
     <use xlink:href="#DejaVuSans-73" x="220.654297"/>
     <use xlink:href="#DejaVuSans-65" x="272.753906"/>
     <use xlink:href="#DejaVuSans-6c" x="334.277344"/>
     <use xlink:href="#DejaVuSans-69" x="362.060547"/>
     <use xlink:href="#DejaVuSans-6e" x="389.84375"/>
     <use xlink:href="#DejaVuSans-65" x="453.222656"/>
     <use xlink:href="#DejaVuSans-73" x="514.746094"/>
    </g>
    <!-- • Explainability -->
    <g transform="translate(702.599594 205.548) scale(0.11 -0.11)">
     <defs>
      <path id="DejaVuSans-78" d="M 3513 3500 
L 2247 1797 
L 3578 0 
L 2900 0 
L 1881 1375 
L 863 0 
L 184 0 
L 1544 1831 
L 300 3500 
L 978 3500 
L 1906 2253 
L 2834 3500 
L 3513 3500 
z
" transform="scale(0.015625)"/>
     </defs>
     <use xlink:href="#DejaVuSans-2022"/>
     <use xlink:href="#DejaVuSans-20" x="58.984375"/>
     <use xlink:href="#DejaVuSans-45" x="90.771484"/>
     <use xlink:href="#DejaVuSans-78" x="153.955078"/>
     <use xlink:href="#DejaVuSans-70" x="213.134766"/>
     <use xlink:href="#DejaVuSans-6c" x="276.611328"/>
     <use xlink:href="#DejaVuSans-61" x="304.394531"/>
     <use xlink:href="#DejaVuSans-69" x="365.673828"/>
     <use xlink:href="#DejaVuSans-6e" x="393.457031"/>
     <use xlink:href="#DejaVuSans-61" x="456.835938"/>
     <use xlink:href="#DejaVuSans-62" x="518.115234"/>
     <use xlink:href="#DejaVuSans-69" x="581.591797"/>
     <use xlink:href="#DejaVuSans-6c" x="609.375"/>
     <use xlink:href="#DejaVuSans-69" x="637.158203"/>
     <use xlink:href="#DejaVuSans-74" x="664.941406"/>
     <use xlink:href="#DejaVuSans-79" x="704.150391"/>
    </g>
   </g>
   <g id="patch_7">
    <path d="M 156.67298 177.8775 
Q 171.059933 177.8775 183.434424 177.8775 
" style="fill: none; stroke: #333333; stroke-width: 1.8; stroke-linecap: round"/>
    <path d="M 179.434424 175.8775 
L 183.434424 177.8775 
L 179.434424 179.8775 
" style="fill: none; stroke: #333333; stroke-width: 1.8; stroke-linecap: round"/>
   </g>
   <g id="patch_8">
    <path d="M 320.53598 177.8775 
Q 334.922933 177.8775 347.297424 177.8775 
" style="fill: none; stroke: #333333; stroke-width: 1.8; stroke-linecap: round"/>
    <path d="M 343.297424 175.8775 
L 347.297424 177.8775 
L 343.297424 179.8775 
" style="fill: none; stroke: #333333; stroke-width: 1.8; stroke-linecap: round"/>
   </g>
   <g id="patch_9">
    <path d="M 484.39898 177.8775 
Q 498.785933 177.8775 511.160424 177.8775 
" style="fill: none; stroke: #333333; stroke-width: 1.8; stroke-linecap: round"/>
    <path d="M 507.160424 175.8775 
L 511.160424 177.8775 
L 507.160424 179.8775 
" style="fill: none; stroke: #333333; stroke-width: 1.8; stroke-linecap: round"/>
   </g>
   <g id="patch_10">
    <path d="M 648.26198 177.8775 
Q 662.648933 177.8775 675.023424 177.8775 
" style="fill: none; stroke: #333333; stroke-width: 1.8; stroke-linecap: round"/>
    <path d="M 671.023424 175.8775 
L 675.023424 177.8775 
L 671.023424 179.8775 
" style="fill: none; stroke: #333333; stroke-width: 1.8; stroke-linecap: round"/>
   </g>
   <g id="text_6">
    <!-- End-to-End Pipeline for Forecasting Black Hole Evolution -->
    <g transform="translate(191.72 19.3575) scale(0.16 -0.16)">
     <defs>
      <path id="DejaVuSans-6b" d="M 581 4863 
L 1159 4863 
L 1159 1991 
L 2875 3500 
L 3609 3500 
L 1753 1863 
L 3688 0 
L 2938 0 
L 1159 1709 
L 1159 0 
L 581 0 
L 581 4863 
z
" transform="scale(0.015625)"/>
     </defs>
     <use xlink:href="#DejaVuSans-45"/>
     <use xlink:href="#DejaVuSans-6e" x="63.183594"/>
     <use xlink:href="#DejaVuSans-64" x="126.5625"/>
     <use xlink:href="#DejaVuSans-2d" x="190.039062"/>
     <use xlink:href="#DejaVuSans-74" x="226.123047"/>
     <use xlink:href="#DejaVuSans-6f" x="265.332031"/>
     <use xlink:href="#DejaVuSans-2d" x="328.388672"/>
     <use xlink:href="#DejaVuSans-45" x="364.472656"/>
     <use xlink:href="#DejaVuSans-6e" x="427.65625"/>
     <use xlink:href="#DejaVuSans-64" x="491.035156"/>
     <use xlink:href="#DejaVuSans-20" x="554.511719"/>
     <use xlink:href="#DejaVuSans-50" x="586.298828"/>
     <use xlink:href="#DejaVuSans-69" x="644.351562"/>
     <use xlink:href="#DejaVuSans-70" x="672.134766"/>
     <use xlink:href="#DejaVuSans-65" x="735.611328"/>
     <use xlink:href="#DejaVuSans-6c" x="797.134766"/>
     <use xlink:href="#DejaVuSans-69" x="824.917969"/>
     <use xlink:href="#DejaVuSans-6e" x="852.701172"/>
     <use xlink:href="#DejaVuSans-65" x="916.080078"/>
     <use xlink:href="#DejaVuSans-20" x="977.603516"/>
     <use xlink:href="#DejaVuSans-66" x="1009.390625"/>
     <use xlink:href="#DejaVuSans-6f" x="1044.595703"/>
     <use xlink:href="#DejaVuSans-72" x="1105.777344"/>
     <use xlink:href="#DejaVuSans-20" x="1146.890625"/>
     <use xlink:href="#DejaVuSans-46" x="1178.677734"/>
     <use xlink:href="#DejaVuSans-6f" x="1232.572266"/>
     <use xlink:href="#DejaVuSans-72" x="1293.753906"/>
     <use xlink:href="#DejaVuSans-65" x="1332.617188"/>
     <use xlink:href="#DejaVuSans-63" x="1394.140625"/>
     <use xlink:href="#DejaVuSans-61" x="1449.121094"/>
     <use xlink:href="#DejaVuSans-73" x="1510.400391"/>
     <use xlink:href="#DejaVuSans-74" x="1562.5"/>
     <use xlink:href="#DejaVuSans-69" x="1601.708984"/>
     <use xlink:href="#DejaVuSans-6e" x="1629.492188"/>
     <use xlink:href="#DejaVuSans-67" x="1692.871094"/>
     <use xlink:href="#DejaVuSans-20" x="1756.347656"/>
     <use xlink:href="#DejaVuSans-42" x="1788.134766"/>
     <use xlink:href="#DejaVuSans-6c" x="1856.738281"/>
     <use xlink:href="#DejaVuSans-61" x="1884.521484"/>
     <use xlink:href="#DejaVuSans-63" x="1945.800781"/>
     <use xlink:href="#DejaVuSans-6b" x="2000.78125"/>
     <use xlink:href="#DejaVuSans-20" x="2058.691406"/>
     <use xlink:href="#DejaVuSans-48" x="2090.478516"/>
     <use xlink:href="#DejaVuSans-6f" x="2165.673828"/>
     <use xlink:href="#DejaVuSans-6c" x="2226.855469"/>
     <use xlink:href="#DejaVuSans-65" x="2254.638672"/>
     <use xlink:href="#DejaVuSans-20" x="2316.162109"/>
     <use xlink:href="#DejaVuSans-45" x="2347.949219"/>
     <use xlink:href="#DejaVuSans-76" x="2411.132812"/>
     <use xlink:href="#DejaVuSans-6f" x="2470.3125"/>
     <use xlink:href="#DejaVuSans-6c" x="2531.494141"/>
     <use xlink:href="#DejaVuSans-75" x="2559.277344"/>
     <use xlink:href="#DejaVuSans-74" x="2622.65625"/>
     <use xlink:href="#DejaVuSans-69" x="2661.865234"/>
     <use xlink:href="#DejaVuSans-6f" x="2689.648438"/>
     <use xlink:href="#DejaVuSans-6e" x="2750.830078"/>
    </g>
   </g>
  </g>
 </g>
 <defs>
  <clipPath id="p108be3c556">
   <rect x="7.2" y="25.3575" width="819.315" height="305.04"/>
  </clipPath>
 </defs>
</svg>
